<svg width="44" height="44" viewBox="0 0 44 44" fill="none" xmlns="http://www.w3.org/2000/svg">
<circle cx="22" cy="22" r="22" fill="#7900D8" fill-opacity="0.1"/>
<path fill-rule="evenodd" clip-rule="evenodd" d="M29.2637 12.0026H26.3681V11.5997C26.3681 11.1855 26.0384 10.8497 25.6318 10.8497H24.4439C24.1272 9.7807 23.1514 9 22 9C20.8486 9 19.8727 9.7807 19.556 10.8497H18.3682C17.9616 10.8497 17.6319 11.1855 17.6319 11.5998V12.0027H14.7363C14.3297 12.0027 14 12.3385 14 12.7527V31.25C14 31.6642 14.3297 32 14.7363 32H29.2637C29.6703 32 30 31.6642 30 31.25V12.7526C30 12.3384 29.6703 12.0026 29.2637 12.0026ZM19.1045 12.3497H20.184C20.5907 12.3497 20.9204 12.0139 20.9204 11.5997C20.9204 10.9933 21.4047 10.5 22 10.5C22.5953 10.5 23.0796 10.9933 23.0796 11.5997C23.0796 12.0139 23.4093 12.3497 23.8159 12.3497H24.8955V13.5254H19.1045V12.3497ZM19.0828 27.4972H24.9172C25.3238 27.4972 25.6534 27.1614 25.6534 26.7472C25.6534 26.3329 25.3238 25.9971 24.9171 25.9971H19.0828C18.6762 25.9971 18.3465 26.3329 18.3465 26.7472C18.3465 27.1614 18.6762 27.4972 19.0828 27.4972ZM24.9172 23.5127H19.0828C18.6762 23.5127 18.3465 23.1769 18.3465 22.7626C18.3465 22.3485 18.6762 22.0126 19.0828 22.0126H24.9171C25.3238 22.0126 25.6534 22.3484 25.6534 22.7626C25.6534 23.1769 25.3238 23.5127 24.9172 23.5127ZM19.0828 19.5282H24.9172C25.3238 19.5282 25.6534 19.1924 25.6534 18.7782C25.6534 18.3639 25.3238 18.0282 24.9171 18.0282H19.0828C18.6762 18.0282 18.3465 18.364 18.3465 18.7782C18.3465 19.1924 18.6762 19.5282 19.0828 19.5282Z" fill="#7900D8"/>
</svg>
