<svg width="24" height="24" viewBox="0 0 24 24" fill="none" xmlns="http://www.w3.org/2000/svg">
<g id="27) Icon/arrow-circle-up-fill">
<path id="&#240;&#159;&#142;&#168; Icon &#208;&#161;olor" fill-rule="evenodd" clip-rule="evenodd" d="M8.30957 10.1387L11.3096 7.2767C11.3546 7.2337 11.4106 7.2127 11.4606 7.1797C11.5146 7.1437 11.5626 7.1007 11.6226 7.0757C11.7436 7.0267 11.8716 6.9997 11.9996 6.9997C12.1306 6.9997 12.2606 7.0267 12.3826 7.0767C12.5046 7.1277 12.6156 7.2007 12.7076 7.2937L15.7066 10.2927C16.0976 10.6837 16.0976 11.3167 15.7066 11.7067C15.3166 12.0977 14.6836 12.0977 14.2926 11.7067L12.9996 10.4137V15.9997C12.9996 16.5527 12.5526 16.9997 11.9996 16.9997C11.4476 16.9997 10.9996 16.5527 10.9996 15.9997V10.3367L9.69057 11.5857C9.29057 11.9667 8.65857 11.9527 8.27657 11.5527C7.89457 11.1527 7.91057 10.5197 8.30957 10.1387ZM11.9996 21.9997C17.5146 21.9997 21.9996 17.5137 21.9996 11.9997C21.9996 6.4857 17.5146 1.9997 11.9996 1.9997C6.48557 1.9997 1.99957 6.4857 1.99957 11.9997C1.99957 17.5137 6.48557 21.9997 11.9996 21.9997Z" fill="#222B45"/>
<mask id="mask0" mask-type="alpha" maskUnits="userSpaceOnUse" x="1" y="1" width="21" height="21">
<path id="&#240;&#159;&#142;&#168; Icon &#208;&#161;olor_2" fill-rule="evenodd" clip-rule="evenodd" d="M8.30957 10.1387L11.3096 7.2767C11.3546 7.2337 11.4106 7.2127 11.4606 7.1797C11.5146 7.1437 11.5626 7.1007 11.6226 7.0757C11.7436 7.0267 11.8716 6.9997 11.9996 6.9997C12.1306 6.9997 12.2606 7.0267 12.3826 7.0767C12.5046 7.1277 12.6156 7.2007 12.7076 7.2937L15.7066 10.2927C16.0976 10.6837 16.0976 11.3167 15.7066 11.7067C15.3166 12.0977 14.6836 12.0977 14.2926 11.7067L12.9996 10.4137V15.9997C12.9996 16.5527 12.5526 16.9997 11.9996 16.9997C11.4476 16.9997 10.9996 16.5527 10.9996 15.9997V10.3367L9.69057 11.5857C9.29057 11.9667 8.65857 11.9527 8.27657 11.5527C7.89457 11.1527 7.91057 10.5197 8.30957 10.1387ZM11.9996 21.9997C17.5146 21.9997 21.9996 17.5137 21.9996 11.9997C21.9996 6.4857 17.5146 1.9997 11.9996 1.9997C6.48557 1.9997 1.99957 6.4857 1.99957 11.9997C1.99957 17.5137 6.48557 21.9997 11.9996 21.9997Z" fill="white"/>
</mask>
<g mask="url(#mask0)">
</g>
</g>
</svg>
