<svg width="24" height="24" viewBox="0 0 24 24" fill="none" xmlns="http://www.w3.org/2000/svg">
<g id="27) Icon/bookmark">
<path id="&#240;&#159;&#142;&#168; Icon &#208;&#161;olor" fill-rule="evenodd" clip-rule="evenodd" d="M11.8213 15.5059C11.9903 15.5059 12.1603 15.5489 12.3133 15.6349L17.0003 18.2859V5.33389C17.0003 5.13289 16.8793 4.99989 16.8003 4.99989H7.20031C7.12031 4.99989 7.00031 5.13289 7.00031 5.33389V18.2339L11.3063 15.6489C11.4653 15.5539 11.6433 15.5059 11.8213 15.5059ZM6.00031 20.9999C5.83031 20.9999 5.66031 20.9569 5.50731 20.8699C5.19431 20.6929 5.00031 20.3599 5.00031 19.9999V5.33389C5.00031 4.04689 5.98731 2.99989 7.20031 2.99989H16.8003C18.0133 2.99989 19.0003 4.04689 19.0003 5.33389V19.9999C19.0003 20.3559 18.8113 20.6849 18.5043 20.8639C18.1963 21.0439 17.8183 21.0469 17.5083 20.8709L11.8363 17.6629L6.51431 20.8579C6.35631 20.9519 6.17831 20.9999 6.00031 20.9999Z" fill="#222B45"/>
<mask id="mask0" mask-type="alpha" maskUnits="userSpaceOnUse" x="5" y="2" width="15" height="20">
<path id="&#240;&#159;&#142;&#168; Icon &#208;&#161;olor_2" fill-rule="evenodd" clip-rule="evenodd" d="M11.8213 15.5059C11.9903 15.5059 12.1603 15.5489 12.3133 15.6349L17.0003 18.2859V5.33389C17.0003 5.13289 16.8793 4.99989 16.8003 4.99989H7.20031C7.12031 4.99989 7.00031 5.13289 7.00031 5.33389V18.2339L11.3063 15.6489C11.4653 15.5539 11.6433 15.5059 11.8213 15.5059ZM6.00031 20.9999C5.83031 20.9999 5.66031 20.9569 5.50731 20.8699C5.19431 20.6929 5.00031 20.3599 5.00031 19.9999V5.33389C5.00031 4.04689 5.98731 2.99989 7.20031 2.99989H16.8003C18.0133 2.99989 19.0003 4.04689 19.0003 5.33389V19.9999C19.0003 20.3559 18.8113 20.6849 18.5043 20.8639C18.1963 21.0439 17.8183 21.0469 17.5083 20.8709L11.8363 17.6629L6.51431 20.8579C6.35631 20.9519 6.17831 20.9999 6.00031 20.9999Z" fill="white"/>
</mask>
<g mask="url(#mask0)">
</g>
</g>
</svg>
