<svg width="24" height="24" viewBox="0 0 24 24" fill="none" xmlns="http://www.w3.org/2000/svg">
<g id="27) Icon/book-open-fill">
<path id="&#240;&#159;&#142;&#168; Icon &#208;&#161;olor" fill-rule="evenodd" clip-rule="evenodd" d="M19.9386 4.11091C20.3196 4.01291 20.7106 4.09791 21.0176 4.33591C21.3246 4.57491 21.4996 4.93491 21.4996 5.32191V17.0079C21.4996 17.5789 21.1146 18.0769 20.5616 18.2189L12.9996 20.1599V5.89391L19.9386 4.11091ZM4.058 4.11061L11 5.89361V20.1606L3.438 18.2186C2.886 18.0776 2.5 17.5796 2.5 17.0076V5.32261C2.5 4.93461 2.676 4.57561 2.982 4.33561C3.288 4.09861 3.681 4.01561 4.058 4.11061Z" fill="#222B45"/>
<mask id="mask0" mask-type="alpha" maskUnits="userSpaceOnUse" x="2" y="4" width="20" height="17">
<path id="&#240;&#159;&#142;&#168; Icon &#208;&#161;olor_2" fill-rule="evenodd" clip-rule="evenodd" d="M19.9386 4.11091C20.3196 4.01291 20.7106 4.09791 21.0176 4.33591C21.3246 4.57491 21.4996 4.93491 21.4996 5.32191V17.0079C21.4996 17.5789 21.1146 18.0769 20.5616 18.2189L12.9996 20.1599V5.89391L19.9386 4.11091ZM4.058 4.11061L11 5.89361V20.1606L3.438 18.2186C2.886 18.0776 2.5 17.5796 2.5 17.0076V5.32261C2.5 4.93461 2.676 4.57561 2.982 4.33561C3.288 4.09861 3.681 4.01561 4.058 4.11061Z" fill="white"/>
</mask>
<g mask="url(#mask0)">
</g>
</g>
</svg>
