<svg width="24" height="24" viewBox="0 0 24 24" fill="none" xmlns="http://www.w3.org/2000/svg">
<g id="27) Icon/brush">
<path id="&#240;&#159;&#142;&#168; Icon &#208;&#161;olor" fill-rule="evenodd" clip-rule="evenodd" d="M17.7656 7.39261L11.8986 13.2576C11.7476 13.0316 11.5746 12.8176 11.3776 12.6216C11.1806 12.4246 10.9666 12.2526 10.7406 12.1046L16.6096 6.23761C16.9156 5.93061 17.4576 5.92961 17.7666 6.23861C17.9196 6.39161 18.0026 6.59161 17.9996 6.82761C18.0026 7.03861 17.9186 7.23861 17.7656 7.39261ZM8.24562 17.9406L6.01762 17.9816L6.05662 15.7506C6.07762 14.4846 7.12662 13.4346 8.39562 13.4126C8.40962 13.4126 8.42162 13.4116 8.43562 13.4116C9.01962 13.4116 9.56062 13.6316 9.96362 14.0356C10.3766 14.4476 10.5976 15.0036 10.5876 15.6016C10.5666 16.8696 9.51562 17.9186 8.24562 17.9406ZM19.9996 6.82761C20.0096 6.07161 19.7176 5.35961 19.1806 4.82361C18.1186 3.76261 16.2556 3.75961 15.1956 4.82361L8.58262 11.4336C8.50762 11.4296 8.43562 11.4136 8.36062 11.4126C6.02662 11.4546 4.09562 13.3856 4.05662 15.7166L3.99962 18.9826C3.99462 19.2536 4.10162 19.5156 4.29262 19.7066C4.48062 19.8946 4.73562 19.9996 4.99962 19.9996H5.01862L8.28462 19.9406C10.6166 19.8996 12.5466 17.9686 12.5876 15.6356C12.5886 15.5606 12.5726 15.4896 12.5706 15.4136L19.1796 8.80661C19.7176 8.26861 20.0096 7.55661 19.9996 6.82761Z" fill="#222B45"/>
<mask id="mask0" mask-type="alpha" maskUnits="userSpaceOnUse" x="3" y="4" width="17" height="16">
<path id="&#240;&#159;&#142;&#168; Icon &#208;&#161;olor_2" fill-rule="evenodd" clip-rule="evenodd" d="M17.7656 7.39261L11.8986 13.2576C11.7476 13.0316 11.5746 12.8176 11.3776 12.6216C11.1806 12.4246 10.9666 12.2526 10.7406 12.1046L16.6096 6.23761C16.9156 5.93061 17.4576 5.92961 17.7666 6.23861C17.9196 6.39161 18.0026 6.59161 17.9996 6.82761C18.0026 7.03861 17.9186 7.23861 17.7656 7.39261ZM8.24562 17.9406L6.01762 17.9816L6.05662 15.7506C6.07762 14.4846 7.12662 13.4346 8.39562 13.4126C8.40962 13.4126 8.42162 13.4116 8.43562 13.4116C9.01962 13.4116 9.56062 13.6316 9.96362 14.0356C10.3766 14.4476 10.5976 15.0036 10.5876 15.6016C10.5666 16.8696 9.51562 17.9186 8.24562 17.9406ZM19.9996 6.82761C20.0096 6.07161 19.7176 5.35961 19.1806 4.82361C18.1186 3.76261 16.2556 3.75961 15.1956 4.82361L8.58262 11.4336C8.50762 11.4296 8.43562 11.4136 8.36062 11.4126C6.02662 11.4546 4.09562 13.3856 4.05662 15.7166L3.99962 18.9826C3.99462 19.2536 4.10162 19.5156 4.29262 19.7066C4.48062 19.8946 4.73562 19.9996 4.99962 19.9996H5.01862L8.28462 19.9406C10.6166 19.8996 12.5466 17.9686 12.5876 15.6356C12.5886 15.5606 12.5726 15.4896 12.5706 15.4136L19.1796 8.80661C19.7176 8.26861 20.0096 7.55661 19.9996 6.82761Z" fill="white"/>
</mask>
<g mask="url(#mask0)">
</g>
</g>
</svg>
