<svg width="24" height="24" viewBox="0 0 24 24" fill="none" xmlns="http://www.w3.org/2000/svg">
<g id="27) Icon/bulb">
<path id="&#240;&#159;&#142;&#168; Icon &#208;&#161;olor" fill-rule="evenodd" clip-rule="evenodd" d="M19.168 6.46679L17.73 7.85679C17.536 8.04379 17.285 8.13779 17.035 8.13779C16.773 8.13779 16.512 8.03479 16.316 7.83179C15.933 7.43579 15.943 6.80179 16.341 6.41879L17.779 5.02979C18.176 4.64679 18.812 4.65679 19.192 5.05379C19.576 5.44979 19.565 6.08379 19.168 6.46679ZM7.684 7.83179C7.488 8.03479 7.227 8.13779 6.965 8.13779C6.715 8.13779 6.464 8.04479 6.27 7.85779L4.831 6.46779C4.434 6.08379 4.423 5.44979 4.807 5.05379C5.191 4.65679 5.823 4.64479 6.221 5.02879L7.66 6.41779C8.057 6.80179 8.068 7.43579 7.684 7.83179ZM6 11.9998C6 12.5528 5.552 12.9998 5 12.9998H3C2.448 12.9998 2 12.5528 2 11.9998C2 11.4468 2.448 10.9998 3 10.9998H5C5.552 10.9998 6 11.4468 6 11.9998ZM22 11.9998C22 12.5528 21.553 12.9998 21 12.9998H19C18.447 12.9998 18 12.5528 18 11.9998C18 11.4468 18.447 10.9998 19 10.9998H21C21.553 10.9998 22 11.4468 22 11.9998ZM11 4.99979V2.99979C11 2.44679 11.448 1.99979 12 1.99979C12.552 1.99979 13 2.44679 13 2.99979V4.99979C13 5.55279 12.552 5.99979 12 5.99979C11.448 5.99979 11 5.55279 11 4.99979ZM13.501 14.5928C13.191 14.7718 13 15.1028 13 15.4598V19.9998H11V15.4598C11 15.1028 10.809 14.7718 10.499 14.5928C9.574 14.0618 9 13.0678 9 11.9998C9 10.3458 10.346 8.99979 12 8.99979C13.654 8.99979 15 10.3458 15 11.9998C15 13.0678 14.426 14.0618 13.501 14.5928ZM12 6.99979C9.243 6.99979 7 9.24279 7 11.9998C7 13.5788 7.753 15.0618 9 15.9958V19.9998C9 21.1028 9.897 21.9998 11 21.9998H13C14.103 21.9998 15 21.1028 15 19.9998V15.9958C16.246 15.0618 17 13.5788 17 11.9998C17 9.24279 14.757 6.99979 12 6.99979Z" fill="#222B45"/>
</g>
</svg>
