<svg width="24" height="24" viewBox="0 0 24 24" fill="none" xmlns="http://www.w3.org/2000/svg">
<g id="27) Icon/checkmark-circle-fill">
<path id="&#240;&#159;&#142;&#168; Icon &#208;&#161;olor" fill-rule="evenodd" clip-rule="evenodd" d="M16.2954 9.60549L11.7274 15.6055C11.5394 15.8525 11.2484 15.9985 10.9384 16.0005H10.9314C10.6244 16.0005 10.3344 15.8585 10.1444 15.6165L7.71243 12.5095C7.37243 12.0755 7.44843 11.4465 7.88343 11.1065C8.31743 10.7655 8.94743 10.8415 9.28743 11.2775L10.9204 13.3635L14.7044 8.39449C15.0384 7.95549 15.6654 7.86949 16.1064 8.20449C16.5454 8.53949 16.6304 9.16649 16.2954 9.60549ZM12.0004 2.00049C6.47743 2.00049 2.00043 6.47749 2.00043 12.0005C2.00043 17.5225 6.47743 22.0005 12.0004 22.0005C17.5234 22.0005 22.0004 17.5225 22.0004 12.0005C22.0004 6.47749 17.5234 2.00049 12.0004 2.00049Z" fill="#222B45"/>
<mask id="mask0" mask-type="alpha" maskUnits="userSpaceOnUse" x="2" y="2" width="21" height="21">
<path id="&#240;&#159;&#142;&#168; Icon &#208;&#161;olor_2" fill-rule="evenodd" clip-rule="evenodd" d="M16.2954 9.60549L11.7274 15.6055C11.5394 15.8525 11.2484 15.9985 10.9384 16.0005H10.9314C10.6244 16.0005 10.3344 15.8585 10.1444 15.6165L7.71243 12.5095C7.37243 12.0755 7.44843 11.4465 7.88343 11.1065C8.31743 10.7655 8.94743 10.8415 9.28743 11.2775L10.9204 13.3635L14.7044 8.39449C15.0384 7.95549 15.6654 7.86949 16.1064 8.20449C16.5454 8.53949 16.6304 9.16649 16.2954 9.60549ZM12.0004 2.00049C6.47743 2.00049 2.00043 6.47749 2.00043 12.0005C2.00043 17.5225 6.47743 22.0005 12.0004 22.0005C17.5234 22.0005 22.0004 17.5225 22.0004 12.0005C22.0004 6.47749 17.5234 2.00049 12.0004 2.00049Z" fill="white"/>
</mask>
<g mask="url(#mask0)">
</g>
</g>
</svg>
