<svg width="24" height="24" viewBox="0 0 24 24" fill="none" xmlns="http://www.w3.org/2000/svg">
<g id="27) Icon/checkmark-square-2">
<path id="&#240;&#159;&#142;&#168; Icon &#208;&#161;olor" fill-rule="evenodd" clip-rule="evenodd" d="M19 12.8335C19 12.2815 19.448 11.8335 20 11.8335C20.552 11.8335 21 12.2815 21 12.8335V18.3995C21 19.8335 19.833 21.0005 18.4 21.0005H5.6C4.167 21.0005 3 19.8335 3 18.3995V5.6005C3 4.1665 4.167 3.0005 5.6 3.0005H15.167C15.719 3.0005 16.167 3.4475 16.167 4.0005C16.167 4.5525 15.719 5.0005 15.167 5.0005H5.6C5.269 5.0005 5 5.2695 5 5.6005V18.3995C5 18.7305 5.269 19.0005 5.6 19.0005H18.4C18.731 19.0005 19 18.7305 19 18.3995V12.8335ZM9.3096 10.9465C9.7096 10.5645 10.3416 10.5805 10.7236 10.9795L12.2286 12.5575L18.2816 6.3045C18.6646 5.9085 19.2976 5.8965 19.6956 6.2815C20.0926 6.6655 20.1026 7.2985 19.7186 7.6955L12.9416 14.6955C12.7536 14.8905 12.4946 15.0005 12.2236 15.0005H12.2196C11.9476 14.9995 11.6876 14.8875 11.4996 14.6905L9.2766 12.3605C8.8946 11.9605 8.9106 11.3275 9.3096 10.9465Z" fill="#222B45"/>
<mask id="mask0" mask-type="alpha" maskUnits="userSpaceOnUse" x="3" y="3" width="18" height="19">
<path id="&#240;&#159;&#142;&#168; Icon &#208;&#161;olor_2" fill-rule="evenodd" clip-rule="evenodd" d="M19 12.8335C19 12.2815 19.448 11.8335 20 11.8335C20.552 11.8335 21 12.2815 21 12.8335V18.3995C21 19.8335 19.833 21.0005 18.4 21.0005H5.6C4.167 21.0005 3 19.8335 3 18.3995V5.6005C3 4.1665 4.167 3.0005 5.6 3.0005H15.167C15.719 3.0005 16.167 3.4475 16.167 4.0005C16.167 4.5525 15.719 5.0005 15.167 5.0005H5.6C5.269 5.0005 5 5.2695 5 5.6005V18.3995C5 18.7305 5.269 19.0005 5.6 19.0005H18.4C18.731 19.0005 19 18.7305 19 18.3995V12.8335ZM9.3096 10.9465C9.7096 10.5645 10.3416 10.5805 10.7236 10.9795L12.2286 12.5575L18.2816 6.3045C18.6646 5.9085 19.2976 5.8965 19.6956 6.2815C20.0926 6.6655 20.1026 7.2985 19.7186 7.6955L12.9416 14.6955C12.7536 14.8905 12.4946 15.0005 12.2236 15.0005H12.2196C11.9476 14.9995 11.6876 14.8875 11.4996 14.6905L9.2766 12.3605C8.8946 11.9605 8.9106 11.3275 9.3096 10.9465Z" fill="white"/>
</mask>
<g mask="url(#mask0)">
</g>
</g>
</svg>
