<svg width="48" height="48" viewBox="0 0 48 48" fill="none" xmlns="http://www.w3.org/2000/svg">
<path fill-rule="evenodd" clip-rule="evenodd" d="M23.9995 6C29.1615 6 33.7095 9.322 35.3495 14.09C40.2275 14.752 43.9995 18.944 43.9995 24C43.9995 26.442 43.1115 28.792 41.4995 30.618C41.1035 31.064 40.5535 31.294 39.9995 31.294C39.5295 31.294 39.0575 31.13 38.6755 30.794C37.8495 30.06 37.7695 28.798 38.5015 27.968C39.4675 26.876 39.9995 25.464 39.9995 24C39.9995 20.692 37.3075 18 33.9995 18H33.7995C32.8475 18 32.0275 17.328 31.8395 16.394C31.0915 12.69 27.7955 10 23.9995 10C20.2055 10 16.9075 12.69 16.1615 16.394C15.9735 17.328 15.1515 18 14.1995 18H13.9995C10.6915 18 7.99951 20.692 7.99951 24C7.99951 25.464 8.53151 26.876 9.49951 27.968C10.2295 28.798 10.1515 30.06 9.32351 30.794C8.49551 31.526 7.23151 31.444 6.50151 30.618C4.88751 28.792 3.99951 26.442 3.99951 24C3.99951 18.944 7.77151 14.752 12.6495 14.09C14.2915 9.322 18.8395 6 23.9995 6ZM22.6099 22.5602C23.3979 21.8082 24.6439 21.8142 25.4139 22.5862L31.4139 28.5862C32.1959 29.3682 32.1959 30.6322 31.4139 31.4142C31.0239 31.8042 30.5119 32.0002 29.9999 32.0002C29.4879 32.0002 28.9759 31.8042 28.5859 31.4142L25.9999 28.8282V40.0002C25.9999 41.1062 25.1039 42.0002 23.9999 42.0002C22.8959 42.0002 21.9999 41.1062 21.9999 40.0002V28.7122L19.3899 31.2322C18.5959 32.0022 17.3299 31.9762 16.5619 31.1822C15.7939 30.3862 15.8159 29.1222 16.6099 28.3542L22.6099 22.5602Z" fill="#7900D8"/>
<mask id="mask0" mask-type="alpha" maskUnits="userSpaceOnUse" x="3" y="6" width="41" height="37">
<path fill-rule="evenodd" clip-rule="evenodd" d="M23.9995 6C29.1615 6 33.7095 9.322 35.3495 14.09C40.2275 14.752 43.9995 18.944 43.9995 24C43.9995 26.442 43.1115 28.792 41.4995 30.618C41.1035 31.064 40.5535 31.294 39.9995 31.294C39.5295 31.294 39.0575 31.13 38.6755 30.794C37.8495 30.06 37.7695 28.798 38.5015 27.968C39.4675 26.876 39.9995 25.464 39.9995 24C39.9995 20.692 37.3075 18 33.9995 18H33.7995C32.8475 18 32.0275 17.328 31.8395 16.394C31.0915 12.69 27.7955 10 23.9995 10C20.2055 10 16.9075 12.69 16.1615 16.394C15.9735 17.328 15.1515 18 14.1995 18H13.9995C10.6915 18 7.99951 20.692 7.99951 24C7.99951 25.464 8.53151 26.876 9.49951 27.968C10.2295 28.798 10.1515 30.06 9.32351 30.794C8.49551 31.526 7.23151 31.444 6.50151 30.618C4.88751 28.792 3.99951 26.442 3.99951 24C3.99951 18.944 7.77151 14.752 12.6495 14.09C14.2915 9.322 18.8395 6 23.9995 6ZM22.6099 22.5602C23.3979 21.8082 24.6439 21.8142 25.4139 22.5862L31.4139 28.5862C32.1959 29.3682 32.1959 30.6322 31.4139 31.4142C31.0239 31.8042 30.5119 32.0002 29.9999 32.0002C29.4879 32.0002 28.9759 31.8042 28.5859 31.4142L25.9999 28.8282V40.0002C25.9999 41.1062 25.1039 42.0002 23.9999 42.0002C22.8959 42.0002 21.9999 41.1062 21.9999 40.0002V28.7122L19.3899 31.2322C18.5959 32.0022 17.3299 31.9762 16.5619 31.1822C15.7939 30.3862 15.8159 29.1222 16.6099 28.3542L22.6099 22.5602Z" fill="white"/>
</mask>
<g mask="url(#mask0)">
</g>
</svg>
