<svg width="24" height="24" viewBox="0 0 24 24" fill="none" xmlns="http://www.w3.org/2000/svg">
<g id="27) Icon/color-palette-fill">
<path id="&#240;&#159;&#142;&#168; Icon &#208;&#161;olor" fill-rule="evenodd" clip-rule="evenodd" d="M16.75 7.79879C16.032 8.21279 15.115 7.96679 14.701 7.24979C14.287 6.53179 14.533 5.61479 15.25 5.20079C15.968 4.78679 16.885 5.03279 17.299 5.74979C17.713 6.46779 17.467 7.38479 16.75 7.79879ZM11 6.99979C10.172 6.99979 9.50002 6.32779 9.50002 5.49979C9.50002 4.67179 10.172 3.99979 11 3.99979C11.828 3.99979 12.5 4.67179 12.5 5.49979C12.5 6.32779 11.828 6.99979 11 6.99979ZM8.29902 9.24979C7.88502 9.96679 6.96802 10.2128 6.25002 9.79879C5.53302 9.38479 5.28702 8.46779 5.70102 7.74979C6.11502 7.03279 7.03202 6.78679 7.75002 7.20079C8.46702 7.61479 8.71302 8.53179 8.29902 9.24979ZM6.83902 14.7428C6.15202 15.2068 5.22002 15.0258 4.75702 14.3388C4.29302 13.6528 4.47502 12.7198 5.16102 12.2568C5.84802 11.7928 6.78002 11.9748 7.24302 12.6608C7.70702 13.3478 7.52502 14.2798 6.83902 14.7428ZM19.54 5.08479C17.617 3.10079 14.814 1.99279 11.906 1.99979H11.905C6.96102 2.04179 2.74102 5.75179 2.09202 10.6308C1.71002 13.4908 2.56202 16.3718 4.43002 18.5338C6.29802 20.6978 9.00702 21.9608 11.861 21.9998H11.898C13.099 21.9998 14.157 21.2128 14.426 20.1138C14.625 19.2918 14.418 18.4578 13.858 17.8258C13.777 17.7358 13.73 17.6158 13.73 17.5008C13.73 17.2258 13.955 17.0008 14.23 17.0008H15.881C19.073 17.0008 21.872 14.4028 21.993 11.3288C22.085 9.02879 21.214 6.81179 19.54 5.08479Z" fill="#222B45"/>
<mask id="mask0" mask-type="alpha" maskUnits="userSpaceOnUse" x="2" y="1" width="20" height="21">
<path id="&#240;&#159;&#142;&#168; Icon &#208;&#161;olor_2" fill-rule="evenodd" clip-rule="evenodd" d="M16.75 7.79879C16.032 8.21279 15.115 7.96679 14.701 7.24979C14.287 6.53179 14.533 5.61479 15.25 5.20079C15.968 4.78679 16.885 5.03279 17.299 5.74979C17.713 6.46779 17.467 7.38479 16.75 7.79879ZM11 6.99979C10.172 6.99979 9.50002 6.32779 9.50002 5.49979C9.50002 4.67179 10.172 3.99979 11 3.99979C11.828 3.99979 12.5 4.67179 12.5 5.49979C12.5 6.32779 11.828 6.99979 11 6.99979ZM8.29902 9.24979C7.88502 9.96679 6.96802 10.2128 6.25002 9.79879C5.53302 9.38479 5.28702 8.46779 5.70102 7.74979C6.11502 7.03279 7.03202 6.78679 7.75002 7.20079C8.46702 7.61479 8.71302 8.53179 8.29902 9.24979ZM6.83902 14.7428C6.15202 15.2068 5.22002 15.0258 4.75702 14.3388C4.29302 13.6528 4.47502 12.7198 5.16102 12.2568C5.84802 11.7928 6.78002 11.9748 7.24302 12.6608C7.70702 13.3478 7.52502 14.2798 6.83902 14.7428ZM19.54 5.08479C17.617 3.10079 14.814 1.99279 11.906 1.99979H11.905C6.96102 2.04179 2.74102 5.75179 2.09202 10.6308C1.71002 13.4908 2.56202 16.3718 4.43002 18.5338C6.29802 20.6978 9.00702 21.9608 11.861 21.9998H11.898C13.099 21.9998 14.157 21.2128 14.426 20.1138C14.625 19.2918 14.418 18.4578 13.858 17.8258C13.777 17.7358 13.73 17.6158 13.73 17.5008C13.73 17.2258 13.955 17.0008 14.23 17.0008H15.881C19.073 17.0008 21.872 14.4028 21.993 11.3288C22.085 9.02879 21.214 6.81179 19.54 5.08479Z" fill="white"/>
</mask>
<g mask="url(#mask0)">
</g>
</g>
</svg>
