<svg width="24" height="24" viewBox="0 0 24 24" fill="none" xmlns="http://www.w3.org/2000/svg">
<g id="27) Icon/corner-right-up">
<path id="&#240;&#159;&#142;&#168; Icon &#208;&#161;olor" fill-rule="evenodd" clip-rule="evenodd" d="M18.6245 8.2192L13.6245 4.2192C13.2595 3.9272 12.7405 3.9272 12.3755 4.2192L7.37551 8.2192C6.94351 8.5642 6.87451 9.1932 7.21951 9.6242C7.56351 10.0552 8.19351 10.1252 8.62451 9.7812L11.9995 7.0802V16.0002C11.9995 16.5512 11.5515 17.0002 10.9995 17.0002H5.99951C5.44751 17.0002 4.99951 17.4482 4.99951 18.0002C4.99951 18.5522 5.44751 19.0002 5.99951 19.0002H10.9995C12.6545 19.0002 13.9995 17.6542 13.9995 16.0002V7.0802L17.3755 9.7812C17.5595 9.9282 17.7805 10.0002 17.9995 10.0002C18.2925 10.0002 18.5835 9.8712 18.7805 9.6242C19.1255 9.1932 19.0565 8.5642 18.6245 8.2192Z" fill="#222B45"/>
<mask id="mask0" mask-type="alpha" maskUnits="userSpaceOnUse" x="4" y="4" width="15" height="16">
<path id="&#240;&#159;&#142;&#168; Icon &#208;&#161;olor_2" fill-rule="evenodd" clip-rule="evenodd" d="M18.6245 8.2192L13.6245 4.2192C13.2595 3.9272 12.7405 3.9272 12.3755 4.2192L7.37551 8.2192C6.94351 8.5642 6.87451 9.1932 7.21951 9.6242C7.56351 10.0552 8.19351 10.1252 8.62451 9.7812L11.9995 7.0802V16.0002C11.9995 16.5512 11.5515 17.0002 10.9995 17.0002H5.99951C5.44751 17.0002 4.99951 17.4482 4.99951 18.0002C4.99951 18.5522 5.44751 19.0002 5.99951 19.0002H10.9995C12.6545 19.0002 13.9995 17.6542 13.9995 16.0002V7.0802L17.3755 9.7812C17.5595 9.9282 17.7805 10.0002 17.9995 10.0002C18.2925 10.0002 18.5835 9.8712 18.7805 9.6242C19.1255 9.1932 19.0565 8.5642 18.6245 8.2192Z" fill="white"/>
</mask>
<g mask="url(#mask0)">
</g>
</g>
</svg>
