<svg width="24" height="24" viewBox="0 0 24 24" fill="none" xmlns="http://www.w3.org/2000/svg">
<g id="27) Icon/diagonal-arrow-left-down">
<path id="&#240;&#159;&#142;&#168; Icon &#208;&#161;olor" fill-rule="evenodd" clip-rule="evenodd" d="M17.707 6.293C17.316 5.902 16.684 5.902 16.293 6.293L8 14.586V9C8 8.448 7.553 8 7 8C6.447 8 6 8.448 6 9V17C6 17.552 6.447 18 7 18H15C15.553 18 16 17.552 16 17C16 16.448 15.553 16 15 16H9.414L17.707 7.707C18.098 7.316 18.098 6.684 17.707 6.293Z" fill="#222B45"/>
<mask id="mask0" mask-type="alpha" maskUnits="userSpaceOnUse" x="6" y="5" width="13" height="13">
<path id="&#240;&#159;&#142;&#168; Icon &#208;&#161;olor_2" fill-rule="evenodd" clip-rule="evenodd" d="M17.707 6.293C17.316 5.902 16.684 5.902 16.293 6.293L8 14.586V9C8 8.448 7.553 8 7 8C6.447 8 6 8.448 6 9V17C6 17.552 6.447 18 7 18H15C15.553 18 16 17.552 16 17C16 16.448 15.553 16 15 16H9.414L17.707 7.707C18.098 7.316 18.098 6.684 17.707 6.293Z" fill="white"/>
</mask>
<g mask="url(#mask0)">
</g>
</g>
</svg>
