<svg width="24" height="24" viewBox="0 0 24 24" fill="none" xmlns="http://www.w3.org/2000/svg">
<g id="27) Icon/diagonal-arrow-right-down">
<path id="&#240;&#159;&#142;&#168; Icon &#208;&#161;olor" fill-rule="evenodd" clip-rule="evenodd" d="M17 8C16.447 8 16 8.448 16 9V14.586L7.70701 6.293C7.31601 5.902 6.68401 5.902 6.29301 6.293C5.90201 6.684 5.90201 7.316 6.29301 7.707L14.586 16H9.00001C8.44701 16 8.00001 16.448 8.00001 17C8.00001 17.552 8.44701 18 9.00001 18H17C17.553 18 18 17.552 18 17V9C18 8.448 17.553 8 17 8Z" fill="#222B45"/>
<mask id="mask0" mask-type="alpha" maskUnits="userSpaceOnUse" x="5" y="5" width="13" height="13">
<path id="&#240;&#159;&#142;&#168; Icon &#208;&#161;olor_2" fill-rule="evenodd" clip-rule="evenodd" d="M17 8C16.447 8 16 8.448 16 9V14.586L7.70701 6.293C7.31601 5.902 6.68401 5.902 6.29301 6.293C5.90201 6.684 5.90201 7.316 6.29301 7.707L14.586 16H9.00001C8.44701 16 8.00001 16.448 8.00001 17C8.00001 17.552 8.44701 18 9.00001 18H17C17.553 18 18 17.552 18 17V9C18 8.448 17.553 8 17 8Z" fill="white"/>
</mask>
<g mask="url(#mask0)">
</g>
</g>
</svg>
