<svg width="24" height="24" viewBox="0 0 24 24" fill="none" xmlns="http://www.w3.org/2000/svg">
<g id="27) Icon/edit-2-fill">
<path id="&#240;&#159;&#142;&#168; Icon &#208;&#161;olor" fill-rule="evenodd" clip-rule="evenodd" d="M17.9655 6.7287L15.2715 4.0347L13.3235 5.9837L16.0185 8.6787L17.9655 6.7287ZM5.0905 17.9957C5.0605 17.9987 5.0305 17.9997 5.0005 17.9997C4.7365 17.9997 4.4815 17.8957 4.2925 17.7067C4.0835 17.4967 3.9775 17.2047 4.0035 16.9097L4.3825 12.7397C4.4245 12.2827 4.6265 11.8507 4.9525 11.5257L13.9485 2.5297C14.6505 1.8247 15.9235 1.8597 16.6645 2.5987L19.4025 5.3367L19.4035 5.3377C20.1685 6.1037 20.1995 7.3217 19.4715 8.0517L10.4745 17.0487C10.1495 17.3737 9.7185 17.5757 9.2605 17.6177L5.0905 17.9957ZM5 20H19C19.55 20 20 20.45 20 21C20 21.55 19.55 22 19 22H5C4.45 22 4 21.55 4 21C4 20.45 4.45 20 5 20Z" fill="#222B45"/>
<mask id="mask0" mask-type="alpha" maskUnits="userSpaceOnUse" x="3" y="2" width="17" height="20">
<path id="&#240;&#159;&#142;&#168; Icon &#208;&#161;olor_2" fill-rule="evenodd" clip-rule="evenodd" d="M17.9655 6.7287L15.2715 4.0347L13.3235 5.9837L16.0185 8.6787L17.9655 6.7287ZM5.0905 17.9957C5.0605 17.9987 5.0305 17.9997 5.0005 17.9997C4.7365 17.9997 4.4815 17.8957 4.2925 17.7067C4.0835 17.4967 3.9775 17.2047 4.0035 16.9097L4.3825 12.7397C4.4245 12.2827 4.6265 11.8507 4.9525 11.5257L13.9485 2.5297C14.6505 1.8247 15.9235 1.8597 16.6645 2.5987L19.4025 5.3367L19.4035 5.3377C20.1685 6.1037 20.1995 7.3217 19.4715 8.0517L10.4745 17.0487C10.1495 17.3737 9.7185 17.5757 9.2605 17.6177L5.0905 17.9957ZM5 20H19C19.55 20 20 20.45 20 21C20 21.55 19.55 22 19 22H5C4.45 22 4 21.55 4 21C4 20.45 4.45 20 5 20Z" fill="white"/>
</mask>
<g mask="url(#mask0)">
</g>
</g>
</svg>
