<svg width="24" height="24" viewBox="0 0 24 24" fill="none" xmlns="http://www.w3.org/2000/svg">
<g id="27) Icon/eye-off-2">
<path id="&#240;&#159;&#142;&#168; Icon &#208;&#161;olor" fill-rule="evenodd" clip-rule="evenodd" d="M17.8091 13.395C19.5141 11.978 20.6991 9.95301 20.9921 7.62401C21.0611 7.07701 20.6731 6.57701 20.1241 6.50801C19.5841 6.43401 19.0761 6.82701 19.0081 7.37501C18.5691 10.867 15.5561 13.5 12.0001 13.5C8.44413 13.5 5.43113 10.867 4.99213 7.37501C4.92413 6.82701 4.41413 6.43801 3.87513 6.50801C3.32713 6.57701 2.93913 7.07701 3.00813 7.62401C3.30113 9.95301 4.48613 11.978 6.19113 13.395L3.87913 15.707C3.49013 16.096 3.49013 16.732 3.87913 17.121C4.26713 17.51 4.90413 17.51 5.29313 17.121L7.89613 14.518C8.85013 15 9.89713 15.318 11.0001 15.439V19C11.0001 19.55 11.4501 20 12.0001 20C12.5501 20 13.0001 19.55 13.0001 19V15.439C14.1021 15.318 15.1501 15 16.1031 14.518L18.7071 17.121C19.0961 17.51 19.7321 17.51 20.1211 17.121C20.5101 16.732 20.5101 16.096 20.1211 15.707L17.8091 13.395Z" fill="#222B45"/>
<mask id="mask0" mask-type="alpha" maskUnits="userSpaceOnUse" x="3" y="6" width="18" height="14">
<path id="&#240;&#159;&#142;&#168; Icon &#208;&#161;olor_2" fill-rule="evenodd" clip-rule="evenodd" d="M17.8091 13.395C19.5141 11.978 20.6991 9.95301 20.9921 7.62401C21.0611 7.07701 20.6731 6.57701 20.1241 6.50801C19.5841 6.43401 19.0761 6.82701 19.0081 7.37501C18.5691 10.867 15.5561 13.5 12.0001 13.5C8.44413 13.5 5.43113 10.867 4.99213 7.37501C4.92413 6.82701 4.41413 6.43801 3.87513 6.50801C3.32713 6.57701 2.93913 7.07701 3.00813 7.62401C3.30113 9.95301 4.48613 11.978 6.19113 13.395L3.87913 15.707C3.49013 16.096 3.49013 16.732 3.87913 17.121C4.26713 17.51 4.90413 17.51 5.29313 17.121L7.89613 14.518C8.85013 15 9.89713 15.318 11.0001 15.439V19C11.0001 19.55 11.4501 20 12.0001 20C12.5501 20 13.0001 19.55 13.0001 19V15.439C14.1021 15.318 15.1501 15 16.1031 14.518L18.7071 17.121C19.0961 17.51 19.7321 17.51 20.1211 17.121C20.5101 16.732 20.5101 16.096 20.1211 15.707L17.8091 13.395Z" fill="white"/>
</mask>
<g mask="url(#mask0)">
</g>
</g>
</svg>
