<svg width="24" height="24" viewBox="0 0 24 24" fill="none" xmlns="http://www.w3.org/2000/svg">
<g id="27) Icon/fire">
<path id="&#240;&#159;&#142;&#168; Icon &#208;&#161;olor" fill-rule="evenodd" clip-rule="evenodd" d="M7.4951 9.51647C5.4631 11.7155 5.5061 15.2015 7.6241 17.3605C8.6581 18.4175 10.0321 19.0005 11.4961 19.0015H11.5011C12.9681 19.0015 14.3471 18.4185 15.3861 17.3605C17.5421 15.1625 17.5381 11.5875 15.3771 9.39247L12.3911 6.34147C12.0891 8.82347 11.1581 11.0015 9.5001 11.0015C8.9921 11.0015 8.1641 10.7755 7.4951 9.51647ZM11.5011 21.0015H11.4941C9.4881 20.9995 7.6061 20.2045 6.1951 18.7595C3.2811 15.7895 3.2771 10.9565 6.1861 7.99147L7.1691 6.99747C7.4231 6.74347 7.7921 6.64547 8.1411 6.73647C8.4881 6.83047 8.7581 7.10347 8.8481 7.45147C9.0781 8.34047 9.3521 8.77747 9.5031 8.94347C9.8581 8.56947 10.5001 7.05847 10.5001 4.50147C10.5001 4.35447 10.5001 4.21547 10.4921 4.07647C10.4731 3.78147 10.5861 3.49247 10.8001 3.28847C11.1971 2.91147 11.8331 2.91147 12.2141 3.30347L16.8041 7.99247C19.7241 10.9565 19.7291 15.7895 16.8141 18.7605C15.3951 20.2065 13.5091 21.0015 11.5011 21.0015Z" fill="#222B45"/>
<mask id="mask0" mask-type="alpha" maskUnits="userSpaceOnUse" x="4" y="3" width="15" height="19">
<path id="&#240;&#159;&#142;&#168; Icon &#208;&#161;olor_2" fill-rule="evenodd" clip-rule="evenodd" d="M7.4951 9.51647C5.4631 11.7155 5.5061 15.2015 7.6241 17.3605C8.6581 18.4175 10.0321 19.0005 11.4961 19.0015H11.5011C12.9681 19.0015 14.3471 18.4185 15.3861 17.3605C17.5421 15.1625 17.5381 11.5875 15.3771 9.39247L12.3911 6.34147C12.0891 8.82347 11.1581 11.0015 9.5001 11.0015C8.9921 11.0015 8.1641 10.7755 7.4951 9.51647ZM11.5011 21.0015H11.4941C9.4881 20.9995 7.6061 20.2045 6.1951 18.7595C3.2811 15.7895 3.2771 10.9565 6.1861 7.99147L7.1691 6.99747C7.4231 6.74347 7.7921 6.64547 8.1411 6.73647C8.4881 6.83047 8.7581 7.10347 8.8481 7.45147C9.0781 8.34047 9.3521 8.77747 9.5031 8.94347C9.8581 8.56947 10.5001 7.05847 10.5001 4.50147C10.5001 4.35447 10.5001 4.21547 10.4921 4.07647C10.4731 3.78147 10.5861 3.49247 10.8001 3.28847C11.1971 2.91147 11.8331 2.91147 12.2141 3.30347L16.8041 7.99247C19.7241 10.9565 19.7291 15.7895 16.8141 18.7605C15.3951 20.2065 13.5091 21.0015 11.5011 21.0015Z" fill="white"/>
</mask>
<g mask="url(#mask0)">
</g>
</g>
</svg>
