<svg width="24" height="24" viewBox="0 0 24 24" fill="none" xmlns="http://www.w3.org/2000/svg">
<g id="27) Icon/flag">
<path id="&#240;&#159;&#142;&#168; Icon &#208;&#161;olor" fill-rule="evenodd" clip-rule="evenodd" d="M18 14.5859C17.604 14.7629 16.825 14.9999 15.5 14.9999C14.376 14.9999 13.399 14.6169 12.365 14.2119C11.203 13.7569 10.001 13.2859 8.5 13.2859C7.443 13.2859 6.624 13.4129 6 13.5839V11.9999V5.41588C6.396 5.23888 7.177 4.99988 8.5 4.99988C9.624 4.99988 10.601 5.38288 11.635 5.78788C12.797 6.24288 13.999 6.71388 15.5 6.71388C16.438 6.71388 17.276 6.61288 18 6.41388V14.5859ZM19.268 4.67988C18.806 4.34588 18.208 4.25088 17.669 4.42688C17.093 4.61388 16.343 4.71388 15.5 4.71388C14.376 4.71388 13.399 4.33088 12.365 3.92588C11.203 3.47088 10.001 2.99988 8.5 2.99988C5.613 2.99988 4.495 3.95188 4.3 4.14388C4.108 4.33088 4 4.58888 4 4.85688V11.9999V15.1429V19.9999C4 20.5529 4.447 20.9999 5 20.9999C5.553 20.9999 6 20.5529 6 19.9999V15.7019C6.395 15.5259 7.173 15.2859 8.5 15.2859C9.624 15.2859 10.601 15.6689 11.635 16.0739C12.797 16.5289 13.999 16.9999 15.5 16.9999C17.309 16.9999 18.423 16.6219 19.041 16.3049C19.633 15.9979 20 15.4019 20 14.7489V6.10588C20 5.54588 19.727 5.01288 19.268 4.67988Z" fill="#222B45"/>
<mask id="mask0" mask-type="alpha" maskUnits="userSpaceOnUse" x="4" y="2" width="16" height="19">
<path id="&#240;&#159;&#142;&#168; Icon &#208;&#161;olor_2" fill-rule="evenodd" clip-rule="evenodd" d="M18 14.5859C17.604 14.7629 16.825 14.9999 15.5 14.9999C14.376 14.9999 13.399 14.6169 12.365 14.2119C11.203 13.7569 10.001 13.2859 8.5 13.2859C7.443 13.2859 6.624 13.4129 6 13.5839V11.9999V5.41588C6.396 5.23888 7.177 4.99988 8.5 4.99988C9.624 4.99988 10.601 5.38288 11.635 5.78788C12.797 6.24288 13.999 6.71388 15.5 6.71388C16.438 6.71388 17.276 6.61288 18 6.41388V14.5859ZM19.268 4.67988C18.806 4.34588 18.208 4.25088 17.669 4.42688C17.093 4.61388 16.343 4.71388 15.5 4.71388C14.376 4.71388 13.399 4.33088 12.365 3.92588C11.203 3.47088 10.001 2.99988 8.5 2.99988C5.613 2.99988 4.495 3.95188 4.3 4.14388C4.108 4.33088 4 4.58888 4 4.85688V11.9999V15.1429V19.9999C4 20.5529 4.447 20.9999 5 20.9999C5.553 20.9999 6 20.5529 6 19.9999V15.7019C6.395 15.5259 7.173 15.2859 8.5 15.2859C9.624 15.2859 10.601 15.6689 11.635 16.0739C12.797 16.5289 13.999 16.9999 15.5 16.9999C17.309 16.9999 18.423 16.6219 19.041 16.3049C19.633 15.9979 20 15.4019 20 14.7489V6.10588C20 5.54588 19.727 5.01288 19.268 4.67988Z" fill="white"/>
</mask>
<g mask="url(#mask0)">
</g>
</g>
</svg>
