<svg width="24" height="24" viewBox="0 0 24 24" fill="none" xmlns="http://www.w3.org/2000/svg">
<g id="27) Icon/flip-2">
<path id="&#240;&#159;&#142;&#168; Icon &#208;&#161;olor" fill-rule="evenodd" clip-rule="evenodd" d="M7.20701 9.70699C6.81601 10.098 6.18401 10.098 5.79301 9.70699L2.79301 6.70699C2.40201 6.31599 2.40201 5.68399 2.79301 5.293L5.79301 2.293C5.98801 2.09799 6.24401 1.99999 6.50001 1.99999C6.75601 1.99999 7.01201 2.09799 7.20701 2.293C7.59801 2.68399 7.59801 3.31599 7.20701 3.70699L5.91401 4.99999H17.91C19.89 4.99999 21.5 6.58299 21.5 8.52899V11C21.5 11.553 21.053 12 20.5 12C19.947 12 19.5 11.553 19.5 11V8.52899C19.5 7.68599 18.787 6.99999 17.91 6.99999L5.91401 6.99999L7.20701 8.29299C7.59801 8.68399 7.59801 9.31599 7.20701 9.70699ZM18.0858 19H6.08981C4.11081 19 2.49981 17.417 2.49981 15.471V13C2.49981 12.447 2.94681 12 3.49981 12C4.05281 12 4.49981 12.447 4.49981 13V15.471C4.49981 16.313 5.21281 17 6.08981 17H18.0858L16.7928 15.707C16.4028 15.316 16.4028 14.684 16.7928 14.293C16.9878 14.098 17.2438 14 17.4998 14C17.7558 14 18.0118 14.098 18.2068 14.293L21.2068 17.293C21.5978 17.684 21.5978 18.316 21.2068 18.707L18.2068 21.707C17.8168 22.098 17.1838 22.098 16.7928 21.707C16.4028 21.316 16.4028 20.684 16.7928 20.293L18.0858 19Z" fill="#222B45"/>
<mask id="mask0" mask-type="alpha" maskUnits="userSpaceOnUse" x="2" y="2" width="20" height="21">
<path id="&#240;&#159;&#142;&#168; Icon &#208;&#161;olor_2" fill-rule="evenodd" clip-rule="evenodd" d="M7.20701 9.70699C6.81601 10.098 6.18401 10.098 5.79301 9.70699L2.79301 6.70699C2.40201 6.31599 2.40201 5.68399 2.79301 5.293L5.79301 2.293C5.98801 2.09799 6.24401 1.99999 6.50001 1.99999C6.75601 1.99999 7.01201 2.09799 7.20701 2.293C7.59801 2.68399 7.59801 3.31599 7.20701 3.70699L5.91401 4.99999H17.91C19.89 4.99999 21.5 6.58299 21.5 8.52899V11C21.5 11.553 21.053 12 20.5 12C19.947 12 19.5 11.553 19.5 11V8.52899C19.5 7.68599 18.787 6.99999 17.91 6.99999L5.91401 6.99999L7.20701 8.29299C7.59801 8.68399 7.59801 9.31599 7.20701 9.70699ZM18.0858 19H6.08981C4.11081 19 2.49981 17.417 2.49981 15.471V13C2.49981 12.447 2.94681 12 3.49981 12C4.05281 12 4.49981 12.447 4.49981 13V15.471C4.49981 16.313 5.21281 17 6.08981 17H18.0858L16.7928 15.707C16.4028 15.316 16.4028 14.684 16.7928 14.293C16.9878 14.098 17.2438 14 17.4998 14C17.7558 14 18.0118 14.098 18.2068 14.293L21.2068 17.293C21.5978 17.684 21.5978 18.316 21.2068 18.707L18.2068 21.707C17.8168 22.098 17.1838 22.098 16.7928 21.707C16.4028 21.316 16.4028 20.684 16.7928 20.293L18.0858 19Z" fill="white"/>
</mask>
<g mask="url(#mask0)">
</g>
</g>
</svg>
