<svg width="24" height="24" viewBox="0 0 24 24" fill="none" xmlns="http://www.w3.org/2000/svg">
<g id="27) Icon/flip">
<path id="&#240;&#159;&#142;&#168; Icon &#208;&#161;olor" fill-rule="evenodd" clip-rule="evenodd" d="M14.293 7.20701C13.902 6.81601 13.902 6.18401 14.293 5.79301L17.293 2.79301C17.684 2.40201 18.316 2.40201 18.707 2.79301L21.707 5.79301C21.902 5.98801 22 6.24401 22 6.50001C22 6.75601 21.902 7.01201 21.707 7.20701C21.316 7.59801 20.684 7.59801 20.293 7.20701L19 5.91401V17.91C19 19.89 17.417 21.5 15.471 21.5H13C12.447 21.5 12 21.053 12 20.5C12 19.947 12.447 19.5 13 19.5H15.471C16.314 19.5 17 18.787 17 17.91V5.91401L15.707 7.20701C15.316 7.59801 14.684 7.59801 14.293 7.20701ZM5 18.0858V6.08981C5 4.11081 6.583 2.49981 8.529 2.49981H11C11.553 2.49981 12 2.94681 12 3.49981C12 4.05281 11.553 4.49981 11 4.49981H8.529C7.687 4.49981 7 5.21281 7 6.08981V18.0858L8.293 16.7928C8.684 16.4028 9.316 16.4028 9.707 16.7928C9.902 16.9878 10 17.2438 10 17.4998C10 17.7558 9.902 18.0118 9.707 18.2068L6.707 21.2068C6.316 21.5978 5.684 21.5978 5.293 21.2068L2.293 18.2068C1.902 17.8168 1.902 17.1838 2.293 16.7928C2.684 16.4028 3.316 16.4028 3.707 16.7928L5 18.0858Z" fill="#222B45"/>
<mask id="mask0" mask-type="alpha" maskUnits="userSpaceOnUse" x="1" y="2" width="21" height="20">
<path id="&#240;&#159;&#142;&#168; Icon &#208;&#161;olor_2" fill-rule="evenodd" clip-rule="evenodd" d="M14.293 7.20701C13.902 6.81601 13.902 6.18401 14.293 5.79301L17.293 2.79301C17.684 2.40201 18.316 2.40201 18.707 2.79301L21.707 5.79301C21.902 5.98801 22 6.24401 22 6.50001C22 6.75601 21.902 7.01201 21.707 7.20701C21.316 7.59801 20.684 7.59801 20.293 7.20701L19 5.91401V17.91C19 19.89 17.417 21.5 15.471 21.5H13C12.447 21.5 12 21.053 12 20.5C12 19.947 12.447 19.5 13 19.5H15.471C16.314 19.5 17 18.787 17 17.91V5.91401L15.707 7.20701C15.316 7.59801 14.684 7.59801 14.293 7.20701ZM5 18.0858V6.08981C5 4.11081 6.583 2.49981 8.529 2.49981H11C11.553 2.49981 12 2.94681 12 3.49981C12 4.05281 11.553 4.49981 11 4.49981H8.529C7.687 4.49981 7 5.21281 7 6.08981V18.0858L8.293 16.7928C8.684 16.4028 9.316 16.4028 9.707 16.7928C9.902 16.9878 10 17.2438 10 17.4998C10 17.7558 9.902 18.0118 9.707 18.2068L6.707 21.2068C6.316 21.5978 5.684 21.5978 5.293 21.2068L2.293 18.2068C1.902 17.8168 1.902 17.1838 2.293 16.7928C2.684 16.4028 3.316 16.4028 3.707 16.7928L5 18.0858Z" fill="white"/>
</mask>
<g mask="url(#mask0)">
</g>
</g>
</svg>
