<svg width="24" height="24" viewBox="0 0 24 24" fill="none" xmlns="http://www.w3.org/2000/svg">
<g id="27) Icon/globe-2">
<path id="&#240;&#159;&#142;&#168; Icon &#208;&#161;olor" fill-rule="evenodd" clip-rule="evenodd" d="M16.8887 18.3184C16.7167 17.8854 16.4727 17.5074 16.2587 17.1844C16.1507 17.0224 16.0397 16.8574 15.9427 16.6874C15.5537 16.0114 15.6877 15.7374 16.3187 14.6804L16.4207 14.5074C16.9317 13.6464 16.9597 12.8204 16.9857 12.0924C16.9977 11.7344 17.0097 11.3974 17.0787 11.0804C17.2397 10.3484 18.7867 10.1534 19.7457 10.0384C19.9067 10.6674 19.9997 11.3224 19.9997 12.0004C19.9997 14.5694 18.7777 16.8534 16.8887 18.3184ZM4.96169 15.7994C5.59769 15.9614 6.28669 16.0734 6.98769 16.0734C8.06769 16.0734 9.17069 15.8094 10.1247 15.0624C11.8407 13.7204 11.8407 12.0044 11.8407 10.6244C11.8407 9.73243 11.8407 8.96343 12.2127 8.28043C12.4127 7.91443 12.8387 7.66043 13.3317 7.36543C13.6337 7.18443 13.9467 6.99843 14.2467 6.76243C14.8897 6.25943 15.3677 5.61243 15.6637 4.89643C17.0637 5.62143 18.2237 6.74443 18.9897 8.11943C17.5617 8.31743 15.5347 8.78543 15.1257 10.6524C15.0177 11.1464 15.0007 11.6114 14.9877 12.0224C14.9667 12.6054 14.9507 13.0664 14.7007 13.4884L14.6007 13.6564C13.9537 14.7394 13.2217 15.9674 14.2087 17.6844C14.3277 17.8924 14.4607 18.0924 14.5917 18.2914C14.9357 18.8074 15.1047 19.0924 15.1057 19.3724C14.1507 19.7764 13.1007 20.0004 11.9997 20.0004C8.9627 20.0004 6.31669 18.2984 4.96169 15.7994ZM11.9997 4.00043C12.6157 4.00043 13.2107 4.07643 13.7867 4.20843C13.6177 4.58043 13.3567 4.91943 13.0127 5.18843C12.7947 5.36043 12.5497 5.50343 12.3067 5.64843C11.6557 6.03643 10.9187 6.47643 10.4567 7.32243C9.84069 8.45243 9.84069 9.60643 9.84069 10.6244C9.84069 11.9794 9.79669 12.7804 8.89269 13.4874C7.52369 14.5604 5.42869 13.9614 4.13269 13.4164C4.05069 12.9554 3.99969 12.4834 3.99969 12.0004C3.99969 7.58943 7.5887 4.00043 11.9997 4.00043ZM11.9997 2.00043C6.48569 2.00043 1.99969 6.48643 1.99969 12.0004C1.99969 17.5134 6.48569 22.0004 11.9997 22.0004C17.5137 22.0004 21.9997 17.5134 21.9997 12.0004C21.9997 6.48643 17.5137 2.00043 11.9997 2.00043Z" fill="#222B45"/>
<mask id="mask0" mask-type="alpha" maskUnits="userSpaceOnUse" x="1" y="2" width="21" height="21">
<path id="&#240;&#159;&#142;&#168; Icon &#208;&#161;olor_2" fill-rule="evenodd" clip-rule="evenodd" d="M16.8887 18.3184C16.7167 17.8854 16.4727 17.5074 16.2587 17.1844C16.1507 17.0224 16.0397 16.8574 15.9427 16.6874C15.5537 16.0114 15.6877 15.7374 16.3187 14.6804L16.4207 14.5074C16.9317 13.6464 16.9597 12.8204 16.9857 12.0924C16.9977 11.7344 17.0097 11.3974 17.0787 11.0804C17.2397 10.3484 18.7867 10.1534 19.7457 10.0384C19.9067 10.6674 19.9997 11.3224 19.9997 12.0004C19.9997 14.5694 18.7777 16.8534 16.8887 18.3184ZM4.96169 15.7994C5.59769 15.9614 6.28669 16.0734 6.98769 16.0734C8.06769 16.0734 9.17069 15.8094 10.1247 15.0624C11.8407 13.7204 11.8407 12.0044 11.8407 10.6244C11.8407 9.73243 11.8407 8.96343 12.2127 8.28043C12.4127 7.91443 12.8387 7.66043 13.3317 7.36543C13.6337 7.18443 13.9467 6.99843 14.2467 6.76243C14.8897 6.25943 15.3677 5.61243 15.6637 4.89643C17.0637 5.62143 18.2237 6.74443 18.9897 8.11943C17.5617 8.31743 15.5347 8.78543 15.1257 10.6524C15.0177 11.1464 15.0007 11.6114 14.9877 12.0224C14.9667 12.6054 14.9507 13.0664 14.7007 13.4884L14.6007 13.6564C13.9537 14.7394 13.2217 15.9674 14.2087 17.6844C14.3277 17.8924 14.4607 18.0924 14.5917 18.2914C14.9357 18.8074 15.1047 19.0924 15.1057 19.3724C14.1507 19.7764 13.1007 20.0004 11.9997 20.0004C8.9627 20.0004 6.31669 18.2984 4.96169 15.7994ZM11.9997 4.00043C12.6157 4.00043 13.2107 4.07643 13.7867 4.20843C13.6177 4.58043 13.3567 4.91943 13.0127 5.18843C12.7947 5.36043 12.5497 5.50343 12.3067 5.64843C11.6557 6.03643 10.9187 6.47643 10.4567 7.32243C9.84069 8.45243 9.84069 9.60643 9.84069 10.6244C9.84069 11.9794 9.79669 12.7804 8.89269 13.4874C7.52369 14.5604 5.42869 13.9614 4.13269 13.4164C4.05069 12.9554 3.99969 12.4834 3.99969 12.0004C3.99969 7.58943 7.5887 4.00043 11.9997 4.00043ZM11.9997 2.00043C6.48569 2.00043 1.99969 6.48643 1.99969 12.0004C1.99969 17.5134 6.48569 22.0004 11.9997 22.0004C17.5137 22.0004 21.9997 17.5134 21.9997 12.0004C21.9997 6.48643 17.5137 2.00043 11.9997 2.00043Z" fill="white"/>
</mask>
<g mask="url(#mask0)">
</g>
</g>
</svg>
