<svg width="24" height="24" viewBox="0 0 24 24" fill="none" xmlns="http://www.w3.org/2000/svg">
<g id="27) Icon/google-fill">
<path id="&#240;&#159;&#142;&#168; Icon &#208;&#161;olor" fill-rule="evenodd" clip-rule="evenodd" d="M17.4952 13.9805C16.8292 16.1225 15.1692 17.6055 12.9602 17.9325C9.58915 18.4315 6.27915 15.8755 6.01715 12.4755C5.74515 8.94749 8.52815 6.00049 12.0012 6.00049C12.8042 6.00049 13.5702 6.15849 14.2702 6.44449C14.5132 6.54349 14.7882 6.45849 14.9122 6.22849L16.3472 3.58149C16.4832 3.32849 16.3852 3.00249 16.1232 2.88449C14.8662 2.31649 13.4722 2.00049 12.0042 2.00049C6.38215 2.00049 1.84315 6.63649 2.00415 12.2935C2.15115 17.4545 6.41115 21.7725 11.5682 21.9915C17.1142 22.2255 21.7142 17.9455 21.9932 12.5225C22.0042 12.3245 22.0002 11.1715 21.9962 10.4955C21.9952 10.2195 21.7712 10.0005 21.4962 10.0005H12.4972C12.2212 10.0005 11.9972 10.2235 11.9972 10.5005V13.4805C11.9972 13.7555 12.2212 13.9805 12.4972 13.9805H17.4952Z" fill="#222B45"/>
<mask id="mask0" mask-type="alpha" maskUnits="userSpaceOnUse" x="2" y="2" width="21" height="21">
<path id="&#240;&#159;&#142;&#168; Icon &#208;&#161;olor_2" fill-rule="evenodd" clip-rule="evenodd" d="M17.4952 13.9805C16.8292 16.1225 15.1692 17.6055 12.9602 17.9325C9.58915 18.4315 6.27915 15.8755 6.01715 12.4755C5.74515 8.94749 8.52815 6.00049 12.0012 6.00049C12.8042 6.00049 13.5702 6.15849 14.2702 6.44449C14.5132 6.54349 14.7882 6.45849 14.9122 6.22849L16.3472 3.58149C16.4832 3.32849 16.3852 3.00249 16.1232 2.88449C14.8662 2.31649 13.4722 2.00049 12.0042 2.00049C6.38215 2.00049 1.84315 6.63649 2.00415 12.2935C2.15115 17.4545 6.41115 21.7725 11.5682 21.9915C17.1142 22.2255 21.7142 17.9455 21.9932 12.5225C22.0042 12.3245 22.0002 11.1715 21.9962 10.4955C21.9952 10.2195 21.7712 10.0005 21.4962 10.0005H12.4972C12.2212 10.0005 11.9972 10.2235 11.9972 10.5005V13.4805C11.9972 13.7555 12.2212 13.9805 12.4972 13.9805H17.4952Z" fill="white"/>
</mask>
<g mask="url(#mask0)">
</g>
</g>
</svg>
