<svg width="44" height="44" viewBox="0 0 44 44" fill="none" xmlns="http://www.w3.org/2000/svg">
<circle cx="22" cy="22" r="22" fill="#FCE8EF"/>
<path d="M20.7273 12.0519C16 12.0519 12.1299 15.8961 12.1299 20.6493C12.1299 25.3766 15.974 29.2467 20.7273 29.2467C22.2598 29.2467 23.7922 28.8312 25.1429 28.026L25.4546 27.8441L29.4026 31.7403C29.6624 32 30 32.1558 30.3896 32.1558C30.7533 32.1558 31.1169 32 31.3766 31.7403C31.6364 31.4805 31.7922 31.1428 31.7922 30.7532C31.7922 30.3636 31.6364 30.0519 31.3766 29.7662L27.5065 25.948L27.8442 25.4545C28.8052 24.026 29.3247 22.3636 29.3247 20.6493C29.3247 15.8961 25.4805 12.0519 20.7273 12.0519Z" fill="#E91E63"/>
<path d="M20.7273 16.5C19.7403 16.5 18.9351 17.3052 18.9351 18.2922C18.9351 19.2792 19.7403 20.0844 20.7273 20.0844C21.7143 20.0844 22.5195 19.2792 22.5195 18.2922C22.5195 17.3052 21.7403 16.5 20.7273 16.5Z" fill="#FCE8EF"/>
<path d="M22.3896 21.2208H19.0649C18.2078 21.2208 17.5065 21.9221 17.5065 22.7792V24.2338H23.974V22.7792C23.974 21.9221 23.2727 21.2208 22.3896 21.2208Z" fill="#FCE8EF"/>
</svg>
