<svg width="44" height="44" viewBox="0 0 44 44" fill="none" xmlns="http://www.w3.org/2000/svg">
<circle cx="22" cy="22" r="22" fill="#E5F8FA"/>
<path fill-rule="evenodd" clip-rule="evenodd" d="M32.9178 21.565L29.6278 15.0777C29.512 14.846 29.3035 14.707 29.0486 14.6839L24.6002 14.707C24.3917 14.0815 23.9514 13.5486 23.3491 13.2242V12.367C23.3491 11.6256 22.7467 11 21.9821 11C21.2175 11 20.6151 11.6024 20.6151 12.367V13.2242C20.0359 13.5486 19.5957 14.0815 19.3872 14.707L14.9387 14.6839C14.707 14.707 14.4753 14.846 14.3595 15.0777L11.0927 21.565C11 21.7504 10.9768 21.9821 11.0232 22.1906C11.5792 24.2063 13.1315 25.5038 14.9851 25.5038C16.8386 25.5038 18.3909 24.2063 18.947 22.1906C18.9933 21.9821 18.9701 21.7736 18.8774 21.565L16.3289 16.5142L19.3872 16.5374C19.6189 17.1629 20.0359 17.6727 20.6151 17.997V26.6854C20.6151 28.3072 19.3872 29.6742 17.7653 29.8364L15.2863 30.1144C15.0082 30.1376 14.7997 30.3924 14.7997 30.6704V31.9216C14.7997 32.2228 15.0546 32.4776 15.3558 32.4776H28.7011C29.0023 32.4776 29.2571 32.2228 29.2571 31.9216V30.6704C29.2571 30.3924 29.0486 30.1607 28.7706 30.1144L26.1988 29.8364C24.577 29.651 23.3491 28.3072 23.3491 26.6854V17.997C23.9283 17.6727 24.3453 17.1629 24.577 16.5374L27.6353 16.5142L25.0867 21.565C24.9941 21.7504 24.9709 21.9821 25.0172 22.1906C25.5733 24.2063 27.1256 25.5038 28.9791 25.5038C30.8326 25.5038 32.3849 24.2063 32.941 22.1906C33.0337 21.9821 33.0105 21.7736 32.9178 21.565ZM17.1166 20.6846H12.8767L15.0082 16.491L17.1166 20.6846ZM29.0254 16.491L26.8939 20.6846H31.157L29.0254 16.491Z" fill="#00BCD4"/>
</svg>
