<svg width="44" height="44" viewBox="0 0 44 44" fill="none" xmlns="http://www.w3.org/2000/svg">
<circle cx="22" cy="22" r="22" fill="#EFEBF7"/>
<path fill-rule="evenodd" clip-rule="evenodd" d="M32.9824 23.92H33.0431C33.4664 23.92 33.8094 24.2629 33.8087 24.6863V26.6783C33.8087 27.1017 33.4654 27.445 33.0425 27.445H31.8429C31.4392 28.6044 30.3365 29.4371 29.0393 29.4371C27.7415 29.4371 26.6395 28.6044 26.2355 27.445H22.2005H19.4939H18.4089C18.0051 28.6044 16.9028 29.4371 15.605 29.4371C14.3078 29.4371 13.2055 28.6044 12.8014 27.445H11.4485C11.0252 27.445 10.6819 27.1013 10.6819 26.6783V15.0319C10.6819 14.6082 11.0255 14.2653 11.4485 14.2653H22.2008C22.6245 14.2653 22.9674 14.6086 22.9674 15.0319V16.3729H26.6923C26.6923 16.3729 27.7561 16.2574 28.6369 17.7514C29.1592 18.6373 29.7392 19.5423 30.1878 20.2263L31.2861 20.2665C31.2861 20.2665 32.9233 20.2751 32.9641 21.9438C32.98 22.6045 32.984 23.3091 32.9824 23.92ZM14.169 26.4675C14.169 27.2597 14.8131 27.9042 15.6053 27.9042C16.3975 27.9042 17.0423 27.2597 17.0423 26.4675C17.0423 25.6753 16.3978 25.0309 15.6053 25.0309C14.8131 25.0309 14.169 25.6753 14.169 26.4675ZM24.2663 20.3186C23.909 20.3186 23.6189 19.9756 23.6189 19.552V18.2113C23.6189 17.788 23.909 17.4447 24.2663 17.4447H26.4881C27.1522 17.4447 27.5672 18.276 27.5672 18.276C27.5672 18.276 28.0848 19.1356 28.3159 19.552C28.5536 19.9607 28.5211 20.3186 27.6681 20.3186H24.2663ZM27.603 26.4675C27.603 27.2597 28.2475 27.9042 29.04 27.9042C29.8319 27.9042 30.4763 27.2597 30.4763 26.4675C30.4763 25.6753 29.8322 25.0309 29.04 25.0309C28.2475 25.0309 27.603 25.6753 27.603 26.4675Z" fill="#673AB7"/>
</svg>
