<svg width="44" height="44" viewBox="0 0 44 44" fill="none" xmlns="http://www.w3.org/2000/svg">
<circle cx="22" cy="22" r="22" fill="#EBEDF7"/>
<path d="M18.9506 24.7171H18.1768C17.2925 24.7171 15.8457 24.7171 14.9612 24.7171H14.2568C13.3726 24.7171 12.6492 25.4406 12.6492 26.3248V30.7019C12.6492 31.5861 13.3726 32.3095 14.2568 32.3095H18.9506C19.8349 32.3095 20.5583 31.5861 20.5583 30.7019V26.3248C20.5583 25.4406 19.8349 24.7171 18.9506 24.7171Z" fill="#3F51B5"/>
<path d="M29.6961 24.7171H25.0023C24.1181 24.7171 23.3947 25.4406 23.3947 26.3248V30.7019C23.3947 31.5861 24.1181 32.3095 25.0023 32.3095H29.6961C30.5803 32.3095 31.3038 31.5861 31.3038 30.7019V26.3248C31.304 25.4406 30.5803 24.7171 29.6961 24.7171Z" fill="#3F51B5"/>
<path d="M17.1009 23.2227C17.1009 22.7967 17.5123 22.4369 17.9995 22.4369H25.7416C26.2291 22.4369 26.6406 22.7967 26.6406 23.2227V24.7174H28.0585V23.2227C28.0585 22.0075 27.0191 21.019 25.7416 21.019H22.5797V18.8351H24.2176C25.1018 18.8351 25.8253 18.1117 25.8253 17.2275V12.8504C25.8253 11.9662 25.1018 11.2428 24.2176 11.2428H19.5238C18.6396 11.2428 17.9162 11.9662 17.9162 12.8504V17.2275C17.9162 18.1117 18.6396 18.8351 19.5238 18.8351H21.1617V21.019H17.9998C16.7226 21.019 15.6832 22.0072 15.6832 23.2227V24.7174H17.1011V23.2227H17.1009Z" fill="#3F51B5"/>
</svg>
