<svg width="44" height="44" viewBox="0 0 44 44" fill="none" xmlns="http://www.w3.org/2000/svg">
<circle cx="22" cy="22" r="22" fill="#FFF4E5"/>
<path fill-rule="evenodd" clip-rule="evenodd" d="M18.1145 18.1094C19.8771 18.1378 22.6273 18.182 28.48 14.128C28.48 14.128 29.7887 13.5745 29.7887 15.436V18.8202V20.9325V21.6185V22.4425V27.4337C29.7887 29.2945 28.48 28.7422 28.48 28.7422C26.5465 27.4025 24.9777 26.5145 23.5737 25.924V30.0675C23.5737 30.3247 23.365 30.5332 23.108 30.5332H20.9245C20.667 30.5332 20.4587 30.3247 20.4587 30.0675V24.958C19.3437 24.7543 18.6064 24.7611 18.0492 24.7663C17.8636 24.768 17.698 24.7695 17.545 24.763H17.1855C16.7902 24.763 16.4697 24.443 16.4697 24.0475V18.8222C16.4697 18.427 16.7902 18.1065 17.1855 18.1065H17.545C17.724 18.1032 17.9128 18.1062 18.1145 18.1094ZM14.489 18.527H14.4288C14.435 18.527 14.4412 18.5271 14.4475 18.5273C12.8457 18.5481 11.5 19.7714 11.5 21.3775C11.5 22.9845 12.8459 24.289 14.4479 24.311C14.4415 24.3112 14.4351 24.3112 14.4288 24.3112C14.4288 24.3112 14.3628 24.3285 14.489 24.3112C14.4753 24.3112 14.4616 24.3112 14.4479 24.311C14.7905 24.3008 15.065 24.0198 15.065 23.6745V19.1637C15.065 18.8183 14.7903 18.5372 14.4475 18.5273C14.4613 18.5271 14.4751 18.527 14.489 18.527Z" fill="#FF9800"/>
</svg>
