<svg width="24" height="24" viewBox="0 0 24 24" fill="none" xmlns="http://www.w3.org/2000/svg">
<g id="27) Icon/pie-chart -fill">
<path id="&#240;&#159;&#142;&#168; Icon &#208;&#161;olor" fill-rule="evenodd" clip-rule="evenodd" d="M12.9344 11.9776H21.0834C21.6254 11.9776 22.0494 12.4496 21.9954 12.9886C21.4514 18.4146 16.5794 22.5666 10.8814 21.9366C6.29645 21.4306 2.56945 17.7036 2.06245 13.1186C1.43445 7.42059 5.58445 2.54759 11.0114 2.00459C11.5514 1.95059 12.0224 2.37359 12.0224 2.91559V11.0666C12.0224 11.5696 12.4304 11.9776 12.9344 11.9776ZM21.167 10.3331H14.4999C14.0399 10.3331 13.6669 9.96109 13.6669 9.50009V2.83309C13.6669 2.37309 14.0399 2.00009 14.4999 2.00009C18.6349 2.00009 22 5.36409 22 9.50009C22 9.96109 21.6269 10.3331 21.167 10.3331Z" fill="#222B45"/>
<mask id="mask0" mask-type="alpha" maskUnits="userSpaceOnUse" x="1" y="2" width="21" height="20">
<path id="&#240;&#159;&#142;&#168; Icon &#208;&#161;olor_2" fill-rule="evenodd" clip-rule="evenodd" d="M12.9344 11.9776H21.0834C21.6254 11.9776 22.0494 12.4496 21.9954 12.9886C21.4514 18.4146 16.5794 22.5666 10.8814 21.9366C6.29645 21.4306 2.56945 17.7036 2.06245 13.1186C1.43445 7.42059 5.58445 2.54759 11.0114 2.00459C11.5514 1.95059 12.0224 2.37359 12.0224 2.91559V11.0666C12.0224 11.5696 12.4304 11.9776 12.9344 11.9776ZM21.167 10.3331H14.4999C14.0399 10.3331 13.6669 9.96109 13.6669 9.50009V2.83309C13.6669 2.37309 14.0399 2.00009 14.4999 2.00009C18.6349 2.00009 22 5.36409 22 9.50009C22 9.96109 21.6269 10.3331 21.167 10.3331Z" fill="white"/>
</mask>
<g mask="url(#mask0)">
</g>
</g>
</svg>
