<svg width="24" height="24" viewBox="0 0 24 24" fill="none" xmlns="http://www.w3.org/2000/svg">
<g id="27) Icon/power">
<path id="&#240;&#159;&#142;&#168; Icon &#208;&#161;olor" fill-rule="evenodd" clip-rule="evenodd" d="M13 12C13 12.553 12.552 13 12 13C11.448 13 11 12.553 11 12V2C11 1.447 11.448 1 12 1C12.552 1 13 1.447 13 2V12ZM15.2389 3.5413C15.4919 3.0503 16.0959 2.8593 16.5859 3.1113C19.9249 4.8383 21.9999 8.2433 21.9999 12.0003C21.9999 17.5133 17.5139 22.0003 11.9999 22.0003C6.48591 22.0003 1.99991 17.5133 1.99991 12.0003C1.99991 8.2433 4.07491 4.8383 7.41491 3.1113C7.90391 2.8583 8.50791 3.0493 8.76191 3.5413C9.01591 4.0313 8.82291 4.6343 8.33291 4.8883C5.65991 6.2693 3.99991 8.9943 3.99991 12.0003C3.99991 16.4113 7.58891 20.0003 11.9999 20.0003C16.4109 20.0003 19.9999 16.4113 19.9999 12.0003C19.9999 8.9943 18.3399 6.2693 15.6679 4.8883C15.1769 4.6343 14.9849 4.0313 15.2389 3.5413Z" fill="#222B45"/>
<mask id="mask0" mask-type="alpha" maskUnits="userSpaceOnUse" x="2" y="1" width="20" height="22">
<path id="&#240;&#159;&#142;&#168; Icon &#208;&#161;olor_2" fill-rule="evenodd" clip-rule="evenodd" d="M13 12C13 12.553 12.552 13 12 13C11.448 13 11 12.553 11 12V2C11 1.447 11.448 1 12 1C12.552 1 13 1.447 13 2V12ZM15.2389 3.5413C15.4919 3.0503 16.0959 2.8593 16.5859 3.1113C19.9249 4.8383 21.9999 8.2433 21.9999 12.0003C21.9999 17.5133 17.5139 22.0003 11.9999 22.0003C6.48591 22.0003 1.99991 17.5133 1.99991 12.0003C1.99991 8.2433 4.07491 4.8383 7.41491 3.1113C7.90391 2.8583 8.50791 3.0493 8.76191 3.5413C9.01591 4.0313 8.82291 4.6343 8.33291 4.8883C5.65991 6.2693 3.99991 8.9943 3.99991 12.0003C3.99991 16.4113 7.58891 20.0003 11.9999 20.0003C16.4109 20.0003 19.9999 16.4113 19.9999 12.0003C19.9999 8.9943 18.3399 6.2693 15.6679 4.8883C15.1769 4.6343 14.9849 4.0313 15.2389 3.5413Z" fill="white"/>
</mask>
<g mask="url(#mask0)">
</g>
</g>
</svg>
