<svg width="24" height="24" viewBox="0 0 24 24" fill="none" xmlns="http://www.w3.org/2000/svg">
<g id="27) Icon/pricetag-fill">
<path id="&#240;&#159;&#142;&#168; Icon &#208;&#161;olor" fill-rule="evenodd" clip-rule="evenodd" d="M11.5605 11.5605C10.9745 12.1465 10.0255 12.1465 9.4395 11.5605C8.8535 10.9745 8.8535 10.0245 9.4395 9.4395C10.0255 8.8535 10.9745 8.8535 11.5605 9.4395C12.1465 10.0245 12.1465 10.9745 11.5605 11.5605ZM21.4675 11.5815L15.0505 5.1645C14.8855 4.9995 14.6685 4.8975 14.4365 4.8765L5.0925 4.0045C4.7955 3.9745 4.5035 4.0815 4.2925 4.2925C4.0815 4.5035 3.9765 4.7965 4.0035 5.0925L4.8755 14.4365C4.8985 14.6685 4.9995 14.8865 5.1645 15.0505L11.5815 21.4685C11.9365 21.8215 12.4015 21.9985 12.8665 21.9985C13.3315 21.9985 13.7965 21.8215 14.1515 21.4675L21.4675 14.1515C21.8105 13.8095 21.9995 13.3525 21.9995 12.8665C21.9995 12.3805 21.8105 11.9245 21.4675 11.5815Z" fill="#222B45"/>
<mask id="mask0" mask-type="alpha" maskUnits="userSpaceOnUse" x="3" y="3" width="19" height="19">
<path id="&#240;&#159;&#142;&#168; Icon &#208;&#161;olor_2" fill-rule="evenodd" clip-rule="evenodd" d="M11.5605 11.5605C10.9745 12.1465 10.0255 12.1465 9.4395 11.5605C8.8535 10.9745 8.8535 10.0245 9.4395 9.4395C10.0255 8.8535 10.9745 8.8535 11.5605 9.4395C12.1465 10.0245 12.1465 10.9745 11.5605 11.5605ZM21.4675 11.5815L15.0505 5.1645C14.8855 4.9995 14.6685 4.8975 14.4365 4.8765L5.0925 4.0045C4.7955 3.9745 4.5035 4.0815 4.2925 4.2925C4.0815 4.5035 3.9765 4.7965 4.0035 5.0925L4.8755 14.4365C4.8985 14.6685 4.9995 14.8865 5.1645 15.0505L11.5815 21.4685C11.9365 21.8215 12.4015 21.9985 12.8665 21.9985C13.3315 21.9985 13.7965 21.8215 14.1515 21.4675L21.4675 14.1515C21.8105 13.8095 21.9995 13.3525 21.9995 12.8665C21.9995 12.3805 21.8105 11.9245 21.4675 11.5815Z" fill="white"/>
</mask>
<g mask="url(#mask0)">
</g>
</g>
</svg>
