<svg width="44" height="44" viewBox="0 0 44 44" fill="none" xmlns="http://www.w3.org/2000/svg">
<circle cx="22" cy="22" r="22" fill="#E8F4FD"/>
<path fill-rule="evenodd" clip-rule="evenodd" d="M31.3623 14.8123C31.4998 14.8415 31.6165 14.9373 31.6665 15.0706C32.3664 16.8622 31.9456 18.8954 30.5832 20.2537C29.6749 21.1661 28.4583 21.6702 27.1667 21.6702C26.6584 21.6702 26.1585 21.5911 25.6752 21.4328L17.1049 31.0238C16.5507 31.6446 15.7549 31.9988 14.9258 31.9988C14.1425 31.9988 13.4093 31.6946 12.8593 31.1405C12.2843 30.5697 11.9802 29.8031 12.001 28.9948C12.026 28.1823 12.3718 27.4366 12.9759 26.8949L22.567 18.3246C22.0087 16.6039 22.4587 14.704 23.7461 13.4166C24.6586 12.5041 25.871 12 27.1626 12C27.7709 12 28.3667 12.1125 28.9291 12.3333C29.0625 12.3833 29.1583 12.5 29.1875 12.6375C29.2125 12.775 29.1708 12.9166 29.0708 13.0166L26.5543 15.5331L28.4667 17.4455L30.9832 14.929C31.0832 14.829 31.229 14.7832 31.3623 14.8123ZM14.1092 29.8947C14.355 30.1364 14.68 30.2739 15.0258 30.2739C15.3758 30.2739 15.7008 30.1364 15.9466 29.8906C16.4549 29.3864 16.4549 28.5615 15.9466 28.0532C15.455 27.5615 14.6008 27.5615 14.105 28.0532C13.6009 28.5615 13.6009 29.3864 14.1092 29.8947Z" fill="#2196F3"/>
</svg>
