<svg width="44" height="44" viewBox="0 0 44 44" fill="none" xmlns="http://www.w3.org/2000/svg">
<circle opacity="0.999182" cx="22" cy="22" r="22" fill="#F3F9EC"/>
<path fill-rule="evenodd" clip-rule="evenodd" d="M10.7931 23.3811C10.7931 23.8969 10.998 24.3916 11.3628 24.7564L19.3036 32.6973C20.0632 33.4568 21.2947 33.4568 22.0542 32.6973L30.7859 23.9656C31.2042 23.5473 31.4094 22.9614 31.3435 22.3735L30.5422 15.234C30.441 14.3314 29.7286 13.619 28.8261 13.5178L21.6865 12.7166C21.0986 12.6506 20.5127 12.8558 20.0944 13.2741L11.3628 22.0058C10.998 22.3706 10.7931 22.8653 10.7931 23.3811ZM27.391 16.669C27.9549 17.2329 27.9549 18.1472 27.391 18.7111C26.8271 19.275 25.9128 19.275 25.349 18.7111C24.7851 18.1472 24.7851 17.2329 25.349 16.669C25.9128 16.1052 26.8271 16.1052 27.391 16.669ZM22.7837 20.3495L22.4937 20.6395C21.522 20.0206 20.4935 20.0684 19.7999 20.7621C18.9269 21.6351 19.3186 22.7622 19.7581 23.6472C20.1123 24.3812 20.1647 24.7534 19.9165 25.0016C19.6684 25.2497 19.2737 25.154 18.8626 24.7429C18.5925 24.4694 18.3693 24.1532 18.2019 23.8071C18.1658 23.7335 18.1178 23.6663 18.0599 23.6083C17.8295 23.3778 17.4727 23.3318 17.1913 23.4962L17.1465 23.5231C16.8171 23.7204 16.6963 24.1389 16.8699 24.4813C17.0598 24.8483 17.2937 25.1906 17.5666 25.5009L17.2855 25.7819C17.0378 26.0296 17.0378 26.4311 17.2855 26.6788C17.5332 26.9265 17.9348 26.9265 18.1824 26.6788L18.5233 26.338C19.5144 26.9972 20.6251 26.9449 21.3471 26.2229C22.0692 25.5009 22.1185 24.6592 21.5205 23.4065C21.1184 22.5171 21.0467 22.1523 21.241 21.958C21.4637 21.7352 21.8046 21.8189 22.1723 22.1867C22.39 22.4031 22.5752 22.6498 22.7224 22.9192C22.7564 22.9822 22.7998 23.0396 22.851 23.0896C23.1106 23.3423 23.5164 23.366 23.8038 23.1454C24.0912 22.9248 24.173 22.5267 23.9961 22.2106C23.8405 21.9472 23.6592 21.6998 23.4549 21.4721L23.6807 21.2464C23.9283 20.9987 23.9283 20.5971 23.6807 20.3495C23.433 20.1018 23.0314 20.1018 22.7837 20.3495Z" fill="#8BC34A"/>
</svg>
