<svg width="24" height="24" viewBox="0 0 24 24" fill="none" xmlns="http://www.w3.org/2000/svg">
<g id="27) Icon/sun">
<path id="&#240;&#159;&#142;&#168; Icon &#208;&#161;olor" fill-rule="evenodd" clip-rule="evenodd" d="M14 12C14 10.897 13.103 10 12 10C10.897 10 10 10.897 10 12C10 13.103 10.897 14 12 14C13.103 14 14 13.103 14 12ZM16 12C16 14.206 14.206 16 12 16C9.794 16 8 14.206 8 12C8 9.794 9.794 8 12 8C14.206 8 16 9.794 16 12ZM6.27 16.143L4.831 17.532C4.434 17.916 4.423 18.55 4.807 18.946C5.003 19.149 5.264 19.252 5.526 19.252C5.776 19.252 6.026 19.159 6.221 18.972L7.66 17.582C8.057 17.198 8.068 16.564 7.684 16.168C7.301 15.771 6.668 15.76 6.27 16.143ZM17.73 16.143C17.333 15.76 16.7 15.771 16.316 16.168C15.932 16.564 15.943 17.198 16.34 17.582L17.779 18.972C17.974 19.159 18.224 19.252 18.474 19.252C18.736 19.252 18.997 19.149 19.193 18.946C19.577 18.55 19.566 17.916 19.169 17.532L17.73 16.143ZM12 18C11.448 18 11 18.447 11 19V21C11 21.553 11.448 22 12 22C12.552 22 13 21.553 13 21V19C13 18.447 12.552 18 12 18ZM17.035 8.138C17.285 8.138 17.536 8.045 17.73 7.857L19.169 6.468C19.566 6.084 19.577 5.45 19.193 5.054C18.81 4.657 18.178 4.646 17.779 5.028L16.34 6.418C15.943 6.802 15.932 7.436 16.316 7.832C16.512 8.035 16.773 8.138 17.035 8.138ZM6.221 5.028C5.824 4.646 5.191 4.657 4.807 5.054C4.423 5.45 4.434 6.084 4.831 6.468L6.27 7.857C6.464 8.045 6.715 8.138 6.965 8.138C7.227 8.138 7.488 8.035 7.684 7.832C8.068 7.436 8.057 6.802 7.66 6.418L6.221 5.028ZM6 12C6 11.447 5.552 11 5 11H3C2.448 11 2 11.447 2 12C2 12.553 2.448 13 3 13H5C5.552 13 6 12.553 6 12ZM21 11H19C18.448 11 18 11.447 18 12C18 12.553 18.448 13 19 13H21C21.552 13 22 12.553 22 12C22 11.447 21.552 11 21 11ZM11 5V3C11 2.447 11.448 2 12 2C12.552 2 13 2.447 13 3V5C13 5.553 12.552 6 12 6C11.448 6 11 5.553 11 5Z" fill="#222B45"/>
</g>
</svg>
