<svg width="24" height="24" viewBox="0 0 24 24" fill="none" xmlns="http://www.w3.org/2000/svg">
<g id="27) Icon/thermometer-fill">
<path id="&#240;&#159;&#142;&#168; Icon &#208;&#161;olor" fill-rule="evenodd" clip-rule="evenodd" d="M13 9.54V5C13 4.733 12.897 4.487 12.713 4.306C12.514 4.102 12.267 4 12 4C11.448 4 11 4.449 11 5V9.54H13ZM12 22C9.243 22 7 19.757 7 17C7 15.42 7.754 13.937 9 13.003V5C9 3.346 10.346 2 12 2C12.812 2 13.566 2.317 14.127 2.892C14.684 3.434 15 4.189 15 5V13.003C16.246 13.937 17 15.42 17 17C17 19.757 14.757 22 12 22Z" fill="#222B45"/>
<mask id="mask0" mask-type="alpha" maskUnits="userSpaceOnUse" x="7" y="2" width="10" height="20">
<path id="&#240;&#159;&#142;&#168; Icon &#208;&#161;olor_2" fill-rule="evenodd" clip-rule="evenodd" d="M13 9.54V5C13 4.733 12.897 4.487 12.713 4.306C12.514 4.102 12.267 4 12 4C11.448 4 11 4.449 11 5V9.54H13ZM12 22C9.243 22 7 19.757 7 17C7 15.42 7.754 13.937 9 13.003V5C9 3.346 10.346 2 12 2C12.812 2 13.566 2.317 14.127 2.892C14.684 3.434 15 4.189 15 5V13.003C16.246 13.937 17 15.42 17 17C17 19.757 14.757 22 12 22Z" fill="white"/>
</mask>
<g mask="url(#mask0)">
</g>
</g>
</svg>
