<svg width="24" height="24" viewBox="0 0 24 24" fill="none" xmlns="http://www.w3.org/2000/svg">
<g id="27) Icon/trending-up">
<path id="&#240;&#159;&#142;&#168; Icon &#208;&#161;olor" fill-rule="evenodd" clip-rule="evenodd" d="M20.9922 6.96291C20.9902 6.89091 20.9692 6.82291 20.9502 6.75391C20.9352 6.69591 20.9282 6.63691 20.9032 6.58391C20.8802 6.53191 20.8412 6.48991 20.8072 6.44191C20.7652 6.38091 20.7272 6.31991 20.6732 6.26991C20.6642 6.26091 20.6602 6.24891 20.6502 6.24091C20.6142 6.20991 20.5702 6.19891 20.5312 6.17391C20.4712 6.13491 20.4122 6.09491 20.3442 6.06891C20.2772 6.04491 20.2112 6.03891 20.1422 6.02891C20.0942 6.02191 20.0512 5.99991 20.0002 5.99991H15.0002C14.4472 5.99991 14.0002 6.44791 14.0002 6.99991C14.0002 7.55191 14.4472 7.99991 15.0002 7.99991H17.8262L13.7902 12.7079L9.51419 10.1429C9.09119 9.88691 8.54719 9.98091 8.23119 10.3599L3.23119 16.3599C2.87819 16.7839 2.93519 17.4149 3.35919 17.7679C3.54719 17.9239 3.77319 17.9999 3.99919 17.9999C4.28619 17.9999 4.57019 17.8779 4.76819 17.6399L9.22019 12.2979L13.4852 14.8579C13.9042 15.1089 14.4422 15.0209 14.7592 14.6509L19.0002 9.70291V11.9999C19.0002 12.5519 19.4472 12.9999 20.0002 12.9999C20.5532 12.9999 21.0002 12.5519 21.0002 11.9999V6.99991C21.0002 6.98691 20.9932 6.97591 20.9922 6.96291Z" fill="#222B45"/>
<mask id="mask0" mask-type="alpha" maskUnits="userSpaceOnUse" x="2" y="6" width="20" height="12">
<path id="&#240;&#159;&#142;&#168; Icon &#208;&#161;olor_2" fill-rule="evenodd" clip-rule="evenodd" d="M20.9922 6.96291C20.9902 6.89091 20.9692 6.82291 20.9502 6.75391C20.9352 6.69591 20.9282 6.63691 20.9032 6.58391C20.8802 6.53191 20.8412 6.48991 20.8072 6.44191C20.7652 6.38091 20.7272 6.31991 20.6732 6.26991C20.6642 6.26091 20.6602 6.24891 20.6502 6.24091C20.6142 6.20991 20.5702 6.19891 20.5312 6.17391C20.4712 6.13491 20.4122 6.09491 20.3442 6.06891C20.2772 6.04491 20.2112 6.03891 20.1422 6.02891C20.0942 6.02191 20.0512 5.99991 20.0002 5.99991H15.0002C14.4472 5.99991 14.0002 6.44791 14.0002 6.99991C14.0002 7.55191 14.4472 7.99991 15.0002 7.99991H17.8262L13.7902 12.7079L9.51419 10.1429C9.09119 9.88691 8.54719 9.98091 8.23119 10.3599L3.23119 16.3599C2.87819 16.7839 2.93519 17.4149 3.35919 17.7679C3.54719 17.9239 3.77319 17.9999 3.99919 17.9999C4.28619 17.9999 4.57019 17.8779 4.76819 17.6399L9.22019 12.2979L13.4852 14.8579C13.9042 15.1089 14.4422 15.0209 14.7592 14.6509L19.0002 9.70291V11.9999C19.0002 12.5519 19.4472 12.9999 20.0002 12.9999C20.5532 12.9999 21.0002 12.5519 21.0002 11.9999V6.99991C21.0002 6.98691 20.9932 6.97591 20.9922 6.96291Z" fill="white"/>
</mask>
<g mask="url(#mask0)">
</g>
</g>
</svg>
