<svg width="24" height="24" viewBox="0 0 24 24" fill="none" xmlns="http://www.w3.org/2000/svg">
<g id="27) Icon/video-off">
<path id="&#240;&#159;&#142;&#168; Icon &#208;&#161;olor" fill-rule="evenodd" clip-rule="evenodd" d="M20 9.40037L17.191 12.0004L20 14.5994V9.40037ZM22 8.62937V15.3704C22 16.0194 21.621 16.5884 21.012 16.8544C20.788 16.9524 20.553 17.0004 20.319 17.0004C20.113 17.0004 19.91 16.9624 19.718 16.8894L15 12.1714V8.00037C15 7.44837 14.552 7.00037 14 7.00037H9.828L7.828 5.00037H14C15.654 5.00037 17 6.34537 17 8.00037V9.45137L19.161 7.45137C19.66 6.99137 20.386 6.87337 21.012 7.14537C21.621 7.41137 22 7.98037 22 8.62937ZM14 17.0004H5C4.448 17.0004 4 16.5514 4 16.0004V8.00037C4 7.67937 4.161 7.40737 4.396 7.22337L2.974 5.80137C2.379 6.35037 2 7.12937 2 8.00037V16.0004C2 17.6544 3.346 19.0004 5 19.0004H14C14.616 19.0004 15.188 18.8124 15.665 18.4934L14.143 16.9704C14.094 16.9784 14.051 17.0004 14 17.0004ZM20.707 19.2934C21.098 19.6834 21.098 20.3164 20.707 20.7074C20.512 20.9024 20.256 21.0004 20 21.0004C19.744 21.0004 19.488 20.9024 19.293 20.7074L16.386 17.7994L14.931 16.3444L5.586 7.00037L3.826 5.24037L3.293 4.70737C2.902 4.31637 2.902 3.68337 3.293 3.29337C3.684 2.90237 4.316 2.90237 4.707 3.29337L6.414 5.00037L8.414 7.00037L15 13.5864L17 15.5864L20.707 19.2934Z" fill="#222B45"/>
</g>
</svg>
