<svg width="24" height="24" viewBox="0 0 24 24" fill="none" xmlns="http://www.w3.org/2000/svg">
<g id="27) Icon/video-off-fill">
<path id="&#240;&#159;&#142;&#168; Icon &#208;&#161;olor" fill-rule="evenodd" clip-rule="evenodd" d="M15 13.5859L17 15.5859L20.707 19.2929C21.098 19.6839 21.098 20.3159 20.707 20.7069C20.512 20.9019 20.256 20.9999 20 20.9999C19.744 20.9999 19.488 20.9019 19.293 20.7069L16.386 17.7999L14.931 16.3449L5.58603 6.99991L3.82603 5.23991L3.29303 4.70691C2.90203 4.31591 2.90203 3.68391 3.29303 3.29291C3.68403 2.90191 4.31603 2.90191 4.70703 3.29291L6.41403 4.99991L8.41403 6.99991L15 13.5859ZM21.0117 7.14541C20.3857 6.87341 19.6597 6.99141 19.1607 7.45141L16.9997 9.45141V7.99941C16.9997 6.34541 15.6547 4.99941 13.9997 4.99941H7.82773L9.12073 6.29241L15.7067 12.8784L17.7067 14.8784L19.7177 16.8894C19.9097 16.9614 20.1137 16.9994 20.3197 16.9994C20.5527 16.9994 20.7877 16.9524 21.0117 16.8544C21.6207 16.5884 21.9997 16.0194 21.9997 15.3704V8.62941C21.9997 7.98041 21.6207 7.41141 21.0117 7.14541ZM14.2236 17.0517L4.87863 7.70671L3.11963 5.94771L2.97363 5.80171C2.37863 6.35071 1.99963 7.12871 1.99963 7.99971V15.9997C1.99963 17.6547 3.34563 18.9997 4.99963 18.9997H13.9996C14.6166 18.9997 15.1886 18.8127 15.6646 18.4927L14.2236 17.0517Z" fill="#222B45"/>
<mask id="mask0" mask-type="alpha" maskUnits="userSpaceOnUse" x="1" y="2" width="21" height="19">
<path id="&#240;&#159;&#142;&#168; Icon &#208;&#161;olor_2" fill-rule="evenodd" clip-rule="evenodd" d="M15 13.5859L17 15.5859L20.707 19.2929C21.098 19.6839 21.098 20.3159 20.707 20.7069C20.512 20.9019 20.256 20.9999 20 20.9999C19.744 20.9999 19.488 20.9019 19.293 20.7069L16.386 17.7999L14.931 16.3449L5.58603 6.99991L3.82603 5.23991L3.29303 4.70691C2.90203 4.31591 2.90203 3.68391 3.29303 3.29291C3.68403 2.90191 4.31603 2.90191 4.70703 3.29291L6.41403 4.99991L8.41403 6.99991L15 13.5859ZM21.0117 7.14541C20.3857 6.87341 19.6597 6.99141 19.1607 7.45141L16.9997 9.45141V7.99941C16.9997 6.34541 15.6547 4.99941 13.9997 4.99941H7.82773L9.12073 6.29241L15.7067 12.8784L17.7067 14.8784L19.7177 16.8894C19.9097 16.9614 20.1137 16.9994 20.3197 16.9994C20.5527 16.9994 20.7877 16.9524 21.0117 16.8544C21.6207 16.5884 21.9997 16.0194 21.9997 15.3704V8.62941C21.9997 7.98041 21.6207 7.41141 21.0117 7.14541ZM14.2236 17.0517L4.87863 7.70671L3.11963 5.94771L2.97363 5.80171C2.37863 6.35071 1.99963 7.12871 1.99963 7.99971V15.9997C1.99963 17.6547 3.34563 18.9997 4.99963 18.9997H13.9996C14.6166 18.9997 15.1886 18.8127 15.6646 18.4927L14.2236 17.0517Z" fill="white"/>
</mask>
<g mask="url(#mask0)">
</g>
</g>
</svg>
