<svg width="24" height="24" viewBox="0 0 24 24" fill="none" xmlns="http://www.w3.org/2000/svg">
<g id="27) Icon/volume">
<path id="&#240;&#159;&#142;&#168; Icon &#208;&#161;olor" fill-rule="evenodd" clip-rule="evenodd" d="M6 14.4287H10.333C10.535 14.4287 10.732 14.4907 10.899 14.6037L16 18.1017V5.89871L10.899 9.39671C10.732 9.50971 10.535 9.57171 10.333 9.57171H6V14.4287ZM17 20.9997C16.802 20.9997 16.604 20.9417 16.435 20.8247L10.023 16.4287H5C4.448 16.4287 4 15.9817 4 15.4287V8.57171C4 8.01871 4.448 7.57171 5 7.57171H10.023L16.435 3.17471C16.74 2.96471 17.137 2.94171 17.466 3.11571C17.794 3.28771 18 3.62871 18 3.99971V19.9997C18 20.3707 17.794 20.7117 17.466 20.8847C17.32 20.9617 17.16 20.9997 17 20.9997Z" fill="#222B45"/>
<mask id="mask0" mask-type="alpha" maskUnits="userSpaceOnUse" x="4" y="2" width="14" height="19">
<path id="&#240;&#159;&#142;&#168; Icon &#208;&#161;olor_2" fill-rule="evenodd" clip-rule="evenodd" d="M6 14.4287H10.333C10.535 14.4287 10.732 14.4907 10.899 14.6037L16 18.1017V5.89871L10.899 9.39671C10.732 9.50971 10.535 9.57171 10.333 9.57171H6V14.4287ZM17 20.9997C16.802 20.9997 16.604 20.9417 16.435 20.8247L10.023 16.4287H5C4.448 16.4287 4 15.9817 4 15.4287V8.57171C4 8.01871 4.448 7.57171 5 7.57171H10.023L16.435 3.17471C16.74 2.96471 17.137 2.94171 17.466 3.11571C17.794 3.28771 18 3.62871 18 3.99971V19.9997C18 20.3707 17.794 20.7117 17.466 20.8847C17.32 20.9617 17.16 20.9997 17 20.9997Z" fill="white"/>
</mask>
<g mask="url(#mask0)">
</g>
</g>
</svg>
