<svg width="24" height="24" viewBox="0 0 24 24" fill="none" xmlns="http://www.w3.org/2000/svg">
<g id="27) Icon/volume-down">
<path id="&#240;&#159;&#142;&#168; Icon &#208;&#161;olor" fill-rule="evenodd" clip-rule="evenodd" d="M14 5.89902L8.899 9.39702C8.732 9.51002 8.535 9.57202 8.333 9.57202H4V14.429H8.333C8.535 14.429 8.732 14.491 8.899 14.604L14 18.102V5.89902ZM16 4.00102V20.001C16 20.372 15.794 20.712 15.466 20.885C15.32 20.962 15.16 21.001 15 21.001C14.802 21.001 14.604 20.942 14.435 20.826L8.023 16.429H3C2.448 16.429 2 15.982 2 15.429V8.57202C2 8.01902 2.448 7.57202 3 7.57202H8.023L14.435 3.17502C14.741 2.96502 15.138 2.94202 15.466 3.11602C15.794 3.28902 16 3.62902 16 4.00102ZM19.779 15.628C19.582 15.873 19.292 16.001 19 16.001C18.779 16.001 18.558 15.928 18.373 15.78C17.943 15.433 17.875 14.804 18.221 14.374C19.256 13.087 19.256 10.914 18.221 9.62802C17.875 9.19702 17.943 8.56802 18.373 8.22102C18.803 7.87702 19.433 7.94402 19.779 8.37402C21.416 10.408 21.416 13.593 19.779 15.628Z" fill="#222B45"/>
</g>
</svg>
