<svg width="24" height="24" viewBox="0 0 24 24" fill="none" xmlns="http://www.w3.org/2000/svg">
<g id="27) Icon/weight-fill">
<path id="&#240;&#159;&#142;&#168; Icon &#208;&#161;olor" fill-rule="evenodd" clip-rule="evenodd" d="M11 4.17191V5.99991C11 6.55291 11.448 6.99991 12 6.99991C12.552 6.99991 13 6.55291 13 5.99991V4.17191C13.923 4.49791 14.651 5.26691 14.907 6.27091C14.97 6.49191 15 6.73191 15 6.99991C15 8.65391 13.654 9.99991 12 9.99991C10.346 9.99991 9 8.65391 9 6.99991C9 6.73791 9.031 6.50491 9.091 6.28791C9.094 6.27591 9.095 6.26491 9.098 6.25291L9.102 6.23791C9.354 5.25591 10.08 4.49591 11 4.17191ZM18 4.99991H16.578C15.799 3.20091 14.017 1.99991 12 1.99991C9.977 1.99991 8.191 3.20891 7.42 4.99991H6C4.346 4.99991 3 6.34591 3 7.99991V18.9999C3 20.6539 4.346 21.9999 6 21.9999H18C19.654 21.9999 21 20.6539 21 18.9999V7.99991C21 6.34591 19.654 4.99991 18 4.99991Z" fill="#222B45"/>
<mask id="mask0" mask-type="alpha" maskUnits="userSpaceOnUse" x="3" y="2" width="18" height="20">
<path id="&#240;&#159;&#142;&#168; Icon &#208;&#161;olor_2" fill-rule="evenodd" clip-rule="evenodd" d="M11 4.17191V5.99991C11 6.55291 11.448 6.99991 12 6.99991C12.552 6.99991 13 6.55291 13 5.99991V4.17191C13.923 4.49791 14.651 5.26691 14.907 6.27091C14.97 6.49191 15 6.73191 15 6.99991C15 8.65391 13.654 9.99991 12 9.99991C10.346 9.99991 9 8.65391 9 6.99991C9 6.73791 9.031 6.50491 9.091 6.28791C9.094 6.27591 9.095 6.26491 9.098 6.25291L9.102 6.23791C9.354 5.25591 10.08 4.49591 11 4.17191ZM18 4.99991H16.578C15.799 3.20091 14.017 1.99991 12 1.99991C9.977 1.99991 8.191 3.20891 7.42 4.99991H6C4.346 4.99991 3 6.34591 3 7.99991V18.9999C3 20.6539 4.346 21.9999 6 21.9999H18C19.654 21.9999 21 20.6539 21 18.9999V7.99991C21 6.34591 19.654 4.99991 18 4.99991Z" fill="white"/>
</mask>
<g mask="url(#mask0)">
</g>
</g>
</svg>
