<svg width="24" height="24" viewBox="0 0 24 24" fill="none" xmlns="http://www.w3.org/2000/svg">
<g id="27) Icon/wifi">
<path id="&#240;&#159;&#142;&#168; Icon &#208;&#161;olor" fill-rule="evenodd" clip-rule="evenodd" d="M11.9996 4.0002C15.6476 4.0002 19.1006 5.3952 21.7246 7.9292C22.1216 8.3122 22.1326 8.9462 21.7496 9.3432C21.5536 9.5462 21.2916 9.6482 21.0306 9.6482C20.7806 9.6482 20.5296 9.5552 20.3356 9.3672C18.0856 7.1962 15.1256 6.0002 11.9996 6.0002C8.8736 6.0002 5.9136 7.1962 3.6636 9.3672C3.2686 9.7522 2.6346 9.7412 2.2496 9.3432C1.8676 8.9462 1.8776 8.3122 2.2756 7.9292C4.8996 5.3952 8.3526 4.0002 11.9996 4.0002ZM12 9C9.572 9 7.212 10.001 5.525 11.748C5.143 12.146 5.153 12.779 5.551 13.162C5.947 13.546 6.582 13.535 6.965 13.138C8.276 11.779 10.111 11 12 11C13.889 11 15.724 11.779 17.035 13.138C17.231 13.341 17.493 13.443 17.755 13.443C18.005 13.443 18.256 13.35 18.449 13.162C18.847 12.779 18.857 12.146 18.475 11.748C16.788 10.001 14.428 9 12 9ZM8.527 15.403C9.464 14.499 10.697 14 12 14C13.303 14 14.536 14.499 15.473 15.403C15.87 15.787 15.881 16.42 15.498 16.817C15.302 17.021 15.04 17.123 14.778 17.123C14.528 17.123 14.277 17.029 14.084 16.842C12.959 15.756 11.041 15.756 9.916 16.842C9.521 17.226 8.887 17.215 8.502 16.817C8.119 16.42 8.13 15.787 8.527 15.403ZM11 19C11 18.448 11.447 18 12 18C12.553 18 13 18.448 13 19C13 19.552 12.553 20 12 20C11.447 20 11 19.552 11 19Z" fill="#222B45"/>
<mask id="mask0" mask-type="alpha" maskUnits="userSpaceOnUse" x="1" y="4" width="22" height="16">
<path id="&#240;&#159;&#142;&#168; Icon &#208;&#161;olor_2" fill-rule="evenodd" clip-rule="evenodd" d="M11.9996 4.0002C15.6476 4.0002 19.1006 5.3952 21.7246 7.9292C22.1216 8.3122 22.1326 8.9462 21.7496 9.3432C21.5536 9.5462 21.2916 9.6482 21.0306 9.6482C20.7806 9.6482 20.5296 9.5552 20.3356 9.3672C18.0856 7.1962 15.1256 6.0002 11.9996 6.0002C8.8736 6.0002 5.9136 7.1962 3.6636 9.3672C3.2686 9.7522 2.6346 9.7412 2.2496 9.3432C1.8676 8.9462 1.8776 8.3122 2.2756 7.9292C4.8996 5.3952 8.3526 4.0002 11.9996 4.0002ZM12 9C9.572 9 7.212 10.001 5.525 11.748C5.143 12.146 5.153 12.779 5.551 13.162C5.947 13.546 6.582 13.535 6.965 13.138C8.276 11.779 10.111 11 12 11C13.889 11 15.724 11.779 17.035 13.138C17.231 13.341 17.493 13.443 17.755 13.443C18.005 13.443 18.256 13.35 18.449 13.162C18.847 12.779 18.857 12.146 18.475 11.748C16.788 10.001 14.428 9 12 9ZM8.527 15.403C9.464 14.499 10.697 14 12 14C13.303 14 14.536 14.499 15.473 15.403C15.87 15.787 15.881 16.42 15.498 16.817C15.302 17.021 15.04 17.123 14.778 17.123C14.528 17.123 14.277 17.029 14.084 16.842C12.959 15.756 11.041 15.756 9.916 16.842C9.521 17.226 8.887 17.215 8.502 16.817C8.119 16.42 8.13 15.787 8.527 15.403ZM11 19C11 18.448 11.447 18 12 18C12.553 18 13 18.448 13 19C13 19.552 12.553 20 12 20C11.447 20 11 19.552 11 19Z" fill="white"/>
</mask>
<g mask="url(#mask0)">
</g>
</g>
</svg>
