<svg width="22" height="19" viewBox="0 0 22 19" fill="none" xmlns="http://www.w3.org/2000/svg">
<path fill-rule="evenodd" clip-rule="evenodd" d="M21.8064 16.6747L12.1543 0.667547C11.9104 0.262996 11.4724 0.015625 11 0.015625C10.5275 0.015625 10.0895 0.262953 9.8456 0.667547L0.193615 16.6747C-0.0574084 17.091 -0.064842 17.6103 0.174236 18.0335C0.413314 18.4569 0.861779 18.7186 1.34793 18.7186H20.652C21.1382 18.7186 21.5866 18.4568 21.8257 18.0335C22.0648 17.6102 22.0574 17.091 21.8064 16.6747ZM11.0072 5.55266C11.5615 5.55266 12.0306 5.86539 12.0306 6.41969C12.0306 7.26538 11.9808 8.29587 11.9311 9.32635C11.8813 10.3568 11.8316 11.3873 11.8316 12.233C11.8316 12.6737 11.3483 12.8584 11.0072 12.8584C10.5524 12.8584 10.1686 12.6736 10.1686 12.233C10.1686 11.3873 10.1189 10.3568 10.0691 9.32635L10.0691 9.32628C10.0194 8.29582 9.96965 7.26536 9.96965 6.41969C9.96965 5.86539 10.4244 5.55266 11.0072 5.55266ZM9.92694 14.9336C9.92694 15.5164 10.396 16.0281 11.0214 16.0281C11.6041 16.0281 12.1016 15.5164 12.1016 14.9336C12.1016 14.3367 11.6041 13.8392 11.0214 13.8392C10.396 13.8392 9.92694 14.3367 9.92694 14.9336Z" fill="#FFAA00"/>
</svg>
