<svg width="26" height="26" viewBox="0 0 26 26" fill="none" xmlns="http://www.w3.org/2000/svg">
<path fill-rule="evenodd" clip-rule="evenodd" d="M11.3751 18.4165C11.0978 18.4165 10.8204 18.3104 10.6092 18.0991C10.1856 17.6755 10.1856 16.9909 10.6092 16.5673L14.1896 12.9869L10.7446 9.41945C10.3297 8.98828 10.3416 8.30253 10.7717 7.88761C11.2029 7.4727 11.8886 7.48461 12.3035 7.91361L16.4874 12.2469C16.8979 12.6727 16.8925 13.3476 16.4744 13.7658L12.141 18.0991C11.9298 18.3104 11.6524 18.4165 11.3751 18.4165Z" fill="#222B45"/>
<mask id="mask0_1268_38629" style="mask-type:alpha" maskUnits="userSpaceOnUse" x="10" y="7" width="7" height="12">
<path fill-rule="evenodd" clip-rule="evenodd" d="M11.3751 18.4165C11.0978 18.4165 10.8204 18.3104 10.6092 18.0991C10.1856 17.6755 10.1856 16.9909 10.6092 16.5673L14.1896 12.9869L10.7446 9.41945C10.3297 8.98828 10.3416 8.30253 10.7717 7.88761C11.2029 7.4727 11.8886 7.48461 12.3035 7.91361L16.4874 12.2469C16.8979 12.6727 16.8925 13.3476 16.4744 13.7658L12.141 18.0991C11.9298 18.3104 11.6524 18.4165 11.3751 18.4165Z" fill="white"/>
</mask>
<g mask="url(#mask0_1268_38629)">
</g>
</svg>
