<svg width="24" height="24" viewBox="0 0 24 24" fill="none" xmlns="http://www.w3.org/2000/svg">
<g id="27) Icon/arrowhead-right">
<path id="&#240;&#159;&#142;&#168; Icon &#208;&#161;olor" fill-rule="evenodd" clip-rule="evenodd" d="M5.22064 12.6268L10.0486 18.6268C10.3956 19.0568 11.0246 19.1258 11.4546 18.7788C11.8856 18.4328 11.9536 17.8028 11.6076 17.3728L7.29164 12.0108L11.7676 6.63975C12.1216 6.21575 12.0646 5.58475 11.6396 5.23175C11.4526 5.07575 11.2256 4.99975 11.0006 4.99975C10.7136 4.99975 10.4296 5.12275 10.2316 5.35975L5.23164 11.3598C4.92664 11.7258 4.92164 12.2558 5.22064 12.6268Z" fill="#7900D8"/>
<mask id="mask0_323:36094" style="mask-type:alpha" maskUnits="userSpaceOnUse" x="4" y="5" width="8" height="14">
<path id="&#240;&#159;&#142;&#168; Icon &#208;&#161;olor_2" fill-rule="evenodd" clip-rule="evenodd" d="M5.22064 12.6268L10.0486 18.6268C10.3956 19.0568 11.0246 19.1258 11.4546 18.7788C11.8856 18.4328 11.9536 17.8028 11.6076 17.3728L7.29164 12.0108L11.7676 6.63975C12.1216 6.21575 12.0646 5.58475 11.6396 5.23175C11.4526 5.07575 11.2256 4.99975 11.0006 4.99975C10.7136 4.99975 10.4296 5.12275 10.2316 5.35975L5.23164 11.3598C4.92664 11.7258 4.92164 12.2558 5.22064 12.6268Z" fill="white"/>
</mask>
<g mask="url(#mask0_323:36094)">
</g>
</g>
</svg>
