<svg width="34" height="34" viewBox="0 0 34 34" fill="none" xmlns="http://www.w3.org/2000/svg">
<path fill-rule="evenodd" clip-rule="evenodd" d="M21.2131 11.3431L16.9704 15.5858L12.7278 11.3431C12.3368 10.9521 11.7039 10.9528 11.3136 11.3431C10.9233 11.7335 10.9226 12.3663 11.3136 12.7574L15.5562 17L11.3136 21.2426C10.9233 21.633 10.9226 22.2658 11.3136 22.6569C11.7046 23.0479 12.3375 23.0472 12.7278 22.6569L16.9704 18.4142L21.2131 22.6569C21.6041 23.0479 22.237 23.0472 22.6273 22.6569C23.0176 22.2665 23.0183 21.6337 22.6273 21.2426L18.3847 17L22.6273 12.7574C23.0176 12.367 23.0183 11.7342 22.6273 11.3431C22.2363 10.9521 21.6034 10.9528 21.2131 11.3431Z" fill="#222B45"/>
<mask id="mask0_256_34263" style="mask-type:alpha" maskUnits="userSpaceOnUse" x="11" y="11" width="12" height="12">
<path fill-rule="evenodd" clip-rule="evenodd" d="M21.2131 11.3431L16.9704 15.5858L12.7278 11.3431C12.3368 10.9521 11.7039 10.9528 11.3136 11.3431C10.9233 11.7335 10.9226 12.3663 11.3136 12.7574L15.5562 17L11.3136 21.2426C10.9233 21.633 10.9226 22.2658 11.3136 22.6569C11.7046 23.0479 12.3375 23.0472 12.7278 22.6569L16.9704 18.4142L21.2131 22.6569C21.6041 23.0479 22.237 23.0472 22.6273 22.6569C23.0176 22.2665 23.0183 21.6337 22.6273 21.2426L18.3847 17L22.6273 12.7574C23.0176 12.367 23.0183 11.7342 22.6273 11.3431C22.2363 10.9521 21.6034 10.9528 21.2131 11.3431Z" fill="white"/>
</mask>
<g mask="url(#mask0_256_34263)">
</g>
</svg>
