<svg width="16" height="16" viewBox="0 0 16 16" fill="none" xmlns="http://www.w3.org/2000/svg">
<path fill-rule="evenodd" clip-rule="evenodd" d="M10.8635 6.40398L7.81817 10.404C7.69283 10.5687 7.49883 10.666 7.29217 10.6673H7.2875C7.08283 10.6673 6.8895 10.5726 6.76283 10.4113L5.1415 8.33998C4.91483 8.05065 4.9655 7.63132 5.2555 7.40465C5.54483 7.17732 5.96483 7.22798 6.1915 7.51865L7.28017 8.90932L9.80283 5.59665C10.0255 5.30398 10.4435 5.24665 10.7375 5.46998C11.0302 5.69332 11.0868 6.11132 10.8635 6.40398ZM8.00016 1.33398C4.31816 1.33398 1.3335 4.31865 1.3335 8.00065C1.3335 11.682 4.31816 14.6673 8.00016 14.6673C11.6822 14.6673 14.6668 11.682 14.6668 8.00065C14.6668 4.31865 11.6822 1.33398 8.00016 1.33398Z" fill="#F9F9F9"/>
<mask id="mask0_292_35725" style="mask-type:alpha" maskUnits="userSpaceOnUse" x="1" y="1" width="14" height="14">
<path fill-rule="evenodd" clip-rule="evenodd" d="M10.8635 6.40398L7.81817 10.404C7.69283 10.5687 7.49883 10.666 7.29217 10.6673H7.2875C7.08283 10.6673 6.8895 10.5726 6.76283 10.4113L5.1415 8.33998C4.91483 8.05065 4.9655 7.63132 5.2555 7.40465C5.54483 7.17732 5.96483 7.22798 6.1915 7.51865L7.28017 8.90932L9.80283 5.59665C10.0255 5.30398 10.4435 5.24665 10.7375 5.46998C11.0302 5.69332 11.0868 6.11132 10.8635 6.40398ZM8.00016 1.33398C4.31816 1.33398 1.3335 4.31865 1.3335 8.00065C1.3335 11.682 4.31816 14.6673 8.00016 14.6673C11.6822 14.6673 14.6668 11.682 14.6668 8.00065C14.6668 4.31865 11.6822 1.33398 8.00016 1.33398Z" fill="white"/>
</mask>
<g mask="url(#mask0_292_35725)">
</g>
</svg>
