<svg width="24" height="24" viewBox="0 0 24 24" fill="none" xmlns="http://www.w3.org/2000/svg">
<g id="27) Icon/checkmark">
<path id="&#240;&#159;&#142;&#168; Icon &#208;&#161;olor" fill-rule="evenodd" clip-rule="evenodd" d="M9.86332 17.9999C9.58732 17.9999 9.32332 17.8859 9.13432 17.6849L4.27132 12.5059C3.89232 12.1039 3.91332 11.4709 4.31532 11.0929C4.71832 10.7149 5.35132 10.7349 5.72832 11.1369L9.85332 15.5279L18.2613 6.32587C18.6353 5.91687 19.2673 5.88987 19.6753 6.26187C20.0823 6.63387 20.1103 7.26687 19.7383 7.67387L10.6013 17.6739C10.4143 17.8799 10.1483 17.9979 9.87032 17.9999H9.86332Z" fill="white"/>
<mask id="mask0_5469_35071" style="mask-type:alpha" maskUnits="userSpaceOnUse" x="3" y="5" width="18" height="14">
<path id="&#240;&#159;&#142;&#168; Icon &#208;&#161;olor_2" fill-rule="evenodd" clip-rule="evenodd" d="M9.86332 17.9999C9.58732 17.9999 9.32332 17.8859 9.13432 17.6849L4.27132 12.5059C3.89232 12.1039 3.91332 11.4709 4.31532 11.0929C4.71832 10.7149 5.35132 10.7349 5.72832 11.1369L9.85332 15.5279L18.2613 6.32587C18.6353 5.91687 19.2673 5.88987 19.6753 6.26187C20.0823 6.63387 20.1103 7.26687 19.7383 7.67387L10.6013 17.6739C10.4143 17.8799 10.1483 17.9979 9.87032 17.9999H9.86332Z" fill="white" stroke="white"/>
</mask>
<g mask="url(#mask0_5469_35071)">
</g>
</g>
</svg>
