<svg width="36" height="36" viewBox="0 0 36 36" fill="none" xmlns="http://www.w3.org/2000/svg">
<circle cx="18" cy="18" r="18" fill="#7900D8" fill-opacity="0.1"/>
<path fill-rule="evenodd" clip-rule="evenodd" d="M23.943 9.81993H21.5739V9.49028C21.5739 9.15141 21.3042 8.87664 20.9715 8.87664H19.9996C19.7405 8.00203 18.9421 7.36328 18 7.36328C17.058 7.36328 16.2596 8.00203 16.0004 8.87671H15.0285C14.6959 8.87671 14.4261 9.15145 14.4261 9.49036V9.82001H12.057C11.7243 9.82001 11.4546 10.0947 11.4546 10.4337V25.5678C11.4546 25.9067 11.7243 26.1815 12.057 26.1815H23.9431C24.2757 26.1815 24.5455 25.9067 24.5455 25.5678V10.4336C24.5455 10.0947 24.2758 9.81993 23.943 9.81993ZM15.631 10.104H16.5143C16.8469 10.104 17.1167 9.82923 17.1167 9.49032C17.1167 8.99417 17.513 8.59054 18 8.59054C18.4871 8.59054 18.8834 8.99417 18.8834 9.49032C18.8834 9.82919 19.1531 10.104 19.4858 10.104H20.3691V11.0659H15.631V10.104ZM15.6133 22.4973H20.3868C20.7195 22.4973 20.9892 22.2226 20.9892 21.8837C20.9892 21.5448 20.7195 21.27 20.3868 21.27H15.6133C15.2805 21.27 15.0108 21.5448 15.0108 21.8837C15.0108 22.2226 15.2806 22.4973 15.6133 22.4973ZM20.3868 19.2373H15.6133C15.2806 19.2373 15.0108 18.9625 15.0108 18.6236C15.0108 18.2848 15.2805 18.01 15.6133 18.01H20.3868C20.7195 18.01 20.9892 18.2847 20.9892 18.6236C20.9892 18.9625 20.7195 19.2373 20.3868 19.2373ZM15.6133 15.9773H20.3868C20.7195 15.9773 20.9892 15.7025 20.9892 15.3636C20.9892 15.0247 20.7195 14.75 20.3868 14.75H15.6133C15.2805 14.75 15.0108 15.0247 15.0108 15.3636C15.0108 15.7025 15.2806 15.9773 15.6133 15.9773Z" fill="#7900D8"/>
</svg>
