<svg width="32" height="32" viewBox="0 0 32 32" fill="none" xmlns="http://www.w3.org/2000/svg">
<circle cx="16" cy="16" r="16" fill="#7900D8" fill-opacity="0.1"/>
<path fill-rule="evenodd" clip-rule="evenodd" d="M21.2827 8.72915H19.1768V8.43612C19.1768 8.1349 18.9371 7.89066 18.6413 7.89066H17.7774C17.5471 7.11323 16.8374 6.54546 16 6.54546C15.1626 6.54546 14.4529 7.11323 14.2226 7.89072H13.3587C13.063 7.89072 12.8232 8.13494 12.8232 8.43619V8.72921H10.7173C10.4216 8.72921 10.1818 8.97342 10.1818 9.27468V22.7273C10.1818 23.0285 10.4216 23.2727 10.7173 23.2727H21.2827C21.5784 23.2727 21.8182 23.0285 21.8182 22.7273V9.27461C21.8182 8.97339 21.5784 8.72915 21.2827 8.72915ZM13.8942 8.98162H14.6793C14.975 8.98162 15.2148 8.73741 15.2148 8.43616C15.2148 7.99514 15.567 7.63635 16 7.63635C16.4329 7.63635 16.7852 7.99514 16.7852 8.43616C16.7852 8.73738 17.0249 8.98162 17.3207 8.98162H18.1058V9.83667H13.8942V8.98162ZM13.8784 19.9979H18.1216C18.4173 19.9979 18.6571 19.7537 18.6571 19.4525C18.6571 19.1512 18.4173 18.907 18.1216 18.907H13.8784C13.5827 18.907 13.3429 19.1512 13.3429 19.4525C13.3429 19.7537 13.5827 19.9979 13.8784 19.9979ZM18.1216 17.1001H13.8784C13.5827 17.1001 13.3429 16.8559 13.3429 16.5547C13.3429 16.2534 13.5827 16.0092 13.8784 16.0092H18.1216C18.4173 16.0092 18.6571 16.2534 18.6571 16.5547C18.6571 16.8559 18.4173 17.1001 18.1216 17.1001ZM13.8784 14.2023H18.1216C18.4173 14.2023 18.6571 13.9581 18.6571 13.6569C18.6571 13.3556 18.4173 13.1114 18.1216 13.1114H13.8784C13.5827 13.1114 13.3429 13.3556 13.3429 13.6569C13.3429 13.9581 13.5827 14.2023 13.8784 14.2023Z" fill="#7900D8"/>
</svg>
