<svg width="60" height="60" viewBox="0 0 60 60" fill="none" xmlns="http://www.w3.org/2000/svg">
<circle cx="30" cy="30" r="30" fill="#7900D8" fill-opacity="0.1"/>
<path fill-rule="evenodd" clip-rule="evenodd" d="M39.905 16.3669H35.9565V15.8175C35.9565 15.2527 35.507 14.7947 34.9525 14.7947H33.3327C32.9008 13.337 31.5701 12.2725 30 12.2725C28.4299 12.2725 27.0992 13.337 26.6673 14.7948H25.0475C24.4931 14.7948 24.0435 15.2527 24.0435 15.8176V16.367H20.095C19.5405 16.367 19.0909 16.8249 19.0909 17.3897V42.6134C19.0909 43.1781 19.5405 43.6361 20.095 43.6361H39.9051C40.4595 43.6361 40.9091 43.1782 40.9091 42.6134V17.3896C40.9091 16.8248 40.4596 16.3669 39.905 16.3669ZM26.0516 16.8403H27.5237C28.0782 16.8403 28.5278 16.3824 28.5278 15.8175C28.5278 14.9906 29.1882 14.3179 30 14.3179C30.8118 14.3179 31.4722 14.9906 31.4722 15.8175C31.4722 16.3823 31.9217 16.8403 32.4763 16.8403H33.9484V18.4435H26.0516V16.8403ZM26.022 37.4959H33.978C34.5325 37.4959 34.982 37.038 34.982 36.4731C34.982 35.9083 34.5324 35.4504 33.978 35.4504H26.022C25.4675 35.4504 25.018 35.9083 25.018 36.4731C25.018 37.038 25.4676 37.4959 26.022 37.4959ZM33.978 32.0624H26.022C25.4676 32.0624 25.018 31.6046 25.018 31.0397C25.018 30.4749 25.4675 30.017 26.022 30.017H33.978C34.5324 30.017 34.982 30.4749 34.982 31.0397C34.982 31.6046 34.5325 32.0624 33.978 32.0624ZM26.022 26.6291H33.978C34.5325 26.6291 34.982 26.1712 34.982 25.6063C34.982 25.0415 34.5324 24.5836 33.978 24.5836H26.022C25.4675 24.5836 25.018 25.0415 25.018 25.6063C25.018 26.1712 25.4676 26.6291 26.022 26.6291Z" fill="#7900D8"/>
</svg>
