<svg width="20" height="20" viewBox="0 0 20 20" fill="none" xmlns="http://www.w3.org/2000/svg">
<path fill-rule="evenodd" clip-rule="evenodd" d="M13.3488 8.89881L11.1029 6.65298L12.7263 5.02882L14.9713 7.27381L13.3488 8.89881ZM7.56625 14.6871L5.08542 14.913L5.30542 12.4496L9.98625 7.76881L12.2329 10.0155L7.56625 14.6871ZM16.1696 6.11465L16.1688 6.11381L13.8871 3.83215C13.2696 3.21631 12.2088 3.18715 11.6238 3.77465L4.12709 11.2713C3.85542 11.5421 3.68709 11.9021 3.65209 12.283L3.33625 15.758C3.31459 16.0038 3.40209 16.2471 3.57709 16.4221C3.73459 16.5796 3.94709 16.6663 4.16625 16.6663C4.19209 16.6663 4.21709 16.6655 4.24209 16.663L7.71709 16.3471C8.09875 16.3121 8.45792 16.1446 8.72875 15.8738L16.2263 8.37631C16.8329 7.76798 16.8071 6.75298 16.1696 6.11465Z" fill="white"/>
<mask id="mask0_3104:1872" style="mask-type:alpha" maskUnits="userSpaceOnUse" x="3" y="3" width="14" height="14">
<path fill-rule="evenodd" clip-rule="evenodd" d="M13.3488 8.89881L11.1029 6.65298L12.7263 5.02882L14.9713 7.27381L13.3488 8.89881ZM7.56625 14.6871L5.08542 14.913L5.30542 12.4496L9.98625 7.76881L12.2329 10.0155L7.56625 14.6871ZM16.1696 6.11465L16.1688 6.11381L13.8871 3.83215C13.2696 3.21631 12.2088 3.18715 11.6238 3.77465L4.12709 11.2713C3.85542 11.5421 3.68709 11.9021 3.65209 12.283L3.33625 15.758C3.31459 16.0038 3.40209 16.2471 3.57709 16.4221C3.73459 16.5796 3.94709 16.6663 4.16625 16.6663C4.19209 16.6663 4.21709 16.6655 4.24209 16.663L7.71709 16.3471C8.09875 16.3121 8.45792 16.1446 8.72875 15.8738L16.2263 8.37631C16.8329 7.76798 16.8071 6.75298 16.1696 6.11465Z" fill="white"/>
</mask>
<g mask="url(#mask0_3104:1872)">
</g>
</svg>
