<svg width="16" height="18" viewBox="0 0 16 18" fill="none" xmlns="http://www.w3.org/2000/svg">
<path d="M5.50506 11.2227H4.87188C4.14843 11.2227 2.96466 11.2227 2.24098 11.2227H1.66464C0.941199 11.2227 0.349312 11.8145 0.349312 12.538V16.1192C0.349312 16.8427 0.941199 17.4346 1.66464 17.4346H5.50506C6.22851 17.4346 6.8204 16.8427 6.8204 16.1192V12.538C6.8204 11.8145 6.22851 11.2227 5.50506 11.2227Z" fill="#3F51B5"/>
<path d="M14.2968 11.2227H10.4564C9.73297 11.2227 9.14108 11.8145 9.14108 12.538V16.1192C9.14108 16.8427 9.73297 17.4346 10.4564 17.4346H14.2968C15.0203 17.4346 15.6122 16.8427 15.6122 16.1192V12.538C15.6124 11.8145 15.0203 11.2227 14.2968 11.2227Z" fill="#3F51B5"/>
<path d="M3.99159 10C3.99159 9.6515 4.32825 9.35707 4.72686 9.35707H11.0613C11.4601 9.35707 11.7968 9.6515 11.7968 10V11.223H12.9569V10C12.9569 9.00578 12.1065 8.19696 11.0613 8.19696H8.47425V6.41016H9.8144C10.5378 6.41016 11.1297 5.81827 11.1297 5.09483V1.51357C11.1297 0.79013 10.5378 0.198242 9.8144 0.198242H5.97398C5.25054 0.198242 4.65865 0.79013 4.65865 1.51357V5.09483C4.65865 5.81827 5.25054 6.41016 5.97398 6.41016H7.31414V8.19696H4.7271C3.68207 8.19696 2.83171 9.00555 2.83171 10V11.223H3.99182V10H3.99159Z" fill="#3F51B5"/>
</svg>
