<svg width="18" height="18" viewBox="0 0 18 18" fill="none" xmlns="http://www.w3.org/2000/svg">
<path d="M7.95868 0.860352C4.09091 0.860352 0.924438 4.00557 0.924438 7.89459C0.924438 11.7624 4.06966 14.9288 7.95868 14.9288C9.21251 14.9288 10.4664 14.5888 11.5714 13.93L11.8264 13.7812L15.0567 16.969C15.2692 17.1815 15.5455 17.309 15.8642 17.309C16.1617 17.309 16.4593 17.1815 16.6718 16.969C16.8843 16.7565 17.0118 16.4802 17.0118 16.1614C17.0118 15.8426 16.8843 15.5876 16.6718 15.3539L13.5053 12.2299L13.7816 11.8261C14.5679 10.6573 14.9929 9.29719 14.9929 7.89459C14.9929 4.00557 11.8477 0.860352 7.95868 0.860352Z" fill="#E91E63"/>
<path d="M7.95869 4.5C7.15114 4.5 6.49234 5.1588 6.49234 5.96635C6.49234 6.77391 7.15114 7.4327 7.95869 7.4327C8.76625 7.4327 9.42505 6.77391 9.42505 5.96635C9.42505 5.1588 8.7875 4.5 7.95869 4.5Z" fill="#FCE8EF"/>
<path d="M9.31876 8.3623H6.59857C5.89728 8.3623 5.32349 8.93609 5.32349 9.63739V10.8275H10.6151V9.63739C10.6151 8.93609 10.0413 8.3623 9.31876 8.3623Z" fill="#FCE8EF"/>
</svg>
