<svg width="18" height="18" viewBox="0 0 18 18" fill="none" xmlns="http://www.w3.org/2000/svg">
<path fill-rule="evenodd" clip-rule="evenodd" d="M8.25 6C8.25 5.586 8.586 5.25 9 5.25C9.414 5.25 9.75 5.586 9.75 6C9.75 6.414 9.414 6.75 9 6.75C8.586 6.75 8.25 6.414 8.25 6ZM8.25 8.25C8.25 7.836 8.586 7.5 9 7.5C9.414 7.5 9.75 7.836 9.75 8.25V12C9.75 12.414 9.414 12.75 9 12.75C8.586 12.75 8.25 12.414 8.25 12V8.25ZM9 15C5.69175 15 3 12.3082 3 9C3 5.69175 5.69175 3 9 3C12.3082 3 15 5.69175 15 9C15 12.3082 12.3082 15 9 15ZM9 1.5C4.85775 1.5 1.5 4.85775 1.5 9C1.5 13.1423 4.85775 16.5 9 16.5C13.1415 16.5 16.5 13.1423 16.5 9C16.5 4.85775 13.1415 1.5 9 1.5Z" fill="#222B45"/>
<mask id="mask0_422_35911" style="mask-type:alpha" maskUnits="userSpaceOnUse" x="1" y="1" width="16" height="16">
<path fill-rule="evenodd" clip-rule="evenodd" d="M8.25 6C8.25 5.586 8.586 5.25 9 5.25C9.414 5.25 9.75 5.586 9.75 6C9.75 6.414 9.414 6.75 9 6.75C8.586 6.75 8.25 6.414 8.25 6ZM8.25 8.25C8.25 7.836 8.586 7.5 9 7.5C9.414 7.5 9.75 7.836 9.75 8.25V12C9.75 12.414 9.414 12.75 9 12.75C8.586 12.75 8.25 12.414 8.25 12V8.25ZM9 15C5.69175 15 3 12.3082 3 9C3 5.69175 5.69175 3 9 3C12.3082 3 15 5.69175 15 9C15 12.3082 12.3082 15 9 15ZM9 1.5C4.85775 1.5 1.5 4.85775 1.5 9C1.5 13.1423 4.85775 16.5 9 16.5C13.1415 16.5 16.5 13.1423 16.5 9C16.5 4.85775 13.1415 1.5 9 1.5Z" fill="white"/>
</mask>
<g mask="url(#mask0_422_35911)">
</g>
</svg>
