<svg width="14" height="14" viewBox="0 0 14 14" fill="none" xmlns="http://www.w3.org/2000/svg">
<path fill-rule="evenodd" clip-rule="evenodd" d="M8.9513 0.373248L13.7793 6.37325C14.0783 6.74425 14.0733 7.27425 13.7683 7.64025L8.7683 13.6402C8.5703 13.8772 8.2863 14.0002 7.9993 14.0002C7.7743 14.0002 7.5473 13.9242 7.3603 13.7682C6.9353 13.4152 6.8783 12.7842 7.2323 12.3602L11.7083 6.98925L7.3923 1.62725C7.0463 1.19725 7.1143 0.567248 7.5453 0.221248C7.9753 -0.125752 8.6043 -0.0567517 8.9513 0.373248ZM0.5452 0.221248C0.9752 -0.124752 1.6042 -0.0567517 1.9512 0.373248L6.7792 6.37325C7.0772 6.74425 7.0732 7.27425 6.7682 7.64025L1.7682 13.6402C1.5702 13.8772 1.2862 14.0002 0.9992 14.0002C0.7742 14.0002 0.5472 13.9242 0.3602 13.7682C-0.0647999 13.4152 -0.1218 12.7842 0.2322 12.3602L4.7072 6.98925L0.3922 1.62725C0.0462001 1.19725 0.1152 0.567248 0.5452 0.221248Z" fill="#7900D8"/>
</svg>
