<svg width="20" height="20" viewBox="0 0 20 20" fill="none" xmlns="http://www.w3.org/2000/svg">
<path fill-rule="evenodd" clip-rule="evenodd" d="M15.8333 9.16683H10.8333V4.16683C10.8333 3.706 10.4599 3.3335 9.99992 3.3335C9.53992 3.3335 9.16658 3.706 9.16658 4.16683V9.16683H4.16659C3.70659 9.16683 3.33325 9.53933 3.33325 10.0002C3.33325 10.461 3.70659 10.8335 4.16659 10.8335H9.16658V15.8335C9.16658 16.2943 9.53992 16.6668 9.99992 16.6668C10.4599 16.6668 10.8333 16.2943 10.8333 15.8335V10.8335H15.8333C16.2933 10.8335 16.6666 10.461 16.6666 10.0002C16.6666 9.53933 16.2933 9.16683 15.8333 9.16683Z" fill="white"/>
<mask id="mask0_4518_4418" style="mask-type:alpha" maskUnits="userSpaceOnUse" x="3" y="3" width="14" height="14">
<path fill-rule="evenodd" clip-rule="evenodd" d="M15.8333 9.16683H10.8333V4.16683C10.8333 3.706 10.4599 3.3335 9.99992 3.3335C9.53992 3.3335 9.16658 3.706 9.16658 4.16683V9.16683H4.16659C3.70659 9.16683 3.33325 9.53933 3.33325 10.0002C3.33325 10.461 3.70659 10.8335 4.16659 10.8335H9.16658V15.8335C9.16658 16.2943 9.53992 16.6668 9.99992 16.6668C10.4599 16.6668 10.8333 16.2943 10.8333 15.8335V10.8335H15.8333C16.2933 10.8335 16.6666 10.461 16.6666 10.0002C16.6666 9.53933 16.2933 9.16683 15.8333 9.16683Z" fill="white"/>
</mask>
<g mask="url(#mask0_4518_4418)">
</g>
</svg>
