<svg width="21" height="21" viewBox="0 0 21 21" fill="none" xmlns="http://www.w3.org/2000/svg">
<path fill-rule="evenodd" clip-rule="evenodd" d="M1.29675 13.2554L7.79381 19.7524C8.41527 20.3739 9.42284 20.3739 10.0443 19.7524L17.1884 12.6084C17.5306 12.2661 17.6985 11.7868 17.6446 11.3058L16.989 5.46428C16.9062 4.72582 16.3234 4.14297 15.5849 4.06017L9.74342 3.4046C9.26244 3.35067 8.78305 3.51856 8.44083 3.86081L1.29675 11.0049C0.998314 11.3033 0.830655 11.7081 0.830655 12.1301C0.830655 12.5522 0.998314 12.9569 1.29675 13.2554ZM14.4107 6.63845C14.8721 7.09981 14.8721 7.84783 14.4107 8.30919C13.9494 8.77056 13.2014 8.77056 12.74 8.30919C12.2786 7.84783 12.2786 7.09981 12.74 6.63845C13.2014 6.17709 13.9494 6.17709 14.4107 6.63845ZM10.6412 9.6497L10.4039 9.88698C9.60888 9.38062 8.76739 9.41976 8.19988 9.98728C7.48559 10.7016 7.80604 11.6238 8.16563 12.3478C8.4555 12.9484 8.49831 13.2529 8.29528 13.456C8.09224 13.659 7.76935 13.5807 7.433 13.2444C7.21198 13.0206 7.02933 12.7619 6.89239 12.4787C6.86289 12.4185 6.82363 12.3635 6.7762 12.316C6.58772 12.1275 6.29576 12.0898 6.06558 12.2243L6.02889 12.2463C5.75938 12.4078 5.66058 12.7501 5.80262 13.0303C5.95793 13.3305 6.14934 13.6107 6.37258 13.8645L6.14264 14.0944C5.93999 14.2971 5.93999 14.6256 6.14264 14.8283C6.34528 15.0309 6.67384 15.0309 6.87649 14.8283L7.15536 14.5494C7.96627 15.0888 8.87502 15.046 9.46578 14.4552C10.0565 13.8645 10.0969 13.1759 9.60766 12.1509C9.27864 11.4232 9.21994 11.1248 9.37894 10.9658C9.56118 10.7835 9.84004 10.852 10.1409 11.1529C10.319 11.33 10.4706 11.5318 10.591 11.7522C10.6188 11.8037 10.6543 11.8507 10.6962 11.8916C10.9086 12.0984 11.2406 12.1178 11.4758 11.9373C11.7109 11.7568 11.7779 11.4311 11.6331 11.1725C11.5058 10.9569 11.3575 10.7545 11.1903 10.5682L11.375 10.3836C11.5777 10.1809 11.5777 9.85235 11.375 9.6497C11.1724 9.44706 10.8438 9.44706 10.6412 9.6497Z" fill="#8BC34A"/>
</svg>
