<svg width="40" height="40" viewBox="0 0 40 40" fill="none" xmlns="http://www.w3.org/2000/svg">
<rect width="40" height="40" rx="4" fill="#EDF1F7"/>
<path fill-rule="evenodd" clip-rule="evenodd" d="M26.6667 23.6108C26.6667 23.9175 26.4292 24.1667 26.1359 24.1667H25.4167V22.5C25.4167 21.5808 24.6692 20.8333 23.7501 20.8333H16.2501C15.3309 20.8333 14.5834 21.5808 14.5834 22.5V24.1667H13.8642C13.5709 24.1667 13.3334 23.9175 13.3334 23.6108V18.0558C13.3334 17.7492 13.5709 17.5 13.8642 17.5H15.0001H16.6667H23.3334H25.0001H26.1359C26.4292 17.5 26.6667 17.7492 26.6667 18.0558V23.6108ZM16.2501 25.8333V22.5H23.7501L23.7517 25.8333H16.2501ZM16.6784 14.1667H23.3334V15.8333H16.6726L16.6784 14.1667ZM26.1359 15.8333H25.0001V14.1667C25.0001 13.2475 24.3151 12.5 23.4726 12.5H16.5276C15.6851 12.5 15.0001 13.2475 15.0001 14.1667V15.8333H13.8642C12.6526 15.8333 11.6667 16.83 11.6667 18.0558V23.6108C11.6667 24.8367 12.6526 25.8333 13.8642 25.8333H14.5834C14.5834 26.7525 15.3309 27.5 16.2501 27.5H23.7501C24.6692 27.5 25.4167 26.7525 25.4167 25.8333H26.1359C27.3476 25.8333 28.3334 24.8367 28.3334 23.6108V18.0558C28.3334 16.83 27.3476 15.8333 26.1359 15.8333Z" fill="#222B45"/>
<mask id="mask0_1429_45285" style="mask-type:alpha" maskUnits="userSpaceOnUse" x="11" y="12" width="18" height="16">
<path fill-rule="evenodd" clip-rule="evenodd" d="M26.6667 23.6108C26.6667 23.9175 26.4292 24.1667 26.1359 24.1667H25.4167V22.5C25.4167 21.5808 24.6692 20.8333 23.7501 20.8333H16.2501C15.3309 20.8333 14.5834 21.5808 14.5834 22.5V24.1667H13.8642C13.5709 24.1667 13.3334 23.9175 13.3334 23.6108V18.0558C13.3334 17.7492 13.5709 17.5 13.8642 17.5H15.0001H16.6667H23.3334H25.0001H26.1359C26.4292 17.5 26.6667 17.7492 26.6667 18.0558V23.6108ZM16.2501 25.8333V22.5H23.7501L23.7517 25.8333H16.2501ZM16.6784 14.1667H23.3334V15.8333H16.6726L16.6784 14.1667ZM26.1359 15.8333H25.0001V14.1667C25.0001 13.2475 24.3151 12.5 23.4726 12.5H16.5276C15.6851 12.5 15.0001 13.2475 15.0001 14.1667V15.8333H13.8642C12.6526 15.8333 11.6667 16.83 11.6667 18.0558V23.6108C11.6667 24.8367 12.6526 25.8333 13.8642 25.8333H14.5834C14.5834 26.7525 15.3309 27.5 16.2501 27.5H23.7501C24.6692 27.5 25.4167 26.7525 25.4167 25.8333H26.1359C27.3476 25.8333 28.3334 24.8367 28.3334 23.6108V18.0558C28.3334 16.83 27.3476 15.8333 26.1359 15.8333Z" fill="white"/>
</mask>
<g mask="url(#mask0_1429_45285)">
</g>
</svg>
