<svg width="20" height="20" viewBox="0 0 20 20" fill="none" xmlns="http://www.w3.org/2000/svg">
<path fill-rule="evenodd" clip-rule="evenodd" d="M9.47876 16.6667H10.5213V16.0275C10.5213 15.2483 11.0004 14.5483 11.7413 14.2425C12.5079 13.9233 13.3454 14.08 13.8971 14.635L14.3463 15.0858L15.0863 14.3458L14.6321 13.8925C14.0796 13.3408 13.9238 12.5042 14.2346 11.7617C14.2346 11.7617 14.2354 11.7608 14.2354 11.76L14.2446 11.7367C14.5479 11.0008 15.2488 10.5208 16.0279 10.5208H16.6663V9.47916H16.0279C15.2488 9.47916 14.5479 8.99999 14.2429 8.25916C13.9221 7.49249 14.0796 6.65499 14.6346 6.10249L15.0854 5.65332L14.3463 4.91416L13.8921 5.36832C13.3404 5.91999 12.5046 6.07582 11.7621 5.76582C11.0013 5.45166 10.5213 4.75166 10.5213 3.97249V3.33332H9.47876V3.97249C9.47876 4.75166 8.99959 5.45166 8.25876 5.75749C7.49293 6.07832 6.65543 5.92082 6.10293 5.36499L5.65376 4.91416L4.91376 5.65416L5.36793 6.10749C5.91959 6.65916 6.07626 7.49582 5.76543 8.23832C5.45209 8.99916 4.75126 9.47916 3.97209 9.47916H3.33293V10.5208H3.97209C4.75126 10.5208 5.45209 11 5.75709 11.7408C6.07793 12.5075 5.92043 13.345 5.36543 13.8975L4.91459 14.3467L5.65376 15.0858L6.10793 14.6317C6.65959 14.08 7.49543 13.9242 8.23793 14.2342C8.99876 14.5483 9.47876 15.2483 9.47876 16.0275V16.6667ZM10.7854 18.3333H9.20876C8.43876 18.3333 7.81209 17.7067 7.81209 16.9367V16.0275C7.81209 15.905 7.71459 15.8208 7.62293 15.7833C7.50293 15.7342 7.37459 15.7242 7.28626 15.81L6.64459 16.4525C6.09793 16.9975 5.20959 16.9992 4.66376 16.4525L3.54709 15.3358C3.28209 15.0708 3.13709 14.7192 3.13709 14.3442C3.13793 13.97 3.28376 13.6183 3.54959 13.3533L4.18959 12.7158C4.27709 12.6283 4.26793 12.5 4.22876 12.4075C4.17876 12.285 4.09543 12.1875 3.97209 12.1875H3.06876C2.29543 12.1875 1.66626 11.5592 1.66626 10.7858V9.20916C1.66626 8.43832 2.29293 7.81249 3.06376 7.81249H3.97209C4.09459 7.81249 4.17876 7.71416 4.21626 7.62249C4.26626 7.50249 4.27626 7.37332 4.18959 7.28666L3.54709 6.64499C3.00209 6.09749 3.00209 5.20916 3.54709 4.66416L4.66376 3.54749C4.92876 3.28249 5.27959 3.13749 5.65376 3.13749H5.65543C6.02959 3.13749 6.38209 3.28332 6.64626 3.54916L7.28376 4.18999C7.37126 4.27832 7.50043 4.26832 7.59293 4.22916C7.71459 4.17832 7.81209 4.09499 7.81209 3.97249V3.06916C7.81209 2.29582 8.44126 1.66666 9.21459 1.66666H10.7913C11.5613 1.66666 12.1879 2.29332 12.1879 3.06332V3.97249C12.1879 4.09499 12.2854 4.17916 12.3771 4.21666C12.4979 4.26666 12.6263 4.27749 12.7138 4.18999L13.3554 3.54749C13.9021 3.00249 14.7904 3.00082 15.3363 3.54749L16.4538 4.66499C16.7188 4.92916 16.8638 5.28082 16.8629 5.65582C16.8629 6.02916 16.7171 6.38166 16.4513 6.64582L15.8104 7.28416C15.7229 7.37166 15.7321 7.49999 15.7713 7.59249C15.8213 7.71499 15.9046 7.81249 16.0279 7.81249H16.9313C17.7046 7.81249 18.3329 8.44082 18.3329 9.21416V10.7908C18.3329 11.5617 17.7071 12.1875 16.9363 12.1875H16.0279C15.9054 12.1875 15.8213 12.2858 15.7838 12.3775C15.7829 12.3783 15.7729 12.4033 15.7721 12.405C15.7338 12.4975 15.7238 12.6267 15.8104 12.7133L16.4529 13.355C16.9979 13.9025 16.9979 14.7908 16.4529 15.3358L15.3363 16.4525C15.0713 16.7175 14.7204 16.8625 14.3463 16.8625H14.3446C13.9704 16.8625 13.6179 16.7167 13.3538 16.4508L12.7163 15.81C12.6288 15.7225 12.4988 15.7325 12.4071 15.7708C12.2854 15.8217 12.1879 15.905 12.1879 16.0275V16.9308C12.1879 17.7042 11.5588 18.3333 10.7854 18.3333ZM10 8.74999C9.31084 8.74999 8.75001 9.31082 8.75001 9.99999C8.75001 10.6892 9.31084 11.25 10 11.25C10.6892 11.25 11.25 10.6892 11.25 9.99999C11.25 9.31082 10.6892 8.74999 10 8.74999ZM10 12.9167C8.39168 12.9167 7.08334 11.6083 7.08334 9.99999C7.08334 8.39166 8.39168 7.08332 10 7.08332C11.6083 7.08332 12.9167 8.39166 12.9167 9.99999C12.9167 11.6083 11.6083 12.9167 10 12.9167Z" fill="#222B45"/>
<mask id="mask0_347_37351" style="mask-type:alpha" maskUnits="userSpaceOnUse" x="1" y="1" width="18" height="18">
<path fill-rule="evenodd" clip-rule="evenodd" d="M9.47876 16.6667H10.5213V16.0275C10.5213 15.2483 11.0004 14.5483 11.7413 14.2425C12.5079 13.9233 13.3454 14.08 13.8971 14.635L14.3463 15.0858L15.0863 14.3458L14.6321 13.8925C14.0796 13.3408 13.9238 12.5042 14.2346 11.7617C14.2346 11.7617 14.2354 11.7608 14.2354 11.76L14.2446 11.7367C14.5479 11.0008 15.2488 10.5208 16.0279 10.5208H16.6663V9.47916H16.0279C15.2488 9.47916 14.5479 8.99999 14.2429 8.25916C13.9221 7.49249 14.0796 6.65499 14.6346 6.10249L15.0854 5.65332L14.3463 4.91416L13.8921 5.36832C13.3404 5.91999 12.5046 6.07582 11.7621 5.76582C11.0013 5.45166 10.5213 4.75166 10.5213 3.97249V3.33332H9.47876V3.97249C9.47876 4.75166 8.99959 5.45166 8.25876 5.75749C7.49293 6.07832 6.65543 5.92082 6.10293 5.36499L5.65376 4.91416L4.91376 5.65416L5.36793 6.10749C5.91959 6.65916 6.07626 7.49582 5.76543 8.23832C5.45209 8.99916 4.75126 9.47916 3.97209 9.47916H3.33293V10.5208H3.97209C4.75126 10.5208 5.45209 11 5.75709 11.7408C6.07793 12.5075 5.92043 13.345 5.36543 13.8975L4.91459 14.3467L5.65376 15.0858L6.10793 14.6317C6.65959 14.08 7.49543 13.9242 8.23793 14.2342C8.99876 14.5483 9.47876 15.2483 9.47876 16.0275V16.6667ZM10.7854 18.3333H9.20876C8.43876 18.3333 7.81209 17.7067 7.81209 16.9367V16.0275C7.81209 15.905 7.71459 15.8208 7.62293 15.7833C7.50293 15.7342 7.37459 15.7242 7.28626 15.81L6.64459 16.4525C6.09793 16.9975 5.20959 16.9992 4.66376 16.4525L3.54709 15.3358C3.28209 15.0708 3.13709 14.7192 3.13709 14.3442C3.13793 13.97 3.28376 13.6183 3.54959 13.3533L4.18959 12.7158C4.27709 12.6283 4.26793 12.5 4.22876 12.4075C4.17876 12.285 4.09543 12.1875 3.97209 12.1875H3.06876C2.29543 12.1875 1.66626 11.5592 1.66626 10.7858V9.20916C1.66626 8.43832 2.29293 7.81249 3.06376 7.81249H3.97209C4.09459 7.81249 4.17876 7.71416 4.21626 7.62249C4.26626 7.50249 4.27626 7.37332 4.18959 7.28666L3.54709 6.64499C3.00209 6.09749 3.00209 5.20916 3.54709 4.66416L4.66376 3.54749C4.92876 3.28249 5.27959 3.13749 5.65376 3.13749H5.65543C6.02959 3.13749 6.38209 3.28332 6.64626 3.54916L7.28376 4.18999C7.37126 4.27832 7.50043 4.26832 7.59293 4.22916C7.71459 4.17832 7.81209 4.09499 7.81209 3.97249V3.06916C7.81209 2.29582 8.44126 1.66666 9.21459 1.66666H10.7913C11.5613 1.66666 12.1879 2.29332 12.1879 3.06332V3.97249C12.1879 4.09499 12.2854 4.17916 12.3771 4.21666C12.4979 4.26666 12.6263 4.27749 12.7138 4.18999L13.3554 3.54749C13.9021 3.00249 14.7904 3.00082 15.3363 3.54749L16.4538 4.66499C16.7188 4.92916 16.8638 5.28082 16.8629 5.65582C16.8629 6.02916 16.7171 6.38166 16.4513 6.64582L15.8104 7.28416C15.7229 7.37166 15.7321 7.49999 15.7713 7.59249C15.8213 7.71499 15.9046 7.81249 16.0279 7.81249H16.9313C17.7046 7.81249 18.3329 8.44082 18.3329 9.21416V10.7908C18.3329 11.5617 17.7071 12.1875 16.9363 12.1875H16.0279C15.9054 12.1875 15.8213 12.2858 15.7838 12.3775C15.7829 12.3783 15.7729 12.4033 15.7721 12.405C15.7338 12.4975 15.7238 12.6267 15.8104 12.7133L16.4529 13.355C16.9979 13.9025 16.9979 14.7908 16.4529 15.3358L15.3363 16.4525C15.0713 16.7175 14.7204 16.8625 14.3463 16.8625H14.3446C13.9704 16.8625 13.6179 16.7167 13.3538 16.4508L12.7163 15.81C12.6288 15.7225 12.4988 15.7325 12.4071 15.7708C12.2854 15.8217 12.1879 15.905 12.1879 16.0275V16.9308C12.1879 17.7042 11.5588 18.3333 10.7854 18.3333ZM10 8.74999C9.31084 8.74999 8.75001 9.31082 8.75001 9.99999C8.75001 10.6892 9.31084 11.25 10 11.25C10.6892 11.25 11.25 10.6892 11.25 9.99999C11.25 9.31082 10.6892 8.74999 10 8.74999ZM10 12.9167C8.39168 12.9167 7.08334 11.6083 7.08334 9.99999C7.08334 8.39166 8.39168 7.08332 10 7.08332C11.6083 7.08332 12.9167 8.39166 12.9167 9.99999C12.9167 11.6083 11.6083 12.9167 10 12.9167Z" fill="white"/>
</mask>
<g mask="url(#mask0_347_37351)">
</g>
</svg>
