<svg width="18" height="18" viewBox="0 0 18 18" fill="none" xmlns="http://www.w3.org/2000/svg">
<path fill-rule="evenodd" clip-rule="evenodd" d="M16.66 3.11935C16.7725 3.14322 16.868 3.22162 16.9089 3.33071C17.4816 4.79653 17.1373 6.46006 16.0226 7.57136C15.2794 8.3179 14.284 8.73038 13.2273 8.73038C12.8114 8.73038 12.4023 8.66561 12.0069 8.53607L4.99482 16.3833C4.54144 16.8912 3.89034 17.181 3.21197 17.181C2.5711 17.181 1.97114 16.9321 1.52117 16.4788C1.05074 16.0117 0.801892 15.3845 0.818936 14.7232C0.839389 14.0585 1.12233 13.4483 1.61661 13.0051L9.46386 5.99304C9.00707 4.58517 9.37523 3.03072 10.4286 1.97738C11.1751 1.23083 12.1671 0.818359 13.2239 0.818359C13.7216 0.818359 14.209 0.910399 14.6692 1.09107C14.7783 1.13198 14.8567 1.22743 14.8806 1.33992C14.901 1.45241 14.867 1.56831 14.7851 1.65013L12.7262 3.70909L14.2908 5.27377L16.3498 3.2148C16.4316 3.13299 16.551 3.09549 16.66 3.11935ZM2.54383 15.4595C2.74495 15.6572 3.01084 15.7697 3.29378 15.7697C3.58013 15.7697 3.84602 15.6572 4.04714 15.4561C4.46303 15.0436 4.46303 14.3687 4.04714 13.9528C3.6449 13.5505 2.94608 13.5505 2.54042 13.9528C2.12794 14.3687 2.12794 15.0436 2.54383 15.4595Z" fill="#2196F3"/>
</svg>
