<svg width="16" height="14" viewBox="0 0 16 14" fill="none" xmlns="http://www.w3.org/2000/svg">
<path fill-rule="evenodd" clip-rule="evenodd" d="M5.82105 3.81662C7.26317 3.83982 9.51333 3.87602 14.3019 0.559072C14.3019 0.559072 15.3727 0.106208 15.3727 1.62925V4.39819V6.12639V6.68766V7.36184V11.4456C15.3727 12.968 14.3019 12.5162 14.3019 12.5162C12.72 11.42 11.4364 10.6935 10.2877 10.2103V13.6005C10.2877 13.811 10.1169 13.9815 9.90664 13.9815H8.12014C7.90946 13.9815 7.73907 13.811 7.73907 13.6005V9.41998C6.82673 9.25335 6.22354 9.2589 5.76763 9.2631C5.61577 9.2645 5.48025 9.26575 5.35509 9.26044H5.06096C4.73757 9.26044 4.47534 8.99862 4.47534 8.67503V4.39982C4.47534 4.07644 4.73757 3.81421 5.06096 3.81421H5.35509C5.50156 3.81148 5.65601 3.81396 5.82105 3.81662ZM2.85473 4.15825H2.80543C2.81055 4.15825 2.81565 4.15833 2.82074 4.15848C1.51018 4.17551 0.40918 5.17637 0.40918 6.49048C0.40918 7.80532 1.51037 8.8726 2.82108 8.89059C2.81588 8.89075 2.81067 8.89082 2.80543 8.89082C2.80543 8.89082 2.75143 8.90494 2.85473 8.89082C2.8435 8.89082 2.83228 8.89075 2.82108 8.89059C3.10143 8.88231 3.326 8.6524 3.326 8.36985V4.67923C3.326 4.39656 3.10124 4.16658 2.82074 4.15848C2.83205 4.15833 2.84338 4.15825 2.85473 4.15825Z" fill="#FF9800"/>
</svg>
