<svg width="18" height="18" viewBox="0 0 18 18" fill="none" xmlns="http://www.w3.org/2000/svg">
<path fill-rule="evenodd" clip-rule="evenodd" d="M17.9328 8.64413L15.241 3.33633C15.1462 3.14677 14.9756 3.03303 14.7671 3.01407L11.1274 3.03303C10.9568 2.5212 10.5966 2.08521 10.1038 1.81982V1.11843C10.1038 0.511823 9.6109 0 8.98534 0C8.35978 0 7.86691 0.492867 7.86691 1.11843V1.81982C7.393 2.08521 7.03283 2.5212 6.86222 3.03303L3.22259 3.01407C3.03303 3.03303 2.84346 3.14677 2.74868 3.33633L0.0758257 8.64413C0 8.79578 -0.0189564 8.98534 0.0189564 9.15595C0.47391 10.8052 1.74399 11.8667 3.2605 11.8667C4.77702 11.8667 6.0471 10.8052 6.50205 9.15595C6.53996 8.98534 6.52101 8.81473 6.44518 8.64413L4.35998 4.51163L6.86222 4.53058C7.05179 5.04241 7.393 5.45945 7.86691 5.72484V12.8335C7.86691 14.1604 6.86222 15.2789 5.53527 15.4116L3.50694 15.639C3.27946 15.658 3.10885 15.8665 3.10885 16.094V17.1176C3.10885 17.3641 3.31737 17.5726 3.56381 17.5726H14.4827C14.7291 17.5726 14.9377 17.3641 14.9377 17.1176V16.094C14.9377 15.8665 14.7671 15.677 14.5396 15.639L12.4354 15.4116C11.1085 15.2599 10.1038 14.1604 10.1038 12.8335V5.72484C10.5777 5.45945 10.9189 5.04241 11.1085 4.53058L13.6107 4.51163L11.5255 8.64413C11.4497 8.79578 11.4307 8.98534 11.4686 9.15595C11.9236 10.8052 13.1937 11.8667 14.7102 11.8667C16.2267 11.8667 17.4968 10.8052 17.9517 9.15595C18.0276 8.98534 18.0086 8.81473 17.9328 8.64413ZM5.00449 7.92378H1.53547L3.27946 4.49267L5.00449 7.92378ZM14.7481 4.49267L13.0041 7.92378H16.4921L14.7481 4.49267Z" fill="#00BCD4"/>
</svg>
