<svg width="24" height="24" viewBox="0 0 24 24" fill="none" xmlns="http://www.w3.org/2000/svg">
<g id="27) Icon/activity">
<path id="&#240;&#159;&#142;&#168; Icon &#208;&#161;olor" fill-rule="evenodd" clip-rule="evenodd" d="M14.3291 20.0005C14.2621 20.0005 14.1931 19.9975 14.1241 19.9905C13.2441 19.9035 12.5541 19.2825 12.3641 18.4075L9.68109 6.0155L6.91809 12.3975C6.75909 12.7635 6.39809 13.0005 6.00009 13.0005H3.00009C2.44709 13.0005 2.00009 12.5525 2.00009 12.0005C2.00009 11.4475 2.44709 11.0005 3.00009 11.0005H5.34409L7.85009 5.2115C8.20509 4.3955 8.98709 3.9205 9.87609 4.0095C10.7561 4.0965 11.4461 4.7175 11.6361 5.5925L14.3191 17.9845L17.0821 11.6025C17.2411 11.2365 17.6011 11.0005 18.0001 11.0005H21.0001C21.5531 11.0005 22.0001 11.4475 22.0001 12.0005C22.0001 12.5525 21.5531 13.0005 21.0001 13.0005H18.6561L16.1501 18.7885C15.8231 19.5415 15.1221 20.0005 14.3291 20.0005Z" fill="#222B45"/>
<mask id="mask0" mask-type="alpha" maskUnits="userSpaceOnUse" x="2" y="3" width="20" height="18">
<path id="&#240;&#159;&#142;&#168; Icon &#208;&#161;olor_2" fill-rule="evenodd" clip-rule="evenodd" d="M14.3291 20.0005C14.2621 20.0005 14.1931 19.9975 14.1241 19.9905C13.2441 19.9035 12.5541 19.2825 12.3641 18.4075L9.68109 6.0155L6.91809 12.3975C6.75909 12.7635 6.39809 13.0005 6.00009 13.0005H3.00009C2.44709 13.0005 2.00009 12.5525 2.00009 12.0005C2.00009 11.4475 2.44709 11.0005 3.00009 11.0005H5.34409L7.85009 5.2115C8.20509 4.3955 8.98709 3.9205 9.87609 4.0095C10.7561 4.0965 11.4461 4.7175 11.6361 5.5925L14.3191 17.9845L17.0821 11.6025C17.2411 11.2365 17.6011 11.0005 18.0001 11.0005H21.0001C21.5531 11.0005 22.0001 11.4475 22.0001 12.0005C22.0001 12.5525 21.5531 13.0005 21.0001 13.0005H18.6561L16.1501 18.7885C15.8231 19.5415 15.1221 20.0005 14.3291 20.0005Z" fill="white"/>
</mask>
<g mask="url(#mask0)">
</g>
</g>
</svg>
