<svg width="24" height="24" viewBox="0 0 24 24" fill="none" xmlns="http://www.w3.org/2000/svg">
<g id="27) Icon/arrowhead-down">
<path id="&#240;&#159;&#142;&#168; Icon &#208;&#161;olor" fill-rule="evenodd" clip-rule="evenodd" d="M11.9999 12.0001C11.7729 12.0001 11.5449 11.9231 11.3599 11.7681L5.35991 6.7681C4.93591 6.4141 4.87891 5.7841 5.23191 5.3601C5.58591 4.9351 6.21491 4.8791 6.63991 5.2321L12.0109 9.7071L17.3729 5.3931C17.8029 5.0471 18.4339 5.1151 18.7789 5.5451C19.1259 5.9751 19.0569 6.6041 18.6269 6.9511L12.6269 11.7791C12.4439 11.9261 12.2219 12.0001 11.9999 12.0001ZM12.011 16.7076L17.373 12.3926C17.803 12.0476 18.434 12.1156 18.779 12.5446C19.125 12.9756 19.057 13.6046 18.627 13.9516L12.627 18.7796C12.444 18.9266 12.222 18.9996 12 18.9996C11.772 18.9996 11.545 18.9226 11.36 18.7676L5.36001 13.7676C4.93501 13.4146 4.87801 12.7846 5.23201 12.3596C5.58501 11.9356 6.21501 11.8776 6.64001 12.2316L12.011 16.7076Z" fill="#222B45"/>
<mask id="mask0" mask-type="alpha" maskUnits="userSpaceOnUse" x="4" y="5" width="16" height="14">
<path id="&#240;&#159;&#142;&#168; Icon &#208;&#161;olor_2" fill-rule="evenodd" clip-rule="evenodd" d="M11.9999 12.0001C11.7729 12.0001 11.5449 11.9231 11.3599 11.7681L5.35991 6.7681C4.93591 6.4141 4.87891 5.7841 5.23191 5.3601C5.58591 4.9351 6.21491 4.8791 6.63991 5.2321L12.0109 9.7071L17.3729 5.3931C17.8029 5.0471 18.4339 5.1151 18.7789 5.5451C19.1259 5.9751 19.0569 6.6041 18.6269 6.9511L12.6269 11.7791C12.4439 11.9261 12.2219 12.0001 11.9999 12.0001ZM12.011 16.7076L17.373 12.3926C17.803 12.0476 18.434 12.1156 18.779 12.5446C19.125 12.9756 19.057 13.6046 18.627 13.9516L12.627 18.7796C12.444 18.9266 12.222 18.9996 12 18.9996C11.772 18.9996 11.545 18.9226 11.36 18.7676L5.36001 13.7676C4.93501 13.4146 4.87801 12.7846 5.23201 12.3596C5.58501 11.9356 6.21501 11.8776 6.64001 12.2316L12.011 16.7076Z" fill="white"/>
</mask>
<g mask="url(#mask0)">
</g>
</g>
</svg>
