<svg width="24" height="24" viewBox="0 0 24 24" fill="none" xmlns="http://www.w3.org/2000/svg">
<g id="27) Icon/bell-off">
<path id="&#240;&#159;&#142;&#168; Icon &#208;&#161;olor" fill-rule="evenodd" clip-rule="evenodd" d="M20.7074 19.2921L19.4074 17.9921L17.4144 15.9991L7.8864 6.4701L6.4204 5.0051L4.7074 3.2921C4.3164 2.9011 3.6844 2.9011 3.2934 3.2921C2.9024 3.6831 2.9024 4.3151 3.2934 4.7061L5.5314 6.9451L7.2834 8.6961L14.5864 15.9991L14.6554 16.0681L16.0004 17.4131L16.5864 17.9991L19.2934 20.7061C19.4884 20.9011 19.7444 20.9991 20.0004 20.9991C20.2564 20.9991 20.5124 20.9011 20.7074 20.7061C21.0984 20.3151 21.0984 19.6831 20.7074 19.2921ZM14.0004 18.3401V17.9991H10.0004V18.3401C10.0004 19.2391 10.9164 19.9991 12.0004 19.9991C13.0844 19.9991 14.0004 19.2391 14.0004 18.3401ZM15.1724 17.9991L15.9514 18.7791C15.7124 20.5881 14.0424 21.9991 12.0004 21.9991C9.7944 21.9991 8.0004 20.3581 8.0004 18.3401V17.9991H4.6374C3.9734 17.9991 3.3804 17.6031 3.1254 16.9891C2.8714 16.3761 3.0104 15.6771 3.4784 15.2071L5.2794 13.4031L5.2804 8.7261C5.2804 8.5291 5.2954 8.3341 5.3114 8.1391L7.2804 10.1071V13.4031C7.2804 13.9371 7.0724 14.4391 6.6944 14.8171L5.5154 15.9991H13.1724L14.0294 16.8561L15.1724 17.9991ZM8.4684 5.6391L7.0354 4.2061C7.2074 4.0171 7.3894 3.8361 7.5834 3.6661C9.0394 2.3901 10.9764 1.8031 12.8994 2.0591C16.2184 2.4981 18.7204 5.4551 18.7204 8.9361V13.4031L20.5204 15.2071C20.9894 15.6761 21.1284 16.3761 20.8734 16.9901C20.7724 17.2321 20.6094 17.4271 20.4204 17.5901L16.8154 13.9861C16.7594 13.7991 16.7204 13.6051 16.7204 13.4031V8.9361C16.7204 6.4541 14.9654 4.3501 12.6384 4.0411C11.2624 3.8601 9.9384 4.2601 8.9004 5.1701C8.7384 5.3121 8.6074 5.4791 8.4684 5.6391Z" fill="#222B45"/>
</g>
</svg>
