<svg width="24" height="24" viewBox="0 0 24 24" fill="none" xmlns="http://www.w3.org/2000/svg">
<g id="27) Icon/bluetooth">
<path id="&#240;&#159;&#142;&#168; Icon &#208;&#161;olor" fill-rule="evenodd" clip-rule="evenodd" d="M13 18.2495V14.1785L15.467 16.5575L13 18.2495ZM13 5.76049L15.497 7.49349L13 9.8505V5.76049ZM13.629 12.0065L17.644 8.2165C17.895 7.9785 18.023 7.64649 17.997 7.30449C17.97 6.96149 17.792 6.65149 17.507 6.45449L12.833 3.2105C12.474 2.9585 12.008 2.9305 11.618 3.1335C11.237 3.3325 11 3.7205 11 4.1455V10.3515L7.80701 6.3745C7.46001 5.9425 6.83201 5.8745 6.40101 6.22049C5.97001 6.5655 5.90101 7.1955 6.24701 7.62549L9.72101 11.9525L6.21601 16.3795C5.87301 16.8125 5.94601 17.4405 6.37901 17.7845C6.56301 17.9295 6.78201 17.9995 7.00001 17.9995C7.29401 17.9995 7.58601 17.8705 7.78401 17.6205L11 13.5595V19.8535C11 20.2775 11.235 20.6645 11.613 20.8645C11.787 20.9555 11.975 21.0005 12.163 21.0005C12.395 21.0005 12.626 20.9315 12.827 20.7945L17.469 17.6085C17.754 17.4125 17.934 17.1035 17.961 16.7615C17.989 16.4205 17.863 16.0885 17.616 15.8515L13.629 12.0065Z" fill="#222B45"/>
<mask id="mask0" mask-type="alpha" maskUnits="userSpaceOnUse" x="5" y="2" width="14" height="20">
<path id="&#240;&#159;&#142;&#168; Icon &#208;&#161;olor_2" fill-rule="evenodd" clip-rule="evenodd" d="M13 18.2495V14.1785L15.467 16.5575L13 18.2495ZM13 5.76049L15.497 7.49349L13 9.8505V5.76049ZM13.629 12.0065L17.644 8.2165C17.895 7.9785 18.023 7.64649 17.997 7.30449C17.97 6.96149 17.792 6.65149 17.507 6.45449L12.833 3.2105C12.474 2.9585 12.008 2.9305 11.618 3.1335C11.237 3.3325 11 3.7205 11 4.1455V10.3515L7.80701 6.3745C7.46001 5.9425 6.83201 5.8745 6.40101 6.22049C5.97001 6.5655 5.90101 7.1955 6.24701 7.62549L9.72101 11.9525L6.21601 16.3795C5.87301 16.8125 5.94601 17.4405 6.37901 17.7845C6.56301 17.9295 6.78201 17.9995 7.00001 17.9995C7.29401 17.9995 7.58601 17.8705 7.78401 17.6205L11 13.5595V19.8535C11 20.2775 11.235 20.6645 11.613 20.8645C11.787 20.9555 11.975 21.0005 12.163 21.0005C12.395 21.0005 12.626 20.9315 12.827 20.7945L17.469 17.6085C17.754 17.4125 17.934 17.1035 17.961 16.7615C17.989 16.4205 17.863 16.0885 17.616 15.8515L13.629 12.0065Z" fill="white"/>
</mask>
<g mask="url(#mask0)">
</g>
</g>
</svg>
