<svg width="24" height="24" viewBox="0 0 24 24" fill="none" xmlns="http://www.w3.org/2000/svg">
<g id="27) Icon/book-open">
<path id="&#240;&#159;&#142;&#168; Icon &#208;&#161;olor" fill-rule="evenodd" clip-rule="evenodd" d="M19 16.4023L13 17.7503V7.59729L19 6.25029V16.4023ZM5 6.25029L11 7.59729V17.7503L5 16.4023V6.25029ZM20.625 4.21829C20.387 4.02929 20.077 3.95729 19.78 4.02429L12 5.77229L4.22 4.02429C3.922 3.95629 3.613 4.02929 3.375 4.21829C3.138 4.40929 3 4.69629 3 5.00029V17.2023C3 17.6703 3.324 18.0753 3.78 18.1773L11.78 19.9753C11.854 19.9923 11.927 20.0003 12 20.0003C12.073 20.0003 12.146 19.9923 12.22 19.9753L20.22 18.1773C20.676 18.0753 21 17.6703 21 17.2023V5.00029C21 4.69629 20.862 4.40929 20.625 4.21829Z" fill="#222B45"/>
<mask id="mask0" mask-type="alpha" maskUnits="userSpaceOnUse" x="3" y="3" width="18" height="18">
<path id="&#240;&#159;&#142;&#168; Icon &#208;&#161;olor_2" fill-rule="evenodd" clip-rule="evenodd" d="M19 16.4023L13 17.7503V7.59729L19 6.25029V16.4023ZM5 6.25029L11 7.59729V17.7503L5 16.4023V6.25029ZM20.625 4.21829C20.387 4.02929 20.077 3.95729 19.78 4.02429L12 5.77229L4.22 4.02429C3.922 3.95629 3.613 4.02929 3.375 4.21829C3.138 4.40929 3 4.69629 3 5.00029V17.2023C3 17.6703 3.324 18.0753 3.78 18.1773L11.78 19.9753C11.854 19.9923 11.927 20.0003 12 20.0003C12.073 20.0003 12.146 19.9923 12.22 19.9753L20.22 18.1773C20.676 18.0753 21 17.6703 21 17.2023V5.00029C21 4.69629 20.862 4.40929 20.625 4.21829Z" fill="white"/>
</mask>
<g mask="url(#mask0)">
</g>
</g>
</svg>
