<svg width="24" height="24" viewBox="0 0 24 24" fill="none" xmlns="http://www.w3.org/2000/svg">
<g id="27) Icon/brush-fill">
<path id="&#240;&#159;&#142;&#168; Icon &#208;&#161;olor" fill-rule="evenodd" clip-rule="evenodd" d="M16.3757 4.66791C17.1527 3.89091 18.4227 3.75291 19.2617 4.46091C19.7547 4.87791 20.0077 5.46291 19.9997 6.05691C20.0067 6.59391 19.8017 7.12291 19.3977 7.52691L12.9127 14.0179C12.7297 14.2019 12.4317 14.2019 12.2477 14.0179L9.97472 11.7429C9.79072 11.5589 9.79072 11.2599 9.97472 11.0759L16.3757 4.66791ZM4.05402 16.4139C4.08602 14.5779 5.32902 12.9179 7.12402 12.5479C10.047 11.9449 12.462 14.7419 11.167 17.7379C10.583 19.0879 9.19602 19.9149 7.72702 19.9409H7.72502L4.47902 19.9999C4.21302 20.0049 3.99502 19.7869 4.00002 19.5209L4.05402 16.4139Z" fill="#222B45"/>
<mask id="mask0" mask-type="alpha" maskUnits="userSpaceOnUse" x="4" y="4" width="16" height="16">
<path id="&#240;&#159;&#142;&#168; Icon &#208;&#161;olor_2" fill-rule="evenodd" clip-rule="evenodd" d="M16.3757 4.66791C17.1527 3.89091 18.4227 3.75291 19.2617 4.46091C19.7547 4.87791 20.0077 5.46291 19.9997 6.05691C20.0067 6.59391 19.8017 7.12291 19.3977 7.52691L12.9127 14.0179C12.7297 14.2019 12.4317 14.2019 12.2477 14.0179L9.97472 11.7429C9.79072 11.5589 9.79072 11.2599 9.97472 11.0759L16.3757 4.66791ZM4.05402 16.4139C4.08602 14.5779 5.32902 12.9179 7.12402 12.5479C10.047 11.9449 12.462 14.7419 11.167 17.7379C10.583 19.0879 9.19602 19.9149 7.72702 19.9409H7.72502L4.47902 19.9999C4.21302 20.0049 3.99502 19.7869 4.00002 19.5209L4.05402 16.4139Z" fill="white"/>
</mask>
<g mask="url(#mask0)">
</g>
</g>
</svg>
