<svg width="24" height="24" viewBox="0 0 24 24" fill="none" xmlns="http://www.w3.org/2000/svg">
<g id="27) Icon/checkmark-circle-2">
<path id="&#240;&#159;&#142;&#168; Icon &#208;&#161;olor" fill-rule="evenodd" clip-rule="evenodd" d="M20.997 10.9741H21C21.551 10.9741 21.999 11.4201 22 11.9711C22.008 14.6421 20.975 17.1571 19.091 19.0511C17.208 20.9451 14.7 21.9921 12.029 22.0001H12C9.339 22.0001 6.836 20.9681 4.949 19.0911C3.055 17.2081 2.008 14.7001 2 12.0291C1.992 9.3571 3.025 6.8431 4.909 4.9491C6.792 3.0551 9.3 2.0081 11.971 2.0001C12.766 2.0121 13.576 2.0921 14.352 2.2781C14.888 2.4081 15.219 2.9481 15.089 3.4851C14.96 4.0211 14.417 4.3511 13.883 4.2231C13.262 4.0731 12.603 4.0101 11.977 4.0001C9.84 4.0061 7.833 4.8441 6.327 6.3591C4.82 7.8741 3.994 9.8861 4 12.0231C4.006 14.1601 4.844 16.1661 6.359 17.6731C7.869 19.1741 9.871 20.0001 12 20.0001H12.023C14.16 19.9941 16.167 19.1561 17.673 17.6411C19.18 16.1251 20.006 14.1141 20 11.9771C19.999 11.4251 20.445 10.9751 20.997 10.9741ZM8.293 11.293C8.684 10.902 9.316 10.902 9.707 11.293L11.951 13.537L18.248 6.341C18.612 5.928 19.243 5.884 19.659 6.248C20.074 6.611 20.116 7.243 19.752 7.659L12.752 15.659C12.57 15.867 12.31 15.99 12.033 16H12C11.735 16 11.481 15.895 11.293 15.707L8.293 12.707C7.902 12.316 7.902 11.684 8.293 11.293Z" fill="#222B45"/>
<mask id="mask0" mask-type="alpha" maskUnits="userSpaceOnUse" x="2" y="2" width="20" height="20">
<path id="&#240;&#159;&#142;&#168; Icon &#208;&#161;olor_2" fill-rule="evenodd" clip-rule="evenodd" d="M20.997 10.9741H21C21.551 10.9741 21.999 11.4201 22 11.9711C22.008 14.6421 20.975 17.1571 19.091 19.0511C17.208 20.9451 14.7 21.9921 12.029 22.0001H12C9.339 22.0001 6.836 20.9681 4.949 19.0911C3.055 17.2081 2.008 14.7001 2 12.0291C1.992 9.3571 3.025 6.8431 4.909 4.9491C6.792 3.0551 9.3 2.0081 11.971 2.0001C12.766 2.0121 13.576 2.0921 14.352 2.2781C14.888 2.4081 15.219 2.9481 15.089 3.4851C14.96 4.0211 14.417 4.3511 13.883 4.2231C13.262 4.0731 12.603 4.0101 11.977 4.0001C9.84 4.0061 7.833 4.8441 6.327 6.3591C4.82 7.8741 3.994 9.8861 4 12.0231C4.006 14.1601 4.844 16.1661 6.359 17.6731C7.869 19.1741 9.871 20.0001 12 20.0001H12.023C14.16 19.9941 16.167 19.1561 17.673 17.6411C19.18 16.1251 20.006 14.1141 20 11.9771C19.999 11.4251 20.445 10.9751 20.997 10.9741ZM8.293 11.293C8.684 10.902 9.316 10.902 9.707 11.293L11.951 13.537L18.248 6.341C18.612 5.928 19.243 5.884 19.659 6.248C20.074 6.611 20.116 7.243 19.752 7.659L12.752 15.659C12.57 15.867 12.31 15.99 12.033 16H12C11.735 16 11.481 15.895 11.293 15.707L8.293 12.707C7.902 12.316 7.902 11.684 8.293 11.293Z" fill="white"/>
</mask>
<g mask="url(#mask0)">
</g>
</g>
</svg>
