<svg width="24" height="24" viewBox="0 0 24 24" fill="none" xmlns="http://www.w3.org/2000/svg">
<g id="27) Icon/chevron-up">
<path id="&#240;&#159;&#142;&#168; Icon &#208;&#161;olor" fill-rule="evenodd" clip-rule="evenodd" d="M16 14.5C15.744 14.5 15.488 14.402 15.293 14.207L11.988 10.902L8.69501 14.082C8.29701 14.466 7.66501 14.456 7.28101 14.057C6.89701 13.66 6.90801 13.026 7.30501 12.643L11.305 8.78097C11.698 8.40197 12.322 8.40697 12.707 8.79297L16.707 12.793C17.098 13.184 17.098 13.816 16.707 14.207C16.512 14.402 16.256 14.5 16 14.5Z" fill="#222B45"/>
<mask id="mask0" mask-type="alpha" maskUnits="userSpaceOnUse" x="7" y="8" width="11" height="7">
<path id="&#240;&#159;&#142;&#168; Icon &#208;&#161;olor_2" fill-rule="evenodd" clip-rule="evenodd" d="M16 14.5C15.744 14.5 15.488 14.402 15.293 14.207L11.988 10.902L8.69501 14.082C8.29701 14.466 7.66501 14.456 7.28101 14.057C6.89701 13.66 6.90801 13.026 7.30501 12.643L11.305 8.78097C11.698 8.40197 12.322 8.40697 12.707 8.79297L16.707 12.793C17.098 13.184 17.098 13.816 16.707 14.207C16.512 14.402 16.256 14.5 16 14.5Z" fill="white"/>
</mask>
<g mask="url(#mask0)">
</g>
</g>
</svg>
