<svg width="14" height="20" viewBox="0 0 14 20" fill="none" xmlns="http://www.w3.org/2000/svg">
<path fill-rule="evenodd" clip-rule="evenodd" d="M12.943 2.81993H10.5739V2.49028C10.5739 2.15141 10.3042 1.87664 9.97147 1.87664H8.99959C8.74045 1.00203 7.94205 0.363281 6.99998 0.363281C6.05791 0.363281 5.25951 1.00203 5.00037 1.87671H4.0285C3.69582 1.87671 3.42607 2.15145 3.42607 2.49036V2.82001H1.05697C0.724295 2.82001 0.454544 3.09474 0.454544 3.43365V18.5678C0.454544 18.9067 0.724259 19.1815 1.05697 19.1815H12.943C13.2757 19.1815 13.5455 18.9067 13.5455 18.5678V3.43358C13.5454 3.09471 13.2757 2.81993 12.943 2.81993ZM4.63093 3.10397H5.51422C5.8469 3.10397 6.11665 2.82923 6.11665 2.49032C6.11665 1.99417 6.51291 1.59054 6.99998 1.59054C7.48706 1.59054 7.88331 1.99417 7.88331 2.49032C7.88331 2.82919 8.15303 3.10397 8.48574 3.10397H9.36904V4.0659H4.63093V3.10397ZM4.61321 15.4973H9.38679C9.71947 15.4973 9.98918 15.2226 9.98918 14.8837C9.98918 14.5448 9.71943 14.27 9.38675 14.27H4.61321C4.2805 14.27 4.01078 14.5448 4.01078 14.8837C4.01078 15.2226 4.28053 15.4973 4.61321 15.4973ZM9.38679 12.2373H4.61321C4.28053 12.2373 4.01078 11.9625 4.01078 11.6236C4.01078 11.2848 4.2805 11.01 4.61321 11.01H9.38675C9.71943 11.01 9.98918 11.2847 9.98918 11.6236C9.98918 11.9625 9.71947 12.2373 9.38679 12.2373ZM4.61321 8.97725H9.38679C9.71947 8.97725 9.98918 8.70251 9.98918 8.3636C9.98918 8.02469 9.71943 7.74995 9.38675 7.74995H4.61321C4.2805 7.74995 4.01078 8.02473 4.01078 8.3636C4.01078 8.70251 4.28053 8.97725 4.61321 8.97725Z" fill="#7900D8"/>
</svg>
