<svg width="24" height="24" viewBox="0 0 24 24" fill="none" xmlns="http://www.w3.org/2000/svg">
<g id="27) Icon/color-palette">
<path id="&#240;&#159;&#142;&#168; Icon &#208;&#161;olor" fill-rule="evenodd" clip-rule="evenodd" d="M10.5 6.49997C10.5 5.67197 11.172 4.99997 12 4.99997C12.828 4.99997 13.5 5.67197 13.5 6.49997C13.5 7.32797 12.828 7.99997 12 7.99997C11.172 7.99997 10.5 7.32797 10.5 6.49997ZM14.701 9.25017C14.287 8.53317 14.533 7.61517 15.25 7.20117C15.968 6.78717 16.885 7.03317 17.299 7.75017C17.713 8.46817 17.467 9.38517 16.75 9.79917C16.032 10.2132 15.115 9.96817 14.701 9.25017ZM8.74999 7.20117C8.03299 6.78717 7.11499 7.03317 6.70099 7.75017C6.28699 8.46817 6.53299 9.38517 7.24999 9.79917C7.96799 10.2132 8.88499 9.96817 9.29899 9.25017C9.71299 8.53317 9.46799 7.61517 8.74999 7.20117ZM5.75709 13.3388C5.29309 12.6528 5.47409 11.7198 6.16109 11.2568C6.84809 10.7928 7.78009 10.9748 8.24309 11.6608C8.70709 12.3478 8.52509 13.2798 7.83909 13.7428C7.15209 14.2068 6.22009 14.0258 5.75709 13.3388ZM15.8809 15.001H14.2309C12.8519 15.001 11.7309 16.122 11.7309 17.501C11.7309 18.107 11.9549 18.694 12.3619 19.154C12.4859 19.294 12.5269 19.459 12.4829 19.642C12.4339 19.847 12.1979 19.98 11.8889 20C9.60589 19.969 7.43889 18.958 5.94289 17.227C4.42789 15.472 3.76389 13.223 4.07389 10.895C4.58489 7.06197 8.03189 4.03297 11.9229 3.99997H11.9979C14.3549 3.99997 16.5759 4.89997 18.1049 6.47797C19.3929 7.80697 20.0649 9.50197 19.9949 11.25C19.9159 13.248 17.9929 15.001 15.8809 15.001ZM19.5399 5.08497C17.6169 3.10097 14.8149 1.99297 11.9059 1.99997H11.9049C6.96089 2.04197 2.74089 5.75197 2.09189 10.631C1.70989 13.491 2.56289 16.372 4.42989 18.534C6.29789 20.698 9.00689 21.961 11.8609 22H11.8989C13.0989 22 14.1569 21.213 14.4259 20.114C14.6249 19.292 14.4179 18.458 13.8589 17.826C13.7769 17.735 13.7309 17.616 13.7309 17.501C13.7309 17.226 13.9549 17.001 14.2309 17.001H15.8809C19.0729 17.001 21.8719 14.403 21.9929 11.329C22.0849 9.02897 21.2139 6.81197 19.5399 5.08497Z" fill="#222B45"/>
<mask id="mask0" mask-type="alpha" maskUnits="userSpaceOnUse" x="2" y="2" width="20" height="20">
<path id="&#240;&#159;&#142;&#168; Icon &#208;&#161;olor_2" fill-rule="evenodd" clip-rule="evenodd" d="M10.5 6.49997C10.5 5.67197 11.172 4.99997 12 4.99997C12.828 4.99997 13.5 5.67197 13.5 6.49997C13.5 7.32797 12.828 7.99997 12 7.99997C11.172 7.99997 10.5 7.32797 10.5 6.49997ZM14.701 9.25017C14.287 8.53317 14.533 7.61517 15.25 7.20117C15.968 6.78717 16.885 7.03317 17.299 7.75017C17.713 8.46817 17.467 9.38517 16.75 9.79917C16.032 10.2132 15.115 9.96817 14.701 9.25017ZM8.74999 7.20117C8.03299 6.78717 7.11499 7.03317 6.70099 7.75017C6.28699 8.46817 6.53299 9.38517 7.24999 9.79917C7.96799 10.2132 8.88499 9.96817 9.29899 9.25017C9.71299 8.53317 9.46799 7.61517 8.74999 7.20117ZM5.75709 13.3388C5.29309 12.6528 5.47409 11.7198 6.16109 11.2568C6.84809 10.7928 7.78009 10.9748 8.24309 11.6608C8.70709 12.3478 8.52509 13.2798 7.83909 13.7428C7.15209 14.2068 6.22009 14.0258 5.75709 13.3388ZM15.8809 15.001H14.2309C12.8519 15.001 11.7309 16.122 11.7309 17.501C11.7309 18.107 11.9549 18.694 12.3619 19.154C12.4859 19.294 12.5269 19.459 12.4829 19.642C12.4339 19.847 12.1979 19.98 11.8889 20C9.60589 19.969 7.43889 18.958 5.94289 17.227C4.42789 15.472 3.76389 13.223 4.07389 10.895C4.58489 7.06197 8.03189 4.03297 11.9229 3.99997H11.9979C14.3549 3.99997 16.5759 4.89997 18.1049 6.47797C19.3929 7.80697 20.0649 9.50197 19.9949 11.25C19.9159 13.248 17.9929 15.001 15.8809 15.001ZM19.5399 5.08497C17.6169 3.10097 14.8149 1.99297 11.9059 1.99997H11.9049C6.96089 2.04197 2.74089 5.75197 2.09189 10.631C1.70989 13.491 2.56289 16.372 4.42989 18.534C6.29789 20.698 9.00689 21.961 11.8609 22H11.8989C13.0989 22 14.1569 21.213 14.4259 20.114C14.6249 19.292 14.4179 18.458 13.8589 17.826C13.7769 17.735 13.7309 17.616 13.7309 17.501C13.7309 17.226 13.9549 17.001 14.2309 17.001H15.8809C19.0729 17.001 21.8719 14.403 21.9929 11.329C22.0849 9.02897 21.2139 6.81197 19.5399 5.08497Z" fill="white"/>
</mask>
<g mask="url(#mask0)">
</g>
</g>
</svg>
