<svg width="24" height="24" viewBox="0 0 24 24" fill="none" xmlns="http://www.w3.org/2000/svg">
<g id="27) Icon/corner-right-down">
<path id="&#240;&#159;&#142;&#168; Icon &#208;&#161;olor" fill-rule="evenodd" clip-rule="evenodd" d="M18.7808 14.3755C18.4358 13.9435 17.8058 13.8745 17.3758 14.2195L13.9998 16.9195V8.0005C13.9998 6.3455 12.6548 5.0005 10.9998 5.0005H5.99982C5.44782 5.0005 4.99982 5.4475 4.99982 6.0005C4.99982 6.5525 5.44782 7.0005 5.99982 7.0005H10.9998C11.5518 7.0005 11.9998 7.4485 11.9998 8.0005V16.9195L8.62482 14.2195C8.19482 13.8745 7.56482 13.9435 7.21882 14.3755C6.87382 14.8065 6.94382 15.4365 7.37582 15.7805L12.3758 19.7805C12.5578 19.9265 12.7788 20.0005 12.9998 20.0005C13.2208 20.0005 13.4418 19.9265 13.6248 19.7805L18.6248 15.7805C19.0558 15.4365 19.1258 14.8065 18.7808 14.3755Z" fill="#222B45"/>
<mask id="mask0" mask-type="alpha" maskUnits="userSpaceOnUse" x="4" y="5" width="15" height="16">
<path id="&#240;&#159;&#142;&#168; Icon &#208;&#161;olor_2" fill-rule="evenodd" clip-rule="evenodd" d="M18.7808 14.3755C18.4358 13.9435 17.8058 13.8745 17.3758 14.2195L13.9998 16.9195V8.0005C13.9998 6.3455 12.6548 5.0005 10.9998 5.0005H5.99982C5.44782 5.0005 4.99982 5.4475 4.99982 6.0005C4.99982 6.5525 5.44782 7.0005 5.99982 7.0005H10.9998C11.5518 7.0005 11.9998 7.4485 11.9998 8.0005V16.9195L8.62482 14.2195C8.19482 13.8745 7.56482 13.9435 7.21882 14.3755C6.87382 14.8065 6.94382 15.4365 7.37582 15.7805L12.3758 19.7805C12.5578 19.9265 12.7788 20.0005 12.9998 20.0005C13.2208 20.0005 13.4418 19.9265 13.6248 19.7805L18.6248 15.7805C19.0558 15.4365 19.1258 14.8065 18.7808 14.3755Z" fill="white"/>
</mask>
<g mask="url(#mask0)">
</g>
</g>
</svg>
