<svg width="24" height="24" viewBox="0 0 24 24" fill="none" xmlns="http://www.w3.org/2000/svg">
<g id="27) Icon/edit-fill">
<path id="&#240;&#159;&#142;&#168; Icon &#208;&#161;olor" fill-rule="evenodd" clip-rule="evenodd" d="M16.0187 10.6787L13.3237 7.9837L15.2717 6.0347L17.9657 8.7287L16.0187 10.6787ZM19.4037 7.3377L19.4027 7.3367L16.6647 4.5987C15.9237 3.8597 14.6507 3.8247 13.9487 4.5297L4.95265 13.5257C4.62665 13.8507 4.42465 14.2827 4.38265 14.7397L4.00365 18.9097C3.97765 19.2047 4.08265 19.4967 4.29265 19.7067C4.48165 19.8957 4.73665 19.9997 4.99965 19.9997C5.03065 19.9997 5.06065 19.9987 5.09065 19.9957L9.26065 19.6167C9.71865 19.5747 10.1497 19.3737 10.4747 19.0487L19.4717 10.0517C20.1997 9.3217 20.1687 8.1037 19.4037 7.3377Z" fill="#222B45"/>
<mask id="mask0" mask-type="alpha" maskUnits="userSpaceOnUse" x="3" y="4" width="17" height="16">
<path id="&#240;&#159;&#142;&#168; Icon &#208;&#161;olor_2" fill-rule="evenodd" clip-rule="evenodd" d="M16.0187 10.6787L13.3237 7.9837L15.2717 6.0347L17.9657 8.7287L16.0187 10.6787ZM19.4037 7.3377L19.4027 7.3367L16.6647 4.5987C15.9237 3.8597 14.6507 3.8247 13.9487 4.5297L4.95265 13.5257C4.62665 13.8507 4.42465 14.2827 4.38265 14.7397L4.00365 18.9097C3.97765 19.2047 4.08265 19.4967 4.29265 19.7067C4.48165 19.8957 4.73665 19.9997 4.99965 19.9997C5.03065 19.9997 5.06065 19.9987 5.09065 19.9957L9.26065 19.6167C9.71865 19.5747 10.1497 19.3737 10.4747 19.0487L19.4717 10.0517C20.1997 9.3217 20.1687 8.1037 19.4037 7.3377Z" fill="white"/>
</mask>
<g mask="url(#mask0)">
</g>
</g>
</svg>
