<svg width="24" height="24" viewBox="0 0 24 24" fill="none" xmlns="http://www.w3.org/2000/svg">
<g id="27) Icon/film-fill">
<path id="&#240;&#159;&#142;&#168; Icon &#208;&#161;olor" fill-rule="evenodd" clip-rule="evenodd" d="M19 18.2559C19 18.6659 18.666 18.9999 18.256 18.9999H17V16.9999H19V18.2559ZM5 18.2559V16.9999H7V18.9999H5.744C5.334 18.9999 5 18.6659 5 18.2559ZM5.744 4.99991H7V6.99991H5V5.74391C5 5.33391 5.334 4.99991 5.744 4.99991ZM19 5.74391V6.99991H17V4.99991H18.256C18.666 4.99991 19 5.33391 19 5.74391ZM17 14.9999H19V12.9999H17V14.9999ZM17 10.9999H19V8.99991H17V10.9999ZM5 14.9999H7V12.9999H5V14.9999ZM5 10.9999H7V8.99991H5V10.9999ZM18.256 2.99991H5.744C4.231 2.99991 3 4.23191 3 5.74391V18.2559C3 19.7689 4.231 20.9999 5.744 20.9999H18.256C19.769 20.9999 21 19.7689 21 18.2559V5.74391C21 4.23191 19.769 2.99991 18.256 2.99991Z" fill="#222B45"/>
<mask id="mask0" mask-type="alpha" maskUnits="userSpaceOnUse" x="3" y="3" width="18" height="18">
<path id="&#240;&#159;&#142;&#168; Icon &#208;&#161;olor_2" fill-rule="evenodd" clip-rule="evenodd" d="M19 18.2559C19 18.6659 18.666 18.9999 18.256 18.9999H17V16.9999H19V18.2559ZM5 18.2559V16.9999H7V18.9999H5.744C5.334 18.9999 5 18.6659 5 18.2559ZM5.744 4.99991H7V6.99991H5V5.74391C5 5.33391 5.334 4.99991 5.744 4.99991ZM19 5.74391V6.99991H17V4.99991H18.256C18.666 4.99991 19 5.33391 19 5.74391ZM17 14.9999H19V12.9999H17V14.9999ZM17 10.9999H19V8.99991H17V10.9999ZM5 14.9999H7V12.9999H5V14.9999ZM5 10.9999H7V8.99991H5V10.9999ZM18.256 2.99991H5.744C4.231 2.99991 3 4.23191 3 5.74391V18.2559C3 19.7689 4.231 20.9999 5.744 20.9999H18.256C19.769 20.9999 21 19.7689 21 18.2559V5.74391C21 4.23191 19.769 2.99991 18.256 2.99991Z" fill="white"/>
</mask>
<g mask="url(#mask0)">
</g>
</g>
</svg>
