<svg width="24" height="24" viewBox="0 0 24 24" fill="none" xmlns="http://www.w3.org/2000/svg">
<g id="27) Icon/flash-off-fill">
<path id="&#240;&#159;&#142;&#168; Icon &#208;&#161;olor" fill-rule="evenodd" clip-rule="evenodd" d="M17.3281 14.5001L19.8311 10.7561C20.0361 10.4491 20.0561 10.0551 19.8821 9.7291C19.7081 9.4031 19.3691 9.20011 19.0001 9.20011H13.1141L13.8831 2.10711C13.9321 1.65011 13.6631 1.21811 13.2301 1.06111C12.7971 0.902105 12.3131 1.06111 12.0571 1.44411L8.93811 6.11011L17.3281 14.5001ZM6.67191 9.50011L4.16891 13.2441C3.96391 13.5511 3.94391 13.9451 4.11791 14.2711C4.29191 14.5971 4.63091 14.8001 4.99991 14.8001H10.8859L10.1169 21.8931C10.0679 22.3501 10.3369 22.7821 10.7699 22.9391C10.8819 22.9801 10.9969 23.0001 11.1109 23.0001C11.4379 23.0001 11.7529 22.8401 11.9429 22.5561L15.0619 17.8901L6.67191 9.50011ZM4.70701 3.29301L20.707 19.293C21.098 19.684 21.098 20.316 20.707 20.707C20.512 20.902 20.256 21 20 21C19.744 21 19.488 20.902 19.293 20.707L3.29301 4.70701C2.90201 4.31601 2.90201 3.68401 3.29301 3.29301C3.68401 2.90201 4.31601 2.90201 4.70701 3.29301Z" fill="#222B45"/>
<mask id="mask0" mask-type="alpha" maskUnits="userSpaceOnUse" x="2" y="1" width="20" height="23">
<path id="&#240;&#159;&#142;&#168; Icon &#208;&#161;olor_2" fill-rule="evenodd" clip-rule="evenodd" d="M17.3281 14.5001L19.8311 10.7561C20.0361 10.4491 20.0561 10.0551 19.8821 9.7291C19.7081 9.4031 19.3691 9.20011 19.0001 9.20011H13.1141L13.8831 2.10711C13.9321 1.65011 13.6631 1.21811 13.2301 1.06111C12.7971 0.902105 12.3131 1.06111 12.0571 1.44411L8.93811 6.11011L17.3281 14.5001ZM6.67191 9.50011L4.16891 13.2441C3.96391 13.5511 3.94391 13.9451 4.11791 14.2711C4.29191 14.5971 4.63091 14.8001 4.99991 14.8001H10.8859L10.1169 21.8931C10.0679 22.3501 10.3369 22.7821 10.7699 22.9391C10.8819 22.9801 10.9969 23.0001 11.1109 23.0001C11.4379 23.0001 11.7529 22.8401 11.9429 22.5561L15.0619 17.8901L6.67191 9.50011ZM4.70701 3.29301L20.707 19.293C21.098 19.684 21.098 20.316 20.707 20.707C20.512 20.902 20.256 21 20 21C19.744 21 19.488 20.902 19.293 20.707L3.29301 4.70701C2.90201 4.31601 2.90201 3.68401 3.29301 3.29301C3.68401 2.90201 4.31601 2.90201 4.70701 3.29301Z" fill="white"/>
</mask>
<g mask="url(#mask0)">
</g>
</g>
</svg>
