<svg width="24" height="24" viewBox="0 0 24 24" fill="none" xmlns="http://www.w3.org/2000/svg">
<g id="27) Icon/home">
<path id="&#240;&#159;&#142;&#168; Icon &#208;&#161;olor" fill-rule="evenodd" clip-rule="evenodd" d="M16.0002 19.9878H18.9902L19.0002 11.6118L11.9982 4.41981L5.0062 11.5708L5.0002 19.9878H8.0002V12.9878C8.0002 12.4348 8.4472 11.9878 9.0002 11.9878H15.0002C15.5522 11.9878 16.0002 12.4348 16.0002 12.9878V19.9878ZM14.0002 19.9878H10.0002V13.9878H14.0002V19.9878ZM20.4242 10.1728L12.7152 2.28881C12.3382 1.90381 11.6622 1.90381 11.2852 2.28881L3.5752 10.1738C3.2102 10.5488 3.0002 11.0728 3.0002 11.6118V19.9878C3.0002 21.0908 3.8472 21.9878 4.8882 21.9878H9.0002H15.0002H19.1112C20.1522 21.9878 21.0002 21.0908 21.0002 19.9878V11.6118C21.0002 11.0728 20.7902 10.5488 20.4242 10.1728Z" fill="#222B45"/>
</g>
</svg>
