<svg width="24" height="24" viewBox="0 0 24 24" fill="none" xmlns="http://www.w3.org/2000/svg">
<g id="27) Icon/layout">
<path id="&#240;&#159;&#142;&#168; Icon &#208;&#161;olor" fill-rule="evenodd" clip-rule="evenodd" d="M18 19H13V10H19V18C19 18.552 18.551 19 18 19ZM5 18V10H11V19H6C5.449 19 5 18.552 5 18ZM6 5H18C18.551 5 19 5.448 19 6V8H5V6C5 5.448 5.449 5 6 5ZM18 3H6C4.346 3 3 4.346 3 6V8.818V9.182V18C3 19.654 4.346 21 6 21H18C19.654 21 21 19.654 21 18V9.182V8.818V6C21 4.346 19.654 3 18 3Z" fill="#222B45"/>
<mask id="mask0" mask-type="alpha" maskUnits="userSpaceOnUse" x="3" y="3" width="18" height="18">
<path id="&#240;&#159;&#142;&#168; Icon &#208;&#161;olor_2" fill-rule="evenodd" clip-rule="evenodd" d="M18 19H13V10H19V18C19 18.552 18.551 19 18 19ZM5 18V10H11V19H6C5.449 19 5 18.552 5 18ZM6 5H18C18.551 5 19 5.448 19 6V8H5V6C5 5.448 5.449 5 6 5ZM18 3H6C4.346 3 3 4.346 3 6V8.818V9.182V18C3 19.654 4.346 21 6 21H18C19.654 21 21 19.654 21 18V9.182V8.818V6C21 4.346 19.654 3 18 3Z" fill="white"/>
</mask>
<g mask="url(#mask0)">
</g>
</g>
</svg>
