<svg width="16" height="18" viewBox="0 0 16 18" fill="none" xmlns="http://www.w3.org/2000/svg">
<path d="M5.50506 11.2231H4.87187C4.14843 11.2231 2.96465 11.2231 2.24098 11.2231H1.66463C0.941191 11.2231 0.349304 11.815 0.349304 12.5385V16.1197C0.349304 16.8432 0.941191 17.435 1.66463 17.435H5.50506C6.2285 17.435 6.82039 16.8432 6.82039 16.1197V12.5385C6.82039 11.815 6.2285 11.2231 5.50506 11.2231Z" fill="#3F51B5"/>
<path d="M14.2968 11.2231H10.4564C9.73297 11.2231 9.14108 11.815 9.14108 12.5385V16.1197C9.14108 16.8432 9.73297 17.435 10.4564 17.435H14.2968C15.0203 17.435 15.6122 16.8432 15.6122 16.1197V12.5385C15.6124 11.815 15.0203 11.2231 14.2968 11.2231Z" fill="#3F51B5"/>
<path d="M3.99157 10.0004C3.99157 9.65187 4.32824 9.35743 4.72685 9.35743H11.0613C11.4601 9.35743 11.7968 9.65187 11.7968 10.0004V11.2234H12.9569V10.0004C12.9569 9.00615 12.1065 8.19732 11.0613 8.19732H8.47423V6.41053H9.81439C10.5378 6.41053 11.1297 5.81864 11.1297 5.09519V1.51394C11.1297 0.790496 10.5378 0.198608 9.81439 0.198608H5.97397C5.25052 0.198608 4.65863 0.790496 4.65863 1.51394V5.09519C4.65863 5.81864 5.25052 6.41053 5.97397 6.41053H7.31412V8.19732H4.72708C3.68206 8.19732 2.8317 9.00592 2.8317 10.0004V11.2234H3.9918V10.0004H3.99157Z" fill="#3F51B5"/>
</svg>
