<svg width="18" height="18" viewBox="0 0 18 18" fill="none" xmlns="http://www.w3.org/2000/svg">
<path d="M7.95868 0.860687C4.09091 0.860687 0.924438 4.00591 0.924438 7.89493C0.924438 11.7627 4.06966 14.9292 7.95868 14.9292C9.21251 14.9292 10.4664 14.5891 11.5714 13.9303L11.8264 13.7816L15.0567 16.9693C15.2692 17.1818 15.5455 17.3093 15.8642 17.3093C16.1617 17.3093 16.4593 17.1818 16.6718 16.9693C16.8843 16.7568 17.0118 16.4805 17.0118 16.1617C17.0118 15.843 16.8843 15.588 16.6718 15.3542L13.5053 12.2302L13.7816 11.8264C14.5679 10.6576 14.9929 9.29752 14.9929 7.89493C14.9929 4.00591 11.8477 0.860687 7.95868 0.860687Z" fill="#E91E63"/>
<path d="M7.95866 4.5C7.15111 4.5 6.49231 5.1588 6.49231 5.96635C6.49231 6.77391 7.15111 7.4327 7.95866 7.4327C8.76622 7.4327 9.42501 6.77391 9.42501 5.96635C9.42501 5.1588 8.78747 4.5 7.95866 4.5Z" fill="#FCE8EF"/>
<path d="M9.31876 8.36246H6.59857C5.89728 8.36246 5.32349 8.93625 5.32349 9.63755V10.8276H10.6151V9.63755C10.6151 8.93625 10.0413 8.36246 9.31876 8.36246Z" fill="#FCE8EF"/>
</svg>
