<svg id="Layer_1" data-name="Layer 1" xmlns="http://www.w3.org/2000/svg" viewBox="0 0 44 44"><circle cx="22" cy="22" r="22" style="fill:#fa0;fill-opacity:0.11999999731779099"/><path d="M32.81,29.31l-9.66-16a1.34,1.34,0,0,0-2.3,0l-9.66,16a1.37,1.37,0,0,0,0,1.36,1.36,1.36,0,0,0,1.18.68h19.3a1.36,1.36,0,0,0,1.18-.68A1.37,1.37,0,0,0,32.81,29.31ZM22,18.19a.91.91,0,0,1,1,.86c0,.85-.05,1.88-.1,2.91s-.1,2.06-.1,2.91c0,.44-.48.62-.82.62s-.84-.18-.84-.62c0-.85-.05-1.88-.1-2.91h0c-.05-1-.1-2.06-.1-2.91C21,18.5,21.42,18.19,22,18.19Zm-1.08,9.38A1.09,1.09,0,0,0,22,28.66a1.1,1.1,0,0,0,0-2.19A1.09,1.09,0,0,0,20.93,27.57Z" style="fill:#fa0;fill-rule:evenodd"/></svg>