<svg id="Layer_1" data-name="Layer 1" xmlns="http://www.w3.org/2000/svg" viewBox="0 0 24 15"><path d="M12,.5A3.52,3.52,0,0,1,15.5,4a3.5,3.5,0,1,1-6-2.47A3.46,3.46,0,0,1,12,.5ZM5,3a3,3,0,0,1,1.53.42,5.54,5.54,0,0,0,1.13,4A3,3,0,1,1,5,3ZM19,3a3,3,0,1,1-2.66,4.38,5.54,5.54,0,0,0,1.13-4A3,3,0,0,1,19,3ZM5.5,13.25C5.5,11.18,8.41,9.5,12,9.5s6.5,1.68,6.5,3.75V15H5.5ZM0,15V13.5c0-1.39,1.89-2.56,4.45-2.9a4,4,0,0,0-1,2.65V15Zm24,0H20.5V13.25a4,4,0,0,0-.95-2.65c2.56.34,4.45,1.51,4.45,2.9Z" style="fill:#222b45"/></svg>