<svg width="24" height="24" viewBox="0 0 24 24" fill="none" xmlns="http://www.w3.org/2000/svg">
<g id="27) Icon/phone-off">
<path id="&#240;&#159;&#142;&#168; Icon &#208;&#161;olor" fill-rule="evenodd" clip-rule="evenodd" d="M6.69818 14.6299C5.01218 12.3889 4.00018 9.61288 4.00018 6.59988C4.00018 5.16588 5.16618 3.99988 6.59918 3.99988C6.70918 3.99988 6.81718 4.00688 6.92718 4.02188L7.98818 8.64188L7.81798 8.73068L7.81759 8.73088C7.69268 8.79599 7.56489 8.86261 7.44318 8.92688C6.57218 9.38188 5.94318 9.71088 6.26518 10.5139C6.64118 11.5839 7.18618 12.5759 7.84418 13.4839L9.27318 12.0549C8.97118 11.6089 8.70118 11.1389 8.47418 10.6449C9.71418 9.99488 9.71818 9.99188 9.85418 9.84988C10.0882 9.60688 10.1822 9.26188 10.1072 8.93388L8.73818 2.96988C8.66118 2.63388 8.41718 2.36088 8.09218 2.24888C7.85418 2.16588 7.60818 2.10488 7.36518 2.06588C7.11618 2.02288 6.86018 1.99988 6.59918 1.99988C4.06318 1.99988 2.00018 4.06388 2.00018 6.59988C2.00018 10.1659 3.22918 13.4429 5.27118 16.0569L6.69818 14.6299ZM19.7393 4.26068C19.3923 3.91268 18.8303 3.91268 18.4823 4.26068L4.26028 18.4827C4.08728 18.6567 4.00028 18.8837 4.00028 19.1117C4.00028 19.3387 4.08728 19.5667 4.26028 19.7397C4.60728 20.0867 5.17028 20.0867 5.51728 19.7397L19.7393 5.51768C20.0873 5.16968 20.0873 4.60768 19.7393 4.26068ZM21.7505 15.9087C21.8325 16.1437 21.8955 16.3887 21.9355 16.6387C21.9775 16.8867 21.9995 17.1417 21.9995 17.4007C21.9995 19.9367 19.9365 21.9997 17.4005 21.9997C13.8335 21.9997 10.5565 20.7707 7.94348 18.7287L9.37048 17.3017C11.6115 18.9877 14.3865 19.9997 17.4005 19.9997C18.8335 19.9997 19.9995 18.8337 19.9995 17.4007C19.9995 17.2887 19.9935 17.1797 19.9785 17.0727L15.3585 16.0117L15.0735 16.5567L15.0688 16.5656C14.6162 17.431 14.2886 18.0575 13.4465 17.7197C12.3935 17.3507 11.4135 16.8107 10.5125 16.1587L11.9425 14.7287C12.3895 15.0327 12.8605 15.3027 13.3545 15.5277C14.0036 14.2864 14.0075 14.2827 14.1499 14.1463L14.1505 14.1457C14.3935 13.9117 14.7375 13.8197 15.0665 13.8927L21.0305 15.2617C21.3665 15.3387 21.6385 15.5827 21.7505 15.9087Z" fill="#222B45"/>
<mask id="mask0" mask-type="alpha" maskUnits="userSpaceOnUse" x="2" y="1" width="20" height="21">
<path id="&#240;&#159;&#142;&#168; Icon &#208;&#161;olor_2" fill-rule="evenodd" clip-rule="evenodd" d="M6.69818 14.6299C5.01218 12.3889 4.00018 9.61288 4.00018 6.59988C4.00018 5.16588 5.16618 3.99988 6.59918 3.99988C6.70918 3.99988 6.81718 4.00688 6.92718 4.02188L7.98818 8.64188L7.81798 8.73068L7.81759 8.73088C7.69268 8.79599 7.56489 8.86261 7.44318 8.92688C6.57218 9.38188 5.94318 9.71088 6.26518 10.5139C6.64118 11.5839 7.18618 12.5759 7.84418 13.4839L9.27318 12.0549C8.97118 11.6089 8.70118 11.1389 8.47418 10.6449C9.71418 9.99488 9.71818 9.99188 9.85418 9.84988C10.0882 9.60688 10.1822 9.26188 10.1072 8.93388L8.73818 2.96988C8.66118 2.63388 8.41718 2.36088 8.09218 2.24888C7.85418 2.16588 7.60818 2.10488 7.36518 2.06588C7.11618 2.02288 6.86018 1.99988 6.59918 1.99988C4.06318 1.99988 2.00018 4.06388 2.00018 6.59988C2.00018 10.1659 3.22918 13.4429 5.27118 16.0569L6.69818 14.6299ZM19.7393 4.26068C19.3923 3.91268 18.8303 3.91268 18.4823 4.26068L4.26028 18.4827C4.08728 18.6567 4.00028 18.8837 4.00028 19.1117C4.00028 19.3387 4.08728 19.5667 4.26028 19.7397C4.60728 20.0867 5.17028 20.0867 5.51728 19.7397L19.7393 5.51768C20.0873 5.16968 20.0873 4.60768 19.7393 4.26068ZM21.7505 15.9087C21.8325 16.1437 21.8955 16.3887 21.9355 16.6387C21.9775 16.8867 21.9995 17.1417 21.9995 17.4007C21.9995 19.9367 19.9365 21.9997 17.4005 21.9997C13.8335 21.9997 10.5565 20.7707 7.94348 18.7287L9.37048 17.3017C11.6115 18.9877 14.3865 19.9997 17.4005 19.9997C18.8335 19.9997 19.9995 18.8337 19.9995 17.4007C19.9995 17.2887 19.9935 17.1797 19.9785 17.0727L15.3585 16.0117L15.0735 16.5567L15.0688 16.5656C14.6162 17.431 14.2886 18.0575 13.4465 17.7197C12.3935 17.3507 11.4135 16.8107 10.5125 16.1587L11.9425 14.7287C12.3895 15.0327 12.8605 15.3027 13.3545 15.5277C14.0036 14.2864 14.0075 14.2827 14.1499 14.1463L14.1505 14.1457C14.3935 13.9117 14.7375 13.8197 15.0665 13.8927L21.0305 15.2617C21.3665 15.3387 21.6385 15.5827 21.7505 15.9087Z" fill="white"/>
</mask>
<g mask="url(#mask0)">
</g>
</g>
</svg>
