<svg width="24" height="24" viewBox="0 0 24 24" fill="none" xmlns="http://www.w3.org/2000/svg">
<g id="27) Icon/phone-missed">
<path id="&#240;&#159;&#142;&#168; Icon &#208;&#161;olor" fill-rule="evenodd" clip-rule="evenodd" d="M15.8018 7.23243L16.5348 6.50043L15.8018 5.76743C15.3998 5.36443 15.3998 4.70543 15.8018 4.30143C16.2048 3.89943 16.8638 3.89943 17.2678 4.30143L17.9998 5.03543L18.7328 4.30143C19.1358 3.89943 19.7948 3.89943 20.1978 4.30143C20.6008 4.70543 20.6008 5.36443 20.1978 5.76743L19.4648 6.50043L20.1978 7.23243C20.6008 7.63543 20.6008 8.29443 20.1978 8.69843C19.7948 9.10043 19.1358 9.10043 18.7328 8.69843L17.9998 7.96443L17.2678 8.69843C16.8638 9.10043 16.2048 9.10043 15.8018 8.69843C15.3998 8.29443 15.3998 7.63543 15.8018 7.23243ZM17.4008 20.0004C10.0118 20.0004 3.99982 13.9884 3.99982 6.59943C3.99982 5.16643 5.16582 4.00043 6.59982 4.00043C6.70882 4.00043 6.81782 4.00643 6.92782 4.02143L7.98882 8.64143C7.81282 8.73343 7.62082 8.83343 7.44382 8.92643C6.57282 9.38143 5.94382 9.71143 6.26582 10.5134C7.44082 13.8604 10.1398 16.5594 13.4468 17.7194C14.2938 18.0584 14.6178 17.4264 15.0728 16.5564C15.1668 16.3784 15.2668 16.1874 15.3588 16.0114L19.9788 17.0724C19.9928 17.1794 19.9998 17.2894 19.9998 17.4004C19.9998 18.8344 18.8338 20.0004 17.4008 20.0004ZM21.9358 16.6384C21.8958 16.3884 21.8328 16.1434 21.7508 15.9084C21.6388 15.5834 21.3658 15.3384 21.0308 15.2614L15.0668 13.8924C14.7378 13.8194 14.3938 13.9124 14.1508 14.1454C14.0078 14.2824 14.0048 14.2854 13.3548 15.5274C11.2148 14.5524 9.46582 12.8064 8.47482 10.6444C9.71382 9.99543 9.71782 9.99243 9.85482 9.84943C10.0878 9.60643 10.1828 9.26143 10.1078 8.93343L8.73882 2.96943C8.66082 2.63343 8.41682 2.36143 8.09182 2.24943C7.85482 2.16643 7.60882 2.10443 7.36482 2.06543C7.11582 2.02243 6.86082 2.00043 6.59982 2.00043C4.06382 2.00043 1.99982 4.06343 1.99982 6.59943C1.99982 15.0914 8.90782 22.0004 17.4008 22.0004C19.9368 22.0004 21.9998 19.9364 21.9998 17.4004C21.9998 17.1414 21.9778 16.8864 21.9358 16.6384Z" fill="#222B45"/>
</g>
</svg>
