<svg width="24" height="24" viewBox="0 0 24 24" fill="none" xmlns="http://www.w3.org/2000/svg">
<g id="27) Icon/phone-call">
<path id="&#240;&#159;&#142;&#168; Icon &#208;&#161;olor" fill-rule="evenodd" clip-rule="evenodd" d="M20 17.4004C20 17.2894 19.993 17.1794 19.979 17.0724L15.358 16.0114C15.267 16.1874 15.167 16.3794 15.073 16.5564C14.618 17.4264 14.292 18.0584 13.446 17.7194C10.14 16.5594 7.441 13.8604 6.266 10.5134C5.909 9.72943 6.589 9.37343 7.451 8.92243C7.626 8.83143 7.815 8.73243 7.988 8.64143L6.928 4.02143C6.817 4.00643 6.709 4.00043 6.6 4.00043C5.167 4.00043 4 5.16643 4 6.59943C4 13.9884 10.011 20.0004 17.4 20.0004C18.834 20.0004 20 18.8344 20 17.4004ZM21.936 16.6384C21.978 16.8864 22 17.1414 22 17.4004C22 19.9364 19.937 22.0004 17.4 22.0004C8.909 22.0004 2 15.0914 2 6.59943C2 4.06343 4.063 2.00043 6.6 2.00043C6.86 2.00043 7.117 2.02243 7.366 2.06543C7.609 2.10443 7.854 2.16643 8.091 2.24843C8.417 2.36143 8.661 2.63343 8.738 2.96943L10.107 8.93343C10.183 9.26143 10.088 9.60643 9.854 9.84943C9.718 9.99243 9.715 9.99543 8.475 10.6434C9.479 12.8184 11.224 14.5564 13.354 15.5274C14.005 14.2864 14.008 14.2824 14.15 14.1454C14.394 13.9124 14.737 13.8194 15.066 13.8924L21.03 15.2614C21.366 15.3384 21.639 15.5834 21.751 15.9084C21.833 16.1434 21.896 16.3884 21.936 16.6384ZM13 4.00043C16.859 4.00043 20 7.14043 20 11.0004C20 11.5524 20.447 12.0004 21 12.0004C21.553 12.0004 22 11.5524 22 11.0004C22 6.03743 17.963 2.00043 13 2.00043C12.448 2.00043 12 2.44743 12 3.00043C12 3.55243 12.448 4.00043 13 4.00043ZM12 7.00043C12 6.44743 12.448 6.00043 13 6.00043C15.757 6.00043 18 8.24343 18 11.0004C18 11.5524 17.553 12.0004 17 12.0004C16.447 12.0004 16 11.5524 16 11.0004C16 9.34543 14.654 8.00043 13 8.00043C12.448 8.00043 12 7.55243 12 7.00043Z" fill="#222B45"/>
</g>
</svg>
