<svg width="24" height="24" viewBox="0 0 24 24" fill="none" xmlns="http://www.w3.org/2000/svg">
<g id="27) Icon/radio-fill">
<path id="&#240;&#159;&#142;&#168; Icon &#208;&#161;olor" fill-rule="evenodd" clip-rule="evenodd" d="M6.644 16.2342C7.066 16.5912 7.121 17.2222 6.766 17.6442C6.567 17.8792 6.284 18.0002 5.999 18.0002C5.772 18.0002 5.544 17.9232 5.356 17.7662C3.192 15.9442 2 13.5412 2 11.0002C2 8.45921 3.192 6.05621 5.356 4.23421C5.779 3.87921 6.409 3.93421 6.766 4.35621C7.121 4.77821 7.066 5.40921 6.644 5.76621C4.938 7.20021 4 9.05921 4 11.0002C4 12.9412 4.938 14.8002 6.644 16.2342ZM22 11.0002C22 13.5412 20.808 15.9442 18.644 17.7662C18.456 17.9232 18.228 18.0002 18.001 18.0002C17.716 18.0002 17.433 17.8792 17.234 17.6442C16.879 17.2222 16.934 16.5912 17.356 16.2342C19.062 14.8002 20 12.9412 20 11.0002C20 9.05921 19.062 7.20021 17.356 5.76621C16.934 5.40921 16.879 4.77821 17.234 4.35621C17.591 3.93521 18.22 3.88021 18.644 4.23421C20.808 6.05621 22 8.45921 22 11.0002ZM9.144 7.76521C8.084 8.65721 7.5 9.80721 7.5 11.0002C7.5 12.1932 8.084 13.3432 9.144 14.2352C9.566 14.5912 9.621 15.2222 9.265 15.6442C9.067 15.8792 8.784 16.0002 8.499 16.0002C8.272 16.0002 8.044 15.9232 7.856 15.7652C6.337 14.4862 5.5 12.7942 5.5 11.0002C5.5 9.20621 6.337 7.51421 7.856 6.23521C8.28 5.87721 8.91 5.93421 9.265 6.35621C9.621 6.77821 9.566 7.40921 9.144 7.76521ZM16.144 15.7652C17.663 14.4862 18.5 12.7942 18.5 11.0002C18.5 9.20621 17.663 7.51421 16.144 6.23521C15.721 5.87821 15.09 5.93521 14.735 6.35621C14.379 6.77821 14.434 7.40921 14.856 7.76521C15.916 8.65721 16.5 9.80721 16.5 11.0002C16.5 12.1932 15.916 13.3432 14.856 14.2352C14.434 14.5912 14.379 15.2222 14.735 15.6442C14.933 15.8792 15.216 16.0002 15.501 16.0002C15.728 16.0002 15.956 15.9232 16.144 15.7652ZM9 11C9 9.34601 10.346 8.00001 12 8.00001C13.654 8.00001 15 9.34601 15 11C15 12.314 14.145 13.422 12.965 13.826C12.9689 13.847 12.9745 13.8673 12.98 13.8875C12.9901 13.9239 13 13.9601 13 14V20C13 20.553 12.553 21 12 21C11.447 21 11 20.553 11 20V14C11 13.9601 11.0099 13.9239 11.02 13.8875C11.0255 13.8673 11.0311 13.847 11.035 13.826C9.855 13.422 9 12.314 9 11Z" fill="#222B45"/>
</g>
</svg>
