<svg width="24" height="24" viewBox="0 0 24 24" fill="none" xmlns="http://www.w3.org/2000/svg">
<g id="27) Icon/radio">
<path id="&#240;&#159;&#142;&#168; Icon &#208;&#161;olor" fill-rule="evenodd" clip-rule="evenodd" d="M6.766 17.6442C7.121 17.2222 7.066 16.5912 6.644 16.2342C4.938 14.8002 4 12.9412 4 11.0002C4 9.05921 4.938 7.20021 6.644 5.76621C7.066 5.40921 7.121 4.77821 6.766 4.35621C6.409 3.93421 5.779 3.87921 5.356 4.23421C3.192 6.05621 2 8.45921 2 11.0002C2 13.5412 3.192 15.9442 5.356 17.7662C5.544 17.9232 5.772 18.0002 5.999 18.0002C6.284 18.0002 6.567 17.8792 6.766 17.6442ZM18.644 17.7662C20.808 15.9442 22 13.5412 22 11.0002C22 8.45921 20.808 6.05621 18.644 4.23421C18.22 3.88021 17.591 3.93521 17.234 4.35621C16.879 4.77821 16.934 5.40921 17.356 5.76621C19.062 7.20021 20 9.05921 20 11.0002C20 12.9412 19.062 14.8002 17.356 16.2342C16.934 16.5912 16.879 17.2222 17.234 17.6442C17.433 17.8792 17.716 18.0002 18.001 18.0002C18.228 18.0002 18.456 17.9232 18.644 17.7662ZM7.5 11.0002C7.5 9.80721 8.084 8.65721 9.144 7.76521C9.566 7.40921 9.621 6.77821 9.265 6.35621C8.91 5.93421 8.28 5.87721 7.856 6.23521C6.337 7.51421 5.5 9.20621 5.5 11.0002C5.5 12.7942 6.337 14.4862 7.856 15.7652C8.044 15.9232 8.272 16.0002 8.499 16.0002C8.784 16.0002 9.067 15.8792 9.265 15.6442C9.621 15.2222 9.566 14.5912 9.144 14.2352C8.084 13.3432 7.5 12.1932 7.5 11.0002ZM18.5 11.0002C18.5 12.7942 17.663 14.4862 16.144 15.7652C15.956 15.9232 15.728 16.0002 15.501 16.0002C15.216 16.0002 14.933 15.8792 14.735 15.6442C14.379 15.2222 14.434 14.5912 14.856 14.2352C15.916 13.3432 16.5 12.1932 16.5 11.0002C16.5 9.80721 15.916 8.65721 14.856 7.76521C14.434 7.40921 14.379 6.77821 14.735 6.35621C15.09 5.93521 15.721 5.87821 16.144 6.23521C17.663 7.51421 18.5 9.20621 18.5 11.0002ZM12 12C11.448 12 11 11.552 11 11C11 10.448 11.448 10 12 10C12.552 10 13 10.448 13 11C13 11.552 12.552 12 12 12ZM12 8.00001C10.346 8.00001 9 9.34601 9 11C9 12.314 9.855 13.422 11.035 13.826C11.024 13.885 11 13.938 11 14V20C11 20.553 11.447 21 12 21C12.553 21 13 20.553 13 20V14C13 13.938 12.976 13.885 12.965 13.826C14.145 13.422 15 12.314 15 11C15 9.34601 13.654 8.00001 12 8.00001Z" fill="#222B45"/>
</g>
</svg>
