<svg width="24" height="24" viewBox="0 0 24 24" fill="none" xmlns="http://www.w3.org/2000/svg">
<g id="27) Icon/scissors">
<path id="&#240;&#159;&#142;&#168; Icon &#208;&#161;olor" fill-rule="evenodd" clip-rule="evenodd" d="M20.707 18.293C21.098 18.684 21.098 19.316 20.707 19.707C20.512 19.902 20.256 20 20 20C19.744 20 19.488 19.902 19.293 19.707L14.293 14.707C13.902 14.316 13.902 13.684 14.293 13.293C14.684 12.902 15.316 12.902 15.707 13.293L20.707 18.293ZM7 19C6.448 19 6 18.551 6 18C6 17.449 6.448 17 7 17C7.552 17 8 17.449 8 18C8 18.551 7.552 19 7 19ZM7 7C6.448 7 6 6.551 6 6C6 5.449 6.448 5 7 5C7.552 5 8 5.449 8 6C8 6.551 7.552 7 7 7ZM20.708 5.706C21.099 5.314 21.097 4.682 20.706 4.292C20.314 3.902 19.682 3.904 19.292 4.294L13.012 10.597L9.707 7.293C9.704 7.291 9.701 7.29 9.698 7.287C9.886 6.896 10 6.462 10 6C10 4.346 8.654 3 7 3C5.346 3 4 4.346 4 6C4 7.654 5.346 9 7 9C7.463 9 7.895 8.886 8.287 8.698C8.29 8.701 8.29 8.705 8.293 8.707L11.6 12.014L8.311 15.314C7.913 15.12 7.473 15 7 15C5.346 15 4 16.346 4 18C4 19.654 5.346 21 7 21C8.654 21 10 19.654 10 18C10 17.549 9.893 17.125 9.714 16.74L20.708 5.706Z" fill="#222B45"/>
</g>
</svg>
