<svg width="22" height="19" viewBox="0 0 22 19" fill="none" xmlns="http://www.w3.org/2000/svg">
<path fill-rule="evenodd" clip-rule="evenodd" d="M21.8064 16.6747L12.1543 0.667608C11.9104 0.263057 11.4724 0.015686 11 0.015686C10.5275 0.015686 10.0895 0.263014 9.8456 0.667608L0.193615 16.6747C-0.0574084 17.091 -0.064842 17.6103 0.174236 18.0336C0.413314 18.4569 0.861779 18.7187 1.34793 18.7187H20.652C21.1382 18.7187 21.5866 18.4569 21.8257 18.0336C22.0648 17.6103 22.0574 17.091 21.8064 16.6747ZM11.0072 5.55273C11.5615 5.55273 12.0306 5.86545 12.0306 6.41975C12.0306 7.26544 11.9808 8.29593 11.9311 9.32641C11.8813 10.3569 11.8316 11.3874 11.8316 12.2331C11.8316 12.6737 11.3483 12.8584 11.0072 12.8584C10.5524 12.8584 10.1686 12.6737 10.1686 12.2331C10.1686 11.3874 10.1189 10.3569 10.0691 9.32641L10.0691 9.32634C10.0194 8.29588 9.96965 7.26542 9.96965 6.41975C9.96965 5.86545 10.4244 5.55273 11.0072 5.55273ZM9.92694 14.9337C9.92694 15.5164 10.396 16.0281 11.0214 16.0281C11.6041 16.0281 12.1016 15.5164 12.1016 14.9337C12.1016 14.3367 11.6041 13.8393 11.0214 13.8393C10.396 13.8393 9.92694 14.3367 9.92694 14.9337Z" fill="#FFAA00"/>
</svg>
