<svg width="24" height="24" viewBox="0 0 24 24" fill="none" xmlns="http://www.w3.org/2000/svg">
<g id="27) Icon/share-fill">
<path id="&#240;&#159;&#142;&#168; Icon &#208;&#161;olor" fill-rule="evenodd" clip-rule="evenodd" d="M18 15.0005C17.183 15.0005 16.443 15.3305 15.901 15.8615L7.966 12.3355C7.979 12.2245 8 12.1145 8 12.0005C8 11.8865 7.979 11.7765 7.966 11.6655L15.901 8.1395C16.443 8.6705 17.183 9.0005 18 9.0005C19.654 9.0005 21 7.6545 21 6.0005C21 4.3465 19.654 3.0005 18 3.0005C16.346 3.0005 15 4.3465 15 6.0005C15 6.1145 15.021 6.2245 15.034 6.3355L7.099 9.8615C6.557 9.3305 5.817 9.0005 5 9.0005C3.346 9.0005 2 10.3465 2 12.0005C2 13.6545 3.346 15.0005 5 15.0005C5.817 15.0005 6.557 14.6705 7.099 14.1395L15.034 17.6655C15.021 17.7765 15 17.8865 15 18.0005C15 19.6545 16.346 21.0005 18 21.0005C19.654 21.0005 21 19.6545 21 18.0005C21 16.3465 19.654 15.0005 18 15.0005Z" fill="#222B45"/>
<mask id="mask0" mask-type="alpha" maskUnits="userSpaceOnUse" x="2" y="3" width="19" height="19">
<path id="&#240;&#159;&#142;&#168; Icon &#208;&#161;olor_2" fill-rule="evenodd" clip-rule="evenodd" d="M18 15.0005C17.183 15.0005 16.443 15.3305 15.901 15.8615L7.966 12.3355C7.979 12.2245 8 12.1145 8 12.0005C8 11.8865 7.979 11.7765 7.966 11.6655L15.901 8.1395C16.443 8.6705 17.183 9.0005 18 9.0005C19.654 9.0005 21 7.6545 21 6.0005C21 4.3465 19.654 3.0005 18 3.0005C16.346 3.0005 15 4.3465 15 6.0005C15 6.1145 15.021 6.2245 15.034 6.3355L7.099 9.8615C6.557 9.3305 5.817 9.0005 5 9.0005C3.346 9.0005 2 10.3465 2 12.0005C2 13.6545 3.346 15.0005 5 15.0005C5.817 15.0005 6.557 14.6705 7.099 14.1395L15.034 17.6655C15.021 17.7765 15 17.8865 15 18.0005C15 19.6545 16.346 21.0005 18 21.0005C19.654 21.0005 21 19.6545 21 18.0005C21 16.3465 19.654 15.0005 18 15.0005Z" fill="white"/>
</mask>
<g mask="url(#mask0)">
</g>
</g>
</svg>
